SplineFontDB: 3.2
FontName: Teletext-Decoder
FullName: Teletext Decoder Regular
FamilyName: Teletext Decoder
Weight: Book
Copyright: Created by Fabian Schneider (fabianswebworld.de) for use in the 'ttxweb' teletext-to-html decoder project, this font is based upon inspirations taken from (1) the pixel font depicted in the ETSI Teletext standard documents, (2) the font found in the CGROM of dozens of teletext decoders since the late 1980s in several variations, (3) the Teletext font found in the OpenSUSE 'tv-fonts' package, creating a mashup with some glyph additions and variations to the author's own taste. Licensed under the Creative Commons Attribution Share Alike License (CC-BY-SA). Feel free to edit.
UComments: "Licensed under the Creative Commons Attribution Share Alike License (CC-BY-SA). Created by Fabian Schneider (fabianswebworld.de) for use in the 'ttxweb' teletext-to-html decoder project, this font is based upon inspirations taken from (1) the pixel font depicted in the ETSI Teletext standard documents, (2) the font found in the CGROM of dozens of teletext decoders since the late 1980s in several variations, (3) the Teletext font found in the OpenSUSE 'tv-fonts' package, creating a mashup with some glyph additions and variations to the author's own taste. Feel free to edit."
Version: 1.4
ItalicAngle: 0
UnderlinePosition: 153
UnderlineWidth: 102
Ascent: 1638
Descent: 410
InvalidEm: 0
sfntRevision: 0x00010000
LayerCount: 2
Layer: 0 1 "Hinten" 1
Layer: 1 1 "Vorne" 0
XUID: [1021 858 -134983917 29170]
StyleMap: 0x0040
FSType: 4
OS2Version: 2
OS2_WeightWidthSlopeOnly: 0
OS2_UseTypoMetrics: 0
CreationTime: 1630927869
ModificationTime: 1757423387
PfmFamily: 81
TTFWeight: 400
TTFWidth: 5
LineGap: 0
VLineGap: 0
Panose: 0 0 4 0 0 0 0 0 0 0
OS2TypoAscent: 1638
OS2TypoAOffset: 0
OS2TypoDescent: -409
OS2TypoDOffset: 0
OS2TypoLinegap: 0
OS2WinAscent: 1638
OS2WinAOffset: 0
OS2WinDescent: 409
OS2WinDOffset: 0
HheadAscent: 1638
HheadAOffset: 0
HheadDescent: -409

StartChar: .notdef
Encoding: 65536 -1 0
Width: 1702
GlyphClass: 1
Flags: W
LayerCount: 2
Fore
SplineSet
1488.75 50 m 1,0,-1
 787.5 799 l 1,1,-1
 86.25 50 l 1,2,-1
 1488.75 50 l 1,0,-1
62.5 69 m 1,3,-1
 762.5 819 l 1,4,-1
 62.5 1569 l 1,5,-1
 62.5 69 l 1,6,-1
 62.5 69 l 1,3,-1
1512.5 69 m 1,7,-1
 1512.5 1569 l 1,8,-1
 811.25 819 l 1,9,-1
 1512.5 69 l 1,10,-1
 1512.5 69 l 1,7,-1
787.5 838 m 1,11,-1
 1488.75 1588 l 1,12,-1
 86.25 1588 l 1,13,-1
 787.5 838 l 1,14,-1
 787.5 838 l 1,11,-1
0 0 m 1,15,-1
 0 1638 l 1,16,-1
 1575 1638 l 1,17,-1
 1575 0 l 1,18,-1
 0 0 l 1,15,-1
EndSplineSet
Validated: 5
EndChar

StartChar: exclam
Encoding: 33 33 2
Width: 1535
GlyphClass: 1
Flags: W
LayerCount: 2
Fore
SplineSet
640 0 m 1,0,-1
 640 204 l 1,1,-1
 895 204 l 1,2,-1
 895 0 l 1,3,-1
 640 0 l 1,0,-1
640 409 m 1,4,-1
 640 1433 l 1,5,-1
 895 1433 l 1,6,-1
 895 409 l 1,7,-1
 640 409 l 1,4,-1
EndSplineSet
Validated: 1
EndChar

StartChar: quotedbl
Encoding: 34 34 3
Width: 1535
GlyphClass: 1
Flags: W
LayerCount: 2
Fore
SplineSet
255 819 m 1,0,-1
 255 1024 l 1,1,-1
 383.75 1024 l 1,2,-1
 383.75 1228 l 1,3,-1
 255 1228 l 1,4,-1
 255 1433 l 1,5,-1
 640 1433 l 1,6,-1
 640 1024 l 1,7,-1
 511.25 1024 l 1,8,-1
 511.25 819 l 1,9,-1
 255 819 l 1,0,-1
895 819 m 1,10,-1
 895 1024 l 1,11,-1
 1023.75 1024 l 1,12,-1
 1023.75 1228 l 1,13,-1
 895 1228 l 1,14,-1
 895 1433 l 1,15,-1
 1280 1433 l 1,16,-1
 1280 1024 l 1,17,-1
 1151.25 1024 l 1,18,-1
 1151.25 819 l 1,19,-1
 895 819 l 1,10,-1
EndSplineSet
Validated: 1
EndChar

StartChar: numbersign
Encoding: 35 35 4
Width: 1535
GlyphClass: 1
Flags: W
LayerCount: 2
Fore
SplineSet
895 614 m 1,0,-1
 895 819 l 1,1,-1
 640 819 l 1,2,-1
 640 614 l 1,3,-1
 895 614 l 1,0,-1
383.75 0 m 1,4,-1
 383.75 409 l 1,5,-1
 127.5 409 l 1,6,-1
 127.5 614 l 1,7,-1
 383.75 614 l 1,8,-1
 383.75 819 l 1,9,-1
 127.5 819 l 1,10,-1
 127.5 1024 l 1,11,-1
 383.75 1024 l 1,12,-1
 383.75 1433 l 1,13,-1
 640 1433 l 1,14,-1
 640 1024 l 1,15,-1
 895 1024 l 1,16,-1
 895 1433 l 1,17,-1
 1151.25 1433 l 1,18,-1
 1151.25 1024 l 1,19,-1
 1407.5 1024 l 1,20,-1
 1407.5 819 l 1,21,-1
 1151.25 819 l 1,22,-1
 1151.25 614 l 1,23,-1
 1407.5 614 l 1,24,-1
 1407.5 409 l 1,25,-1
 1151.25 409 l 1,26,-1
 1151.25 0 l 1,27,-1
 895 0 l 1,28,-1
 895 409 l 1,29,-1
 640 409 l 1,30,-1
 640 0 l 1,31,-1
 383.75 0 l 1,4,-1
EndSplineSet
Validated: 1
EndChar

StartChar: dollar
Encoding: 36 36 5
Width: 1535
GlyphClass: 1
Flags: W
LayerCount: 2
Fore
SplineSet
1151.25 204 m 1,0,-1
 1151.25 614 l 1,1,-1
 895 614 l 1,2,-1
 895 204 l 1,3,-1
 1151.25 204 l 1,0,-1
640 819 m 1,4,-1
 640 1228 l 1,5,-1
 383.75 1228 l 1,6,-1
 383.75 819 l 1,7,-1
 640 819 l 1,4,-1
640 -204 m 1,8,-1
 640 0 l 1,9,-1
 255 0 l 1,10,-1
 255 204 l 1,11,-1
 127.5 204 l 1,12,-1
 127.5 409 l 1,13,-1
 383.75 409 l 1,14,-1
 383.75 204 l 1,15,-1
 640 204 l 1,16,-1
 640 614 l 1,17,-1
 255 614 l 1,18,-1
 255 819 l 1,19,-1
 127.5 819 l 1,20,-1
 127.5 1228 l 1,21,-1
 255 1228 l 1,22,-1
 255 1433 l 1,23,-1
 640 1433 l 1,24,-1
 640 1638 l 1,25,-1
 895 1638 l 1,26,-1
 895 1433 l 1,27,-1
 1280 1433 l 1,28,-1
 1280 1228 l 1,29,-1
 1407.5 1228 l 1,30,-1
 1407.5 1024 l 1,31,-1
 1151.25 1024 l 1,32,-1
 1151.25 1228 l 1,33,-1
 895 1228 l 1,34,-1
 895 819 l 1,35,-1
 1280 819 l 1,36,-1
 1280 614 l 1,37,-1
 1407.5 614 l 1,38,-1
 1407.5 204 l 1,39,-1
 1280 204 l 1,40,-1
 1280 0 l 1,41,-1
 895 0 l 1,42,-1
 895 -204 l 1,43,-1
 640 -204 l 1,8,-1
EndSplineSet
Validated: 1
EndChar

StartChar: percent
Encoding: 37 37 6
Width: 1535
GlyphClass: 1
Flags: W
LayerCount: 2
Fore
SplineSet
1280 204 m 1,0,-1
 1280 409 l 1,1,-1
 1151.25 409 l 1,2,-1
 1151.25 204 l 1,3,-1
 1280 204 l 1,0,-1
1023.75 0 m 1,4,-1
 1023.75 204 l 1,5,-1
 895 204 l 1,6,-1
 895 409 l 1,7,-1
 1023.75 409 l 1,8,-1
 1023.75 614 l 1,9,-1
 1407.5 614 l 1,10,-1
 1407.5 409 l 1,11,-1
 1535 409 l 1,12,-1
 1535 204 l 1,13,-1
 1407.5 204 l 1,14,-1
 1407.5 0 l 1,15,-1
 1023.75 0 l 1,4,-1
383.75 1024 m 1,16,-1
 383.75 1228 l 1,17,-1
 255 1228 l 1,18,-1
 255 1024 l 1,19,-1
 383.75 1024 l 1,16,-1
127.5 819 m 1,20,-1
 127.5 1024 l 1,21,-1
 0 1024 l 1,22,-1
 0 1228 l 1,23,-1
 127.5 1228 l 1,24,-1
 127.5 1433 l 1,25,-1
 511.25 1433 l 1,26,-1
 511.25 1228 l 1,27,-1
 640 1228 l 1,28,-1
 640 1024 l 1,29,-1
 511.25 1024 l 1,30,-1
 511.25 819 l 1,31,-1
 127.5 819 l 1,20,-1
255 0 m 1,32,-1
 255 204 l 1,33,-1
 383.75 204 l 1,34,-1
 383.75 409 l 1,35,-1
 511.25 409 l 1,36,-1
 511.25 614 l 1,37,-1
 640 614 l 1,38,-1
 640 819 l 1,39,-1
 767.5 819 l 1,40,-1
 767.5 1024 l 1,41,-1
 895 1024 l 1,42,-1
 895 1228 l 1,43,-1
 1023.75 1228 l 1,44,-1
 1023.75 1433 l 1,45,-1
 1280 1433 l 1,46,-1
 1280 1228 l 1,47,-1
 1151.25 1228 l 1,48,-1
 1151.25 1024 l 1,49,-1
 1023.75 1024 l 1,50,-1
 1023.75 819 l 1,51,-1
 895 819 l 1,52,-1
 895 614 l 1,53,-1
 767.5 614 l 1,54,-1
 767.5 409 l 1,55,-1
 640 409 l 1,56,-1
 640 204 l 1,57,-1
 511.25 204 l 1,58,-1
 511.25 0 l 1,59,-1
 255 0 l 1,32,-1
EndSplineSet
Validated: 1
EndChar

StartChar: ampersand
Encoding: 38 38 7
Width: 1535
GlyphClass: 1
Flags: W
LayerCount: 2
Fore
SplineSet
1280 0 m 1,0,-1
 1280 204 l 1,1,-1
 1535 204 l 1,2,-1
 1535 0 l 1,3,-1
 1280 0 l 1,0,-1
895 204 m 1,4,-1
 895 409 l 1,5,-1
 767.5 409 l 1,6,-1
 767.5 614 l 1,7,-1
 511.25 614 l 1,8,-1
 511.25 409 l 1,9,-1
 383.75 409 l 1,10,-1
 383.75 204 l 1,11,-1
 895 204 l 1,4,-1
1280 409 m 1,12,-1
 1280 614 l 1,13,-1
 1535 614 l 1,14,-1
 1535 409 l 1,15,-1
 1280 409 l 1,12,-1
767.5 819 m 1,16,-1
 767.5 1228 l 1,17,-1
 511.25 1228 l 1,18,-1
 511.25 819 l 1,19,-1
 767.5 819 l 1,16,-1
255 0 m 1,20,-1
 255 204 l 1,21,-1
 127.5 204 l 1,22,-1
 127.5 409 l 1,23,-1
 255 409 l 1,24,-1
 255 614 l 1,25,-1
 383.75 614 l 1,26,-1
 383.75 819 l 1,27,-1
 255 819 l 1,28,-1
 255 1228 l 1,29,-1
 383.75 1228 l 1,30,-1
 383.75 1433 l 1,31,-1
 895 1433 l 1,32,-1
 895 1228 l 1,33,-1
 1023.75 1228 l 1,34,-1
 1023.75 819 l 1,35,-1
 895 819 l 1,36,-1
 895 614 l 1,37,-1
 1023.75 614 l 1,38,-1
 1023.75 409 l 1,39,-1
 1280 409 l 1,40,-1
 1280 204 l 1,41,-1
 1023.75 204 l 1,42,-1
 1023.75 0 l 1,43,-1
 255 0 l 1,20,-1
EndSplineSet
Validated: 5
EndChar

StartChar: quotesingle
Encoding: 39 39 8
Width: 1535
GlyphClass: 1
Flags: W
LayerCount: 2
Fore
SplineSet
640 819 m 1,0,-1
 640 1024 l 1,1,-1
 767.5 1024 l 1,2,-1
 767.5 1228 l 1,3,-1
 640 1228 l 1,4,-1
 640 1433 l 1,5,-1
 1023.75 1433 l 1,6,-1
 1023.75 1024 l 1,7,-1
 895 1024 l 1,8,-1
 895 819 l 1,9,-1
 640 819 l 1,0,-1
EndSplineSet
Validated: 1
EndChar

StartChar: parenleft
Encoding: 40 40 9
Width: 1535
GlyphClass: 1
Flags: W
LayerCount: 2
Fore
SplineSet
640 0 m 1,0,-1
 640 204 l 1,1,-1
 511.25 204 l 1,2,-1
 511.25 409 l 1,3,-1
 383.75 409 l 1,4,-1
 383.75 1024 l 1,5,-1
 511.25 1024 l 1,6,-1
 511.25 1228 l 1,7,-1
 640 1228 l 1,8,-1
 640 1433 l 1,9,-1
 1023.75 1433 l 1,10,-1
 1023.75 1228 l 1,11,-1
 767.5 1228 l 1,12,-1
 767.5 1024 l 1,13,-1
 640 1024 l 1,14,-1
 640 409 l 1,15,-1
 767.5 409 l 1,16,-1
 767.5 204 l 1,17,-1
 1023.75 204 l 1,18,-1
 1023.75 0 l 1,19,-1
 640 0 l 1,0,-1
EndSplineSet
Validated: 1
EndChar

StartChar: parenright
Encoding: 41 41 10
Width: 1535
GlyphClass: 1
Flags: W
LayerCount: 2
Fore
SplineSet
511.25 0 m 1,0,-1
 511.25 204 l 1,1,-1
 767.5 204 l 1,2,-1
 767.5 409 l 1,3,-1
 895 409 l 1,4,-1
 895 1024 l 1,5,-1
 767.5 1024 l 1,6,-1
 767.5 1228 l 1,7,-1
 511.25 1228 l 1,8,-1
 511.25 1433 l 1,9,-1
 895 1433 l 1,10,-1
 895 1228 l 1,11,-1
 1023.75 1228 l 1,12,-1
 1023.75 1024 l 1,13,-1
 1151.25 1024 l 1,14,-1
 1151.25 409 l 1,15,-1
 1023.75 409 l 1,16,-1
 1023.75 204 l 1,17,-1
 895 204 l 1,18,-1
 895 0 l 1,19,-1
 511.25 0 l 1,0,-1
EndSplineSet
Validated: 1
EndChar

StartChar: asterisk
Encoding: 42 42 11
Width: 1535
GlyphClass: 1
Flags: W
LayerCount: 2
Fore
SplineSet
127.5 204 m 1,0,-1
 127.5 409 l 1,1,-1
 255 409 l 1,2,-1
 255 614 l 1,3,-1
 511.25 614 l 1,4,-1
 511.25 409 l 1,5,-1
 383.75 409 l 1,6,-1
 383.75 204 l 1,7,-1
 127.5 204 l 1,0,-1
1151.25 204 m 1,8,-1
 1151.25 409 l 1,9,-1
 1023.75 409 l 1,10,-1
 1023.75 614 l 1,11,-1
 1280 614 l 1,12,-1
 1280 409 l 1,13,-1
 1407.5 409 l 1,14,-1
 1407.5 204 l 1,15,-1
 1151.25 204 l 1,8,-1
255 819 m 1,16,-1
 255 1024 l 1,17,-1
 127.5 1024 l 1,18,-1
 127.5 1228 l 1,19,-1
 383.75 1228 l 1,20,-1
 383.75 1024 l 1,21,-1
 511.25 1024 l 1,22,-1
 511.25 819 l 1,23,-1
 255 819 l 1,16,-1
1023.75 819 m 1,24,-1
 1023.75 1024 l 1,25,-1
 1151.25 1024 l 1,26,-1
 1151.25 1228 l 1,27,-1
 1407.5 1228 l 1,28,-1
 1407.5 1024 l 1,29,-1
 1280 1024 l 1,30,-1
 1280 819 l 1,31,-1
 1023.75 819 l 1,24,-1
640 0 m 1,32,-1
 640 614 l 1,33,-1
 511.25 614 l 1,34,-1
 511.25 819 l 1,35,-1
 640 819 l 1,36,-1
 640 1433 l 1,37,-1
 895 1433 l 1,38,-1
 895 819 l 1,39,-1
 1023.75 819 l 1,40,-1
 1023.75 614 l 1,41,-1
 895 614 l 1,42,-1
 895 0 l 1,43,-1
 640 0 l 1,32,-1
EndSplineSet
Validated: 5
EndChar

StartChar: plus
Encoding: 43 43 12
Width: 1535
GlyphClass: 1
Flags: W
LayerCount: 2
Fore
SplineSet
640 204 m 1,0,-1
 640 614 l 1,1,-1
 255 614 l 1,2,-1
 255 819 l 1,3,-1
 640 819 l 1,4,-1
 640 1228 l 1,5,-1
 895 1228 l 1,6,-1
 895 819 l 1,7,-1
 1280 819 l 1,8,-1
 1280 614 l 1,9,-1
 895 614 l 1,10,-1
 895 204 l 1,11,-1
 640 204 l 1,0,-1
EndSplineSet
Validated: 1
EndChar

StartChar: comma
Encoding: 44 44 13
Width: 1535
GlyphClass: 1
Flags: W
LayerCount: 2
Fore
SplineSet
383 -204 m 5,0,-1
 383 0 l 5,1,-1
 512 0 l 5,2,-1
 512 204 l 5,3,-1
 383 204 l 5,4,-1
 383 409 l 5,5,-1
 768 409 l 5,6,-1
 768 0 l 5,7,-1
 639 0 l 5,8,-1
 639 -204 l 5,9,-1
 383 -204 l 5,0,-1
EndSplineSet
EndChar

StartChar: hyphen
Encoding: 45 45 14
Width: 1535
GlyphClass: 1
Flags: W
LayerCount: 2
Fore
SplineSet
255 614 m 1,0,-1
 255 819 l 1,1,-1
 1280 819 l 1,2,-1
 1280 614 l 1,3,-1
 255 614 l 1,0,-1
EndSplineSet
Validated: 1
EndChar

StartChar: period
Encoding: 46 46 15
Width: 1535
GlyphClass: 1
Flags: W
LayerCount: 2
Fore
SplineSet
511 0 m 5,0,-1
 511 409 l 5,1,-1
 767 409 l 5,2,-1
 767 0 l 5,3,-1
 511 0 l 5,0,-1
EndSplineSet
EndChar

StartChar: slash
Encoding: 47 47 16
Width: 1535
GlyphClass: 1
Flags: W
LayerCount: 2
Fore
SplineSet
255 0 m 1,0,-1
 255 204 l 1,1,-1
 383.75 204 l 1,2,-1
 383.75 409 l 1,3,-1
 511.25 409 l 1,4,-1
 511.25 614 l 1,5,-1
 640 614 l 1,6,-1
 640 819 l 1,7,-1
 767.5 819 l 1,8,-1
 767.5 1024 l 1,9,-1
 895 1024 l 1,10,-1
 895 1228 l 1,11,-1
 1023.75 1228 l 1,12,-1
 1023.75 1433 l 1,13,-1
 1280 1433 l 1,14,-1
 1280 1228 l 1,15,-1
 1151.25 1228 l 1,16,-1
 1151.25 1024 l 1,17,-1
 1023.75 1024 l 1,18,-1
 1023.75 819 l 1,19,-1
 895 819 l 1,20,-1
 895 614 l 1,21,-1
 767.5 614 l 1,22,-1
 767.5 409 l 1,23,-1
 640 409 l 1,24,-1
 640 204 l 1,25,-1
 511.25 204 l 1,26,-1
 511.25 0 l 1,27,-1
 255 0 l 1,0,-1
EndSplineSet
Validated: 1
EndChar

StartChar: zero
Encoding: 48 48 17
Width: 1535
GlyphClass: 1
Flags: W
LayerCount: 2
Fore
SplineSet
1042 204 m 5,0,-1
 1042 1228 l 5,1,-1
 620 1228 l 5,2,-1
 620 204 l 5,3,-1
 1042 204 l 5,0,-1
384 0 m 1,4,-1
 384 204 l 1,5,-1
 255 204 l 1,6,-1
 255 1228 l 1,7,-1
 384 1228 l 1,8,-1
 384 1433 l 1,9,-1
 1280 1433 l 1,10,-1
 1280 1228 l 1,11,-1
 1408 1228 l 1,12,-1
 1408 204 l 1,13,-1
 1280 204 l 1,14,-1
 1280 0 l 1,15,-1
 384 0 l 1,4,-1
EndSplineSet
Validated: 1
EndChar

StartChar: one
Encoding: 49 49 18
Width: 1535
GlyphClass: 1
Flags: W
LayerCount: 2
Fore
SplineSet
768 0 m 5,0,-1
 768 1024 l 5,1,-1
 511 1024 l 1,2,-1
 511 1228 l 1,3,4
 512 1228 512 1228 768 1228 c 5,5,-1
 768 1433 l 5,6,-1
 1193 1433 l 5,7,-1
 1193 0 l 5,8,-1
 768 0 l 5,0,-1
EndSplineSet
Validated: 1
EndChar

StartChar: two
Encoding: 50 50 19
Width: 1535
GlyphClass: 1
Flags: W
LayerCount: 2
Fore
SplineSet
255 0 m 1,0,-1
 255 204 l 1,1,-1
 384 204 l 1,2,-1
 384 409 l 1,3,-1
 640 409 l 1,4,-1
 640 614 l 1,5,-1
 895 614 l 1,6,-1
 895 819 l 1,7,8
 894 819 894 819 1022 819 c 1,9,-1
 1022 1228 l 1,10,-1
 511 1228 l 1,11,-1
 511 1024 l 1,12,-1
 255 1024 l 1,13,-1
 255 1228 l 1,14,-1
 384 1228 l 1,15,-1
 384 1433 l 1,16,-1
 1280 1433 l 1,17,-1
 1280 1228 l 1,18,-1
 1408 1228 l 1,19,-1
 1408 819 l 1,20,-1
 1280 819 l 1,21,-1
 1280 614 l 1,22,-1
 1151 614 l 1,23,-1
 1151 409 l 1,24,-1
 894 409 l 1,25,-1
 894 204 l 1,26,-1
 1408 204 l 1,27,-1
 1408 0 l 1,28,-1
 255 0 l 1,0,-1
EndSplineSet
Validated: 33
EndChar

StartChar: three
Encoding: 51 51 20
Width: 1535
GlyphClass: 1
Flags: W
LayerCount: 2
Fore
SplineSet
255 0 m 1,0,-1
 255 204 l 1,1,2
 256 204 256 204 1024 204 c 5,3,-1
 1024 614 l 1,4,-1
 639 614 l 1,5,-1
 639 819 l 1,6,-1
 895 819 l 1,7,-1
 895 1024 l 1,8,-1
 1024 1024 l 1,9,-1
 1024 1228 l 1,10,-1
 255 1228 l 1,11,-1
 255 1433 l 1,12,13
 256 1433 256 1433 1408 1433 c 1,14,-1
 1408 1228 l 1,15,-1
 1280 1228 l 1,16,-1
 1280 1024 l 1,17,-1
 1151 1024 l 1,18,-1
 1151 819 l 1,19,-1
 1280 819 l 1,20,-1
 1280 614 l 1,21,-1
 1408 614 l 1,22,-1
 1408 204 l 1,23,-1
 1280 204 l 1,24,-1
 1280 0 l 1,25,-1
 255 0 l 1,0,-1
EndSplineSet
Validated: 1
EndChar

StartChar: four
Encoding: 52 52 21
Width: 1535
GlyphClass: 1
Flags: W
LayerCount: 2
Fore
SplineSet
1024 0 m 1,0,-1
 1024 204 l 1,1,-1
 255 204 l 1,2,-1
 255 614 l 1,3,-1
 384 614 l 1,4,-1
 384 819 l 1,5,-1
 639 819 l 1,6,-1
 639 1024 l 1,7,-1
 768 1024 l 1,8,-1
 768 1228 l 1,9,-1
 1024 1228 l 1,10,-1
 1024 1433 l 1,11,-1
 1408 1433 l 1,12,-1
 1408 1228 l 1,13,-1
 1279 1228 l 1,14,-1
 1279 1024 l 1,15,16
 1279 1024 1279 1024 1024 1024 c 1,17,-1
 1024 819 l 1,18,-1
 768 819 l 1,19,-1
 768 614 l 1,20,-1
 639 614 l 1,21,-1
 639 409 l 1,22,-1
 1024 409 l 1,23,-1
 1024 615 l 1,24,-1
 1408 615 l 1,25,-1
 1408 0 l 1,26,-1
 1024 0 l 1,0,-1
EndSplineSet
Validated: 1
EndChar

StartChar: five
Encoding: 53 53 22
Width: 1535
GlyphClass: 1
Flags: W
LayerCount: 2
Fore
SplineSet
384 0 m 1,0,-1
 384 204 l 1,1,-1
 255 204 l 1,2,-1
 255 409 l 1,3,-1
 511 409 l 1,4,-1
 511 204 l 1,5,-1
 1023 204 l 5,6,-1
 1023 819 l 5,7,-1
 255 819 l 1,8,-1
 255 1433 l 1,9,10
 256 1433 256 1433 1408 1433 c 1,11,-1
 1408 1228 l 1,12,-1
 511 1228 l 1,13,-1
 511 1024 l 1,14,-1
 1280 1024 l 1,15,-1
 1280 819 l 1,16,-1
 1408 819 l 1,17,-1
 1408 204 l 1,18,-1
 1280 204 l 1,19,-1
 1280 0 l 1,20,-1
 384 0 l 1,0,-1
EndSplineSet
Validated: 1
EndChar

StartChar: six
Encoding: 54 54 23
Width: 1535
GlyphClass: 1
Flags: W
LayerCount: 2
Fore
SplineSet
1151 204 m 1,0,-1
 1151 614 l 1,1,-1
 639 614 l 1,2,-1
 639 204 l 1,3,-1
 1151 204 l 1,0,-1
384 0 m 1,4,-1
 384 204 l 1,5,-1
 255 204 l 1,6,-1
 255 819 l 1,7,-1
 384 819 l 1,8,-1
 384 1024 l 1,9,-1
 511 1024 l 1,10,-1
 511 1228 l 1,11,-1
 640 1228 l 1,12,-1
 640 1433 l 1,13,-1
 1023 1433 l 1,14,-1
 1023 1228 l 1,15,16
 1024 1228 1024 1228 896 1228 c 1,17,-1
 896 1024 l 1,18,-1
 768 1024 l 1,19,-1
 768 819 l 1,20,-1
 1280 819 l 1,21,-1
 1280 614 l 1,22,-1
 1408 614 l 1,23,-1
 1408 204 l 1,24,-1
 1280 204 l 1,25,-1
 1280 0 l 1,26,-1
 384 0 l 1,4,-1
EndSplineSet
Validated: 33
EndChar

StartChar: seven
Encoding: 55 55 24
Width: 1535
GlyphClass: 1
Flags: W
LayerCount: 2
Fore
SplineSet
383 0 m 1,0,-1
 383 204 l 1,1,-1
 512 204 l 1,2,-1
 512 409 l 1,3,-1
 640 409 l 1,4,-1
 640 614 l 1,5,-1
 767 614 l 1,6,-1
 767 819 l 1,7,-1
 896 819 l 1,8,-1
 896 1024 l 1,9,-1
 1023 1024 l 1,10,-1
 1023 1228 l 1,11,-1
 255 1228 l 1,12,-1
 255 1433 l 1,13,14
 256 1433 256 1433 1408 1433 c 1,15,-1
 1408 1024 l 1,16,-1
 1280 1024 l 1,17,-1
 1280 819 l 1,18,-1
 1151 819 l 1,19,-1
 1151 614 l 1,20,-1
 1024 614 l 1,21,-1
 1024 409 l 1,22,-1
 895 409 l 1,23,-1
 895 204 l 1,24,25
 896 204 896 204 768 204 c 1,26,-1
 768 0 l 1,27,-1
 383 0 l 1,0,-1
EndSplineSet
Validated: 33
EndChar

StartChar: eight
Encoding: 56 56 25
Width: 1535
GlyphClass: 1
Flags: W
LayerCount: 2
Fore
SplineSet
1023 204 m 5,0,-1
 1023 614 l 5,1,-1
 639 614 l 1,2,-1
 639 204 l 1,3,-1
 1023 204 l 5,0,-1
1023 819 m 5,4,-1
 1023 1228 l 5,5,-1
 639 1228 l 1,6,-1
 639 819 l 1,7,-1
 1023 819 l 5,4,-1
384 0 m 1,8,-1
 384 204 l 1,9,-1
 255 204 l 1,10,-1
 255 614 l 1,11,-1
 384 614 l 1,12,-1
 384 819 l 1,13,-1
 255 819 l 1,14,-1
 255 1228 l 1,15,-1
 384 1228 l 1,16,-1
 384 1433 l 1,17,-1
 1280 1433 l 1,18,-1
 1280 1228 l 1,19,-1
 1408 1228 l 1,20,-1
 1408 819 l 1,21,-1
 1280 819 l 1,22,-1
 1280 614 l 1,23,-1
 1408 614 l 1,24,-1
 1408 204 l 1,25,-1
 1280 204 l 1,26,-1
 1280 0 l 1,27,-1
 384 0 l 1,8,-1
EndSplineSet
Validated: 1
EndChar

StartChar: nine
Encoding: 57 57 26
Width: 1535
GlyphClass: 1
Flags: W
LayerCount: 2
Fore
SplineSet
1023 819 m 1,0,-1
 1023 1228 l 1,1,-1
 511 1228 l 1,2,-1
 511 819 l 1,3,-1
 1023 819 l 1,0,-1
512 0 m 1,4,-1
 512 204 l 1,5,-1
 640 204 l 1,6,-1
 640 409 l 1,7,-1
 767 409 l 1,8,-1
 767 614 l 1,9,-1
 384 614 l 1,10,-1
 384 819 l 1,11,-1
 255 819 l 1,12,-1
 255 1228 l 1,13,-1
 384 1228 l 1,14,-1
 384 1433 l 1,15,-1
 1280 1433 l 1,16,-1
 1280 1228 l 1,17,-1
 1408 1228 l 1,18,-1
 1408 819 l 1,19,-1
 1280 819 l 1,20,-1
 1280 614 l 1,21,-1
 1151 614 l 1,22,-1
 1151 409 l 1,23,-1
 1024 409 l 1,24,-1
 1024 204 l 1,25,-1
 895 204 l 1,26,-1
 895 0 l 1,27,-1
 512 0 l 1,4,-1
EndSplineSet
Validated: 1
EndChar

StartChar: colon
Encoding: 58 58 27
Width: 1535
GlyphClass: 1
Flags: W
LayerCount: 2
Fore
SplineSet
511.25 0 m 1,0,-1
 511.25 409 l 1,1,-1
 767.5 409 l 1,2,-1
 767.5 0 l 1,3,-1
 511.25 0 l 1,0,-1
511.25 614 m 1,4,-1
 511.25 1024 l 5,5,-1
 767.5 1024 l 1,6,-1
 767.5 614 l 1,7,-1
 511.25 614 l 1,4,-1
EndSplineSet
Validated: 1
EndChar

StartChar: semicolon
Encoding: 59 59 28
Width: 1535
GlyphClass: 1
Flags: W
LayerCount: 2
Fore
SplineSet
255 -204 m 1,0,-1
 255 0 l 1,1,-1
 383.75 0 l 1,2,-1
 383.75 409 l 1,3,-1
 640 409 l 1,4,-1
 640 0 l 1,5,-1
 511.25 0 l 1,6,-1
 511.25 -204 l 1,7,-1
 255 -204 l 1,0,-1
383.75 614 m 1,8,-1
 383.75 1024 l 1,9,-1
 640 1024 l 1,10,-1
 640 614 l 1,11,-1
 383.75 614 l 1,8,-1
EndSplineSet
Validated: 1
EndChar

StartChar: less
Encoding: 60 60 29
Width: 1535
GlyphClass: 1
Flags: W
LayerCount: 2
Fore
SplineSet
1023.75 0 m 1,0,-1
 1023.75 204 l 1,1,-1
 767.5 204 l 1,2,-1
 767.5 409 l 1,3,-1
 511.25 409 l 1,4,-1
 511.25 614 l 1,5,-1
 255 614 l 1,6,-1
 255 819 l 1,7,-1
 511.25 819 l 1,8,-1
 511.25 1024 l 1,9,-1
 767.5 1024 l 1,10,-1
 767.5 1228 l 1,11,-1
 1023.75 1228 l 1,12,-1
 1023.75 1433 l 1,13,-1
 1407.5 1433 l 1,14,-1
 1407.5 1228 l 1,15,-1
 1151.25 1228 l 1,16,-1
 1151.25 1024 l 1,17,-1
 895 1024 l 1,18,-1
 895 819 l 1,19,-1
 640 819 l 1,20,-1
 640 614 l 1,21,-1
 895 614 l 1,22,-1
 895 409 l 1,23,-1
 1151.25 409 l 1,24,-1
 1151.25 204 l 1,25,-1
 1407.5 204 l 1,26,-1
 1407.5 0 l 1,27,-1
 1023.75 0 l 1,0,-1
EndSplineSet
Validated: 1
EndChar

StartChar: equal
Encoding: 61 61 30
Width: 1535
GlyphClass: 1
Flags: W
LayerCount: 2
Fore
SplineSet
255 409 m 1,0,-1
 255 614 l 1,1,-1
 1280 614 l 1,2,-1
 1280 409 l 1,3,-1
 255 409 l 1,0,-1
255 819 m 1,4,-1
 255 1024 l 1,5,-1
 1280 1024 l 1,6,-1
 1280 819 l 1,7,-1
 255 819 l 1,4,-1
EndSplineSet
Validated: 1
EndChar

StartChar: greater
Encoding: 62 62 31
Width: 1535
GlyphClass: 1
Flags: W
LayerCount: 2
Fore
SplineSet
127.5 0 m 1,0,-1
 127.5 204 l 1,1,-1
 383.75 204 l 1,2,-1
 383.75 409 l 1,3,-1
 640 409 l 1,4,-1
 640 614 l 1,5,-1
 895 614 l 1,6,-1
 895 819 l 1,7,-1
 640 819 l 1,8,-1
 640 1024 l 1,9,-1
 383.75 1024 l 1,10,-1
 383.75 1228 l 1,11,-1
 127.5 1228 l 1,12,-1
 127.5 1433 l 1,13,-1
 511.25 1433 l 1,14,-1
 511.25 1228 l 1,15,-1
 767.5 1228 l 1,16,-1
 767.5 1024 l 1,17,-1
 1023.75 1024 l 1,18,-1
 1023.75 819 l 1,19,-1
 1280 819 l 1,20,-1
 1280 614 l 1,21,-1
 1023.75 614 l 1,22,-1
 1023.75 409 l 1,23,-1
 767.5 409 l 1,24,-1
 767.5 204 l 1,25,-1
 511.25 204 l 1,26,-1
 511.25 0 l 1,27,-1
 127.5 0 l 1,0,-1
EndSplineSet
Validated: 1
EndChar

StartChar: question
Encoding: 63 63 32
Width: 1535
GlyphClass: 1
Flags: W
LayerCount: 2
Fore
SplineSet
640 0 m 1,0,-1
 640 204 l 1,1,-1
 895 204 l 1,2,-1
 895 0 l 1,3,-1
 640 0 l 1,0,-1
640 409 m 1,4,-1
 640 614 l 1,5,-1
 895 614 l 1,6,-1
 895 409 l 1,7,-1
 640 409 l 1,4,-1
895 614 m 1,8,-1
 895 819 l 1,9,-1
 1023.75 819 l 1,10,-1
 1023.75 1228 l 1,11,-1
 511.25 1228 l 1,12,-1
 511.25 1024 l 1,13,-1
 255 1024 l 1,14,-1
 255 1228 l 1,15,-1
 383.75 1228 l 1,16,-1
 383.75 1433 l 1,17,-1
 1151.25 1433 l 1,18,-1
 1151.25 1228 l 1,19,-1
 1280 1228 l 1,20,-1
 1280 819 l 1,21,-1
 1151.25 819 l 1,22,-1
 1151.25 614 l 1,23,-1
 895 614 l 1,8,-1
EndSplineSet
Validated: 5
EndChar

StartChar: at
Encoding: 64 64 33
Width: 1535
GlyphClass: 1
Flags: W
LayerCount: 2
Fore
SplineSet
1151.25 409 m 1,0,-1
 1151.25 819 l 1,1,-1
 895 819 l 1,2,-1
 895 409 l 1,3,-1
 1151.25 409 l 1,0,-1
383.75 -204 m 1,4,-1
 383.75 0 l 1,5,-1
 255 0 l 1,6,-1
 255 204 l 1,7,-1
 127.5 204 l 1,8,-1
 127.5 1024 l 1,9,-1
 255 1024 l 1,10,-1
 255 1228 l 1,11,-1
 383.75 1228 l 1,12,-1
 383.75 1433 l 1,13,-1
 1280 1433 l 1,14,-1
 1280 1228 l 1,15,-1
 1407.5 1228 l 1,16,-1
 1407.5 204 l 1,17,-1
 767.5 204 l 1,18,-1
 767.5 409 l 1,19,-1
 640 409 l 1,20,-1
 640 819 l 1,21,-1
 767.5 819 l 1,22,-1
 767.5 1024 l 1,23,-1
 1151.25 1024 l 1,24,-1
 1151.25 1228 l 1,25,-1
 511.25 1228 l 1,26,-1
 511.25 1024 l 1,27,-1
 383.75 1024 l 1,28,-1
 383.75 204 l 1,29,-1
 511.25 204 l 1,30,-1
 511.25 0 l 1,31,-1
 1280 0 l 1,32,-1
 1280 -204 l 1,33,-1
 383.75 -204 l 1,4,-1
EndSplineSet
Validated: 1
EndChar

StartChar: A
Encoding: 65 65 34
Width: 1535
GlyphClass: 1
Flags: W
LayerCount: 2
Fore
SplineSet
1151.25 614 m 1,0,-1
 1151.25 819 l 1,1,-1
 1023.75 819 l 1,2,-1
 1023.75 1024 l 1,3,-1
 895 1024 l 1,4,-1
 895 1228 l 1,5,-1
 640 1228 l 1,6,-1
 640 1024 l 1,7,-1
 511.25 1024 l 1,8,-1
 511.25 819 l 1,9,-1
 383.75 819 l 1,10,-1
 383.75 614 l 1,11,-1
 1151.25 614 l 1,0,-1
127.5 0 m 1,12,-1
 127.5 819 l 1,13,-1
 255 819 l 1,14,-1
 255 1024 l 1,15,-1
 383.75 1024 l 1,16,-1
 383.75 1228 l 1,17,-1
 511.25 1228 l 1,18,-1
 511.25 1433 l 1,19,-1
 1023.75 1433 l 1,20,-1
 1023.75 1228 l 1,21,-1
 1151.25 1228 l 1,22,-1
 1151.25 1024 l 1,23,-1
 1280 1024 l 1,24,-1
 1280 819 l 1,25,-1
 1407.5 819 l 1,26,-1
 1407.5 0 l 1,27,-1
 1151.25 0 l 1,28,-1
 1151.25 409 l 1,29,-1
 383.75 409 l 1,30,-1
 383.75 0 l 1,31,-1
 127.5 0 l 1,12,-1
EndSplineSet
Validated: 1
EndChar

StartChar: B
Encoding: 66 66 35
Width: 1535
GlyphClass: 1
Flags: W
LayerCount: 2
Fore
SplineSet
1151.25 204 m 1,0,-1
 1151.25 614 l 1,1,-1
 511.25 614 l 1,2,-1
 511.25 204 l 1,3,-1
 1151.25 204 l 1,0,-1
1151.25 819 m 1,4,-1
 1151.25 1228 l 1,5,-1
 511.25 1228 l 1,6,-1
 511.25 819 l 1,7,-1
 1151.25 819 l 1,4,-1
255 0 m 1,8,-1
 255 1433 l 1,9,-1
 1280 1433 l 1,10,-1
 1280 1228 l 1,11,-1
 1407.5 1228 l 1,12,-1
 1407.5 819 l 1,13,-1
 1280 819 l 1,14,-1
 1280 614 l 1,15,-1
 1407.5 614 l 1,16,-1
 1407.5 204 l 1,17,-1
 1280 204 l 1,18,-1
 1280 0 l 1,19,-1
 255 0 l 1,8,-1
EndSplineSet
Validated: 1
EndChar

StartChar: C
Encoding: 67 67 36
Width: 1535
GlyphClass: 1
Flags: W
LayerCount: 2
Fore
SplineSet
383.25 0 m 1,0,-1
 383.25 204 l 1,1,-1
 255.75 204 l 1,2,-1
 255.75 1228 l 1,3,-1
 383.25 1228 l 1,4,-1
 383.25 1433 l 1,5,-1
 1408 1433 l 5,6,-1
 1408 1228 l 5,7,-1
 512 1228 l 1,8,-1
 512 204 l 1,9,-1
 1408 204 l 5,10,-1
 1408 0 l 5,11,-1
 383.25 0 l 1,0,-1
EndSplineSet
EndChar

StartChar: D
Encoding: 68 68 37
Width: 1535
GlyphClass: 1
Flags: W
LayerCount: 2
Fore
SplineSet
1023.75 204 m 1,0,-1
 1023.75 409 l 1,1,-1
 1151.25 409 l 1,2,-1
 1151.25 1024 l 1,3,-1
 1023.75 1024 l 1,4,-1
 1023.75 1228 l 1,5,-1
 511.25 1228 l 1,6,-1
 511.25 204 l 1,7,-1
 1023.75 204 l 1,0,-1
255 0 m 1,8,-1
 255 1433 l 1,9,-1
 1151.25 1433 l 1,10,-1
 1151.25 1228 l 1,11,-1
 1280 1228 l 1,12,-1
 1280 1024 l 1,13,-1
 1407.5 1024 l 1,14,-1
 1407.5 409 l 1,15,-1
 1280 409 l 1,16,-1
 1280 204 l 1,17,-1
 1151.25 204 l 1,18,-1
 1151.25 0 l 1,19,-1
 255 0 l 1,8,-1
EndSplineSet
Validated: 1
EndChar

StartChar: E
Encoding: 69 69 38
Width: 1535
GlyphClass: 1
Flags: W
LayerCount: 2
Fore
SplineSet
255 0 m 1,0,-1
 255 1433 l 1,1,-1
 1407.5 1433 l 1,2,-1
 1407.5 1228 l 1,3,-1
 511.25 1228 l 1,4,-1
 511.25 819 l 1,5,-1
 1151.25 819 l 1,6,-1
 1151.25 614 l 1,7,-1
 511.25 614 l 1,8,-1
 511.25 204 l 1,9,-1
 1407.5 204 l 1,10,-1
 1407.5 0 l 1,11,-1
 255 0 l 1,0,-1
EndSplineSet
Validated: 1
EndChar

StartChar: F
Encoding: 70 70 39
Width: 1535
GlyphClass: 1
Flags: W
LayerCount: 2
Fore
SplineSet
255 0 m 1,0,-1
 255 1433 l 1,1,-1
 1407.5 1433 l 1,2,-1
 1407.5 1228 l 1,3,-1
 511.25 1228 l 1,4,-1
 511.25 819 l 1,5,-1
 1151.25 819 l 1,6,-1
 1151.25 614 l 1,7,-1
 511.25 614 l 1,8,-1
 511.25 0 l 1,9,-1
 255 0 l 1,0,-1
EndSplineSet
Validated: 1
EndChar

StartChar: G
Encoding: 71 71 40
Width: 1535
GlyphClass: 1
Flags: W
LayerCount: 2
Fore
SplineSet
383.75 0 m 1,0,-1
 383.75 204 l 1,1,-1
 255 204 l 1,2,-1
 255 1228 l 1,3,-1
 383.75 1228 l 1,4,-1
 383.75 1433 l 1,5,-1
 1280 1433 l 1,6,-1
 1280 1228 l 1,7,-1
 1407.5 1228 l 1,8,-1
 1407.5 1024 l 1,9,-1
 1151.25 1024 l 1,10,-1
 1151.25 1228 l 1,11,-1
 511.25 1228 l 1,12,-1
 511.25 204 l 1,13,-1
 1151.25 204 l 1,14,-1
 1151.25 614 l 1,15,-1
 895 614 l 1,16,-1
 895 819 l 1,17,-1
 1407.5 819 l 1,18,-1
 1407.5 204 l 1,19,-1
 1280 204 l 1,20,-1
 1280 0 l 1,21,-1
 383.75 0 l 1,0,-1
EndSplineSet
Validated: 1
EndChar

StartChar: H
Encoding: 72 72 41
Width: 1535
GlyphClass: 1
Flags: W
HStem: 0 21G<255 511.25 1151.25 1407.5> 614 205<511.25 1151.25> 1413 20G<255 511.25 1151.25 1407.5>
VStem: 255 256.25<0 614 819 1433> 1151.25 256.25<0 614 819 1433>
LayerCount: 2
Fore
SplineSet
255 0 m 1,0,-1
 255 1433 l 1,1,-1
 511.25 1433 l 1,2,-1
 511.25 819 l 1,3,-1
 1151.25 819 l 1,4,-1
 1151.25 1433 l 1,5,-1
 1407.5 1433 l 1,6,-1
 1407.5 0 l 1,7,-1
 1151.25 0 l 1,8,-1
 1151.25 614 l 1,9,-1
 511.25 614 l 1,10,-1
 511.25 0 l 1,11,-1
 255 0 l 1,0,-1
EndSplineSet
Validated: 1
EndChar

StartChar: I
Encoding: 73 73 42
Width: 1535
GlyphClass: 1
Flags: W
HStem: 0 204<255 640 895 1280> 1228 205<255 640 895 1280>
VStem: 640 255<204 1228>
LayerCount: 2
Fore
SplineSet
255 0 m 1,0,-1
 255 204 l 1,1,-1
 640 204 l 1,2,-1
 640 1228 l 1,3,-1
 255 1228 l 1,4,-1
 255 1433 l 1,5,-1
 1280 1433 l 1,6,-1
 1280 1228 l 1,7,-1
 895 1228 l 1,8,-1
 895 204 l 1,9,-1
 1280 204 l 1,10,-1
 1280 0 l 1,11,-1
 255 0 l 1,0,-1
EndSplineSet
Validated: 1
EndChar

StartChar: J
Encoding: 74 74 43
Width: 1535
GlyphClass: 1
Flags: W
LayerCount: 2
Fore
SplineSet
383.75 0 m 1,0,-1
 383.75 204 l 1,1,-1
 255 204 l 1,2,-1
 255 409 l 1,3,-1
 511.25 409 l 1,4,-1
 511.25 204 l 1,5,-1
 1151.25 204 l 1,6,-1
 1151.25 1433 l 1,7,-1
 1407.5 1433 l 1,8,-1
 1407.5 204 l 1,9,-1
 1280 204 l 1,10,-1
 1280 0 l 1,11,-1
 383.75 0 l 1,0,-1
EndSplineSet
Validated: 1
EndChar

StartChar: K
Encoding: 75 75 44
Width: 1535
GlyphClass: 1
Flags: W
LayerCount: 2
Fore
SplineSet
255 0 m 1,0,-1
 255 1433 l 1,1,-1
 511.25 1433 l 1,2,-1
 511.25 819 l 1,3,-1
 640 819 l 1,4,-1
 640 1024 l 1,5,-1
 767.5 1024 l 1,6,-1
 767.5 1228 l 1,7,-1
 1023.75 1228 l 1,8,-1
 1023.75 1433 l 1,9,-1
 1407.5 1433 l 1,10,-1
 1407.5 1228 l 1,11,-1
 1151.25 1228 l 1,12,-1
 1151.25 1024 l 1,13,-1
 1023.75 1024 l 1,14,-1
 1023.75 819 l 1,15,-1
 767.5 819 l 1,16,-1
 767.5 614 l 1,17,-1
 1023.75 614 l 1,18,-1
 1023.75 409 l 1,19,-1
 1151.25 409 l 1,20,-1
 1151.25 204 l 1,21,-1
 1407.5 204 l 1,22,-1
 1407.5 0 l 1,23,-1
 1023.75 0 l 1,24,-1
 1023.75 204 l 1,25,-1
 767.5 204 l 1,26,-1
 767.5 409 l 1,27,-1
 640 409 l 1,28,-1
 640 614 l 1,29,-1
 511.25 614 l 1,30,-1
 511.25 0 l 1,31,-1
 255 0 l 1,0,-1
EndSplineSet
Validated: 1
EndChar

StartChar: L
Encoding: 76 76 45
Width: 1535
GlyphClass: 1
Flags: W
HStem: 0 204<511.25 1407.5> 1413 20G<255 511.25>
VStem: 255 256.25<204 1433>
LayerCount: 2
Fore
SplineSet
255 0 m 1,0,-1
 255 1433 l 1,1,-1
 511.25 1433 l 1,2,-1
 511.25 204 l 1,3,-1
 1407.5 204 l 1,4,-1
 1407.5 0 l 1,5,-1
 255 0 l 1,0,-1
EndSplineSet
Validated: 1
EndChar

StartChar: M
Encoding: 77 77 46
Width: 1535
GlyphClass: 1
Flags: W
LayerCount: 2
Fore
SplineSet
127.5 0 m 1,0,-1
 127.5 1433 l 1,1,-1
 511.25 1433 l 1,2,-1
 511.25 1228 l 1,3,-1
 640 1228 l 1,4,-1
 640 1024 l 1,5,-1
 895 1024 l 1,6,-1
 895 1228 l 1,7,-1
 1023.75 1228 l 1,8,-1
 1023.75 1433 l 1,9,-1
 1407.5 1433 l 1,10,-1
 1407.5 0 l 1,11,-1
 1151.25 0 l 1,12,-1
 1151.25 1024 l 1,13,-1
 1023.75 1024 l 1,14,-1
 1023.75 819 l 1,15,-1
 895 819 l 1,16,-1
 895 614 l 1,17,-1
 640 614 l 1,18,-1
 640 819 l 1,19,-1
 511.25 819 l 1,20,-1
 511.25 1024 l 1,21,-1
 383.75 1024 l 1,22,-1
 383.75 0 l 1,23,-1
 127.5 0 l 1,0,-1
EndSplineSet
Validated: 1
EndChar

StartChar: N
Encoding: 78 78 47
Width: 1535
GlyphClass: 1
Flags: W
LayerCount: 2
Fore
SplineSet
127.5 0 m 1,0,-1
 127.5 1433 l 1,1,-1
 511.25 1433 l 1,2,-1
 511.25 1228 l 1,3,-1
 640 1228 l 1,4,-1
 640 1024 l 1,5,-1
 767.5 1024 l 1,6,-1
 767.5 819 l 1,7,-1
 895 819 l 1,8,-1
 895 614 l 1,9,-1
 1023.75 614 l 1,10,-1
 1023.75 409 l 1,11,-1
 1151.25 409 l 1,12,-1
 1151.25 1433 l 1,13,-1
 1407.5 1433 l 1,14,-1
 1407.5 0 l 1,15,-1
 1023.75 0 l 1,16,-1
 1023.75 204 l 1,17,-1
 895 204 l 1,18,-1
 895 409 l 1,19,-1
 767.5 409 l 1,20,-1
 767.5 614 l 1,21,-1
 640 614 l 1,22,-1
 640 819 l 1,23,-1
 511.25 819 l 1,24,-1
 511.25 1024 l 1,25,-1
 383.75 1024 l 1,26,-1
 383.75 0 l 1,27,-1
 127.5 0 l 1,0,-1
EndSplineSet
Validated: 1
EndChar

StartChar: O
Encoding: 79 79 48
Width: 1535
GlyphClass: 1
Flags: W
LayerCount: 2
Fore
SplineSet
1151.25 204 m 1,0,-1
 1151.25 1228 l 1,1,-1
 511.25 1228 l 1,2,-1
 511.25 204 l 1,3,-1
 1151.25 204 l 1,0,-1
383.75 0 m 1,4,-1
 383.75 204 l 1,5,-1
 255 204 l 1,6,-1
 255 1228 l 1,7,-1
 383.75 1228 l 1,8,-1
 383.75 1433 l 1,9,-1
 1280 1433 l 1,10,-1
 1280 1228 l 1,11,-1
 1407.5 1228 l 1,12,-1
 1407.5 204 l 1,13,-1
 1280 204 l 1,14,-1
 1280 0 l 1,15,-1
 383.75 0 l 1,4,-1
EndSplineSet
Validated: 1
EndChar

StartChar: P
Encoding: 80 80 49
Width: 1535
GlyphClass: 1
Flags: W
LayerCount: 2
Fore
SplineSet
1151.25 819 m 1,0,-1
 1151.25 1228 l 1,1,-1
 511.25 1228 l 1,2,-1
 511.25 819 l 1,3,-1
 1151.25 819 l 1,0,-1
255 0 m 1,4,-1
 255 1433 l 1,5,-1
 1280 1433 l 1,6,-1
 1280 1228 l 1,7,-1
 1407.5 1228 l 1,8,-1
 1407.5 819 l 1,9,-1
 1280 819 l 1,10,-1
 1280 614 l 1,11,-1
 511.25 614 l 1,12,-1
 511.25 0 l 1,13,-1
 255 0 l 1,4,-1
EndSplineSet
Validated: 1
EndChar

StartChar: Q
Encoding: 81 81 50
Width: 1535
GlyphClass: 1
Flags: W
LayerCount: 2
Fore
SplineSet
1151.25 204 m 1,0,-1
 1151.25 1228 l 1,1,-1
 511.25 1228 l 1,2,-1
 511.25 204 l 1,3,-1
 767.5 204 l 1,4,-1
 767.5 409 l 1,5,-1
 1023.75 409 l 1,6,-1
 1023.75 204 l 1,7,-1
 1151.25 204 l 1,0,-1
1023.75 -409 m 1,8,-1
 1023.75 -204 l 1,9,-1
 895 -204 l 1,10,-1
 895 0 l 1,11,-1
 383.75 0 l 1,12,-1
 383.75 204 l 1,13,-1
 255 204 l 1,14,-1
 255 1228 l 1,15,-1
 383.75 1228 l 1,16,-1
 383.75 1433 l 1,17,-1
 1280 1433 l 1,18,-1
 1280 1228 l 1,19,-1
 1407.5 1228 l 1,20,-1
 1407.5 204 l 1,21,-1
 1280 204 l 1,22,-1
 1280 0 l 1,23,-1
 1151.25 0 l 1,24,-1
 1151.25 -204 l 1,25,-1
 1407.5 -204 l 1,26,-1
 1407.5 -409 l 1,27,-1
 1023.75 -409 l 1,8,-1
EndSplineSet
Validated: 1
EndChar

StartChar: R
Encoding: 82 82 51
Width: 1535
GlyphClass: 1
Flags: W
LayerCount: 2
Fore
SplineSet
1151.25 819 m 1,0,-1
 1151.25 1228 l 1,1,-1
 511.25 1228 l 1,2,-1
 511.25 819 l 1,3,-1
 1151.25 819 l 1,0,-1
255 0 m 1,4,-1
 255 1433 l 1,5,-1
 1280 1433 l 1,6,-1
 1280 1228 l 1,7,-1
 1407.5 1228 l 1,8,-1
 1407.5 819 l 1,9,-1
 1280 819 l 1,10,-1
 1280 614 l 1,11,-1
 1151.25 614 l 1,12,-1
 1151.25 409 l 1,13,-1
 1280 409 l 1,14,-1
 1280 204 l 1,15,-1
 1407.5 204 l 1,16,-1
 1407.5 0 l 1,17,-1
 1151.25 0 l 1,18,-1
 1151.25 204 l 1,19,-1
 1023.75 204 l 1,20,-1
 1023.75 409 l 1,21,-1
 895 409 l 1,22,-1
 895 614 l 1,23,-1
 511.25 614 l 1,24,-1
 511.25 0 l 1,25,-1
 255 0 l 1,4,-1
EndSplineSet
Validated: 1
EndChar

StartChar: S
Encoding: 83 83 52
Width: 1535
GlyphClass: 1
Flags: W
LayerCount: 2
Fore
SplineSet
256 0 m 5,0,-1
 256 204 l 5,1,-1
 1151 204 l 5,2,-1
 1151 614 l 5,3,-1
 384 614 l 5,4,-1
 384 819 l 5,5,-1
 255 819 l 5,6,-1
 255 1228 l 5,7,-1
 384 1228 l 5,8,-1
 384 1433 l 5,9,-1
 1408 1433 l 5,10,-1
 1408 1228 l 5,11,-1
 511 1228 l 5,12,-1
 511 819 l 5,13,-1
 1280 819 l 5,14,-1
 1280 614 l 5,15,-1
 1408 614 l 5,16,-1
 1408 204 l 5,17,-1
 1280 204 l 5,18,-1
 1280 0 l 5,19,-1
 256 0 l 5,0,-1
EndSplineSet
Validated: 1
EndChar

StartChar: T
Encoding: 84 84 53
Width: 1535
GlyphClass: 1
Flags: W
HStem: 0 21G<640 895> 1228 205<127.5 640 895 1407.5>
VStem: 640 255<0 1228>
LayerCount: 2
Fore
SplineSet
640 0 m 1,0,-1
 640 1228 l 1,1,-1
 127.5 1228 l 1,2,-1
 127.5 1433 l 1,3,-1
 1407.5 1433 l 1,4,-1
 1407.5 1228 l 1,5,-1
 895 1228 l 1,6,-1
 895 0 l 1,7,-1
 640 0 l 1,0,-1
EndSplineSet
Validated: 1
EndChar

StartChar: U
Encoding: 85 85 54
Width: 1535
GlyphClass: 1
Flags: W
LayerCount: 2
Fore
SplineSet
383.75 0 m 1,0,-1
 383.75 204 l 1,1,-1
 255 204 l 1,2,-1
 255 1433 l 1,3,-1
 511.25 1433 l 1,4,-1
 511.25 204 l 1,5,-1
 1151.25 204 l 1,6,-1
 1151.25 1433 l 1,7,-1
 1407.5 1433 l 1,8,-1
 1407.5 204 l 1,9,-1
 1280 204 l 1,10,-1
 1280 0 l 1,11,-1
 383.75 0 l 1,0,-1
EndSplineSet
Validated: 1
EndChar

StartChar: V
Encoding: 86 86 55
Width: 1535
GlyphClass: 1
Flags: W
LayerCount: 2
Fore
SplineSet
640 0 m 1,0,-1
 640 204 l 1,1,-1
 511.25 204 l 1,2,-1
 511.25 409 l 1,3,-1
 383.75 409 l 1,4,-1
 383.75 614 l 1,5,-1
 255 614 l 1,6,-1
 255 1024 l 1,7,-1
 127.5 1024 l 1,8,-1
 127.5 1433 l 1,9,-1
 383.75 1433 l 1,10,-1
 383.75 1024 l 1,11,-1
 511.25 1024 l 1,12,-1
 511.25 614 l 1,13,-1
 640 614 l 1,14,-1
 640 409 l 1,15,-1
 895 409 l 1,16,-1
 895 614 l 1,17,-1
 1023.75 614 l 1,18,-1
 1023.75 1024 l 1,19,-1
 1151.25 1024 l 1,20,-1
 1151.25 1433 l 1,21,-1
 1407.5 1433 l 1,22,-1
 1407.5 1024 l 1,23,-1
 1280 1024 l 1,24,-1
 1280 614 l 1,25,-1
 1151.25 614 l 1,26,-1
 1151.25 409 l 1,27,-1
 1023.75 409 l 1,28,-1
 1023.75 204 l 1,29,-1
 895 204 l 1,30,-1
 895 0 l 1,31,-1
 640 0 l 1,0,-1
EndSplineSet
Validated: 1
EndChar

StartChar: W
Encoding: 87 87 56
Width: 1535
GlyphClass: 1
Flags: W
LayerCount: 2
Fore
SplineSet
255 0 m 1,0,-1
 255 409 l 1,1,-1
 127.5 409 l 1,2,-1
 127.5 1433 l 1,3,-1
 383.75 1433 l 1,4,-1
 383.75 409 l 1,5,-1
 511.25 409 l 1,6,-1
 511.25 614 l 1,7,-1
 640 614 l 1,8,-1
 640 1024 l 1,9,-1
 895 1024 l 1,10,-1
 895 614 l 1,11,-1
 1023.75 614 l 1,12,-1
 1023.75 409 l 1,13,-1
 1151.25 409 l 1,14,-1
 1151.25 1433 l 1,15,-1
 1407.5 1433 l 1,16,-1
 1407.5 409 l 1,17,-1
 1280 409 l 1,18,-1
 1280 0 l 1,19,-1
 1023.75 0 l 1,20,-1
 1023.75 204 l 1,21,-1
 895 204 l 1,22,-1
 895 409 l 1,23,-1
 640 409 l 1,24,-1
 640 204 l 1,25,-1
 511.25 204 l 1,26,-1
 511.25 0 l 1,27,-1
 255 0 l 1,0,-1
EndSplineSet
Validated: 1
EndChar

StartChar: X
Encoding: 88 88 57
Width: 1535
GlyphClass: 1
Flags: W
LayerCount: 2
Fore
SplineSet
255 0 m 1,0,-1
 255 204 l 1,1,-1
 383.75 204 l 1,2,-1
 383.75 409 l 1,3,-1
 511.25 409 l 1,4,-1
 511.25 614 l 1,5,-1
 640 614 l 1,6,-1
 640 819 l 1,7,-1
 511.25 819 l 1,8,-1
 511.25 1024 l 1,9,-1
 383.75 1024 l 1,10,-1
 383.75 1228 l 1,11,-1
 255 1228 l 1,12,-1
 255 1433 l 1,13,-1
 511.25 1433 l 1,14,-1
 511.25 1228 l 1,15,-1
 640 1228 l 1,16,-1
 640 1024 l 1,17,-1
 895 1024 l 1,18,-1
 895 1228 l 1,19,-1
 1023.75 1228 l 1,20,-1
 1023.75 1433 l 1,21,-1
 1280 1433 l 1,22,-1
 1280 1228 l 1,23,-1
 1151.25 1228 l 1,24,-1
 1151.25 1024 l 1,25,-1
 1023.75 1024 l 1,26,-1
 1023.75 819 l 1,27,-1
 895 819 l 1,28,-1
 895 614 l 1,29,-1
 1023.75 614 l 1,30,-1
 1023.75 409 l 1,31,-1
 1151.25 409 l 1,32,-1
 1151.25 204 l 1,33,-1
 1280 204 l 1,34,-1
 1280 0 l 1,35,-1
 1023.75 0 l 1,36,-1
 1023.75 204 l 1,37,-1
 895 204 l 1,38,-1
 895 409 l 1,39,-1
 640 409 l 1,40,-1
 640 204 l 1,41,-1
 511.25 204 l 1,42,-1
 511.25 0 l 1,43,-1
 255 0 l 1,0,-1
EndSplineSet
Validated: 1
EndChar

StartChar: Y
Encoding: 89 89 58
Width: 1535
GlyphClass: 1
Flags: W
LayerCount: 2
Fore
SplineSet
640 0 m 1,0,-1
 640 614 l 1,1,-1
 511.25 614 l 1,2,-1
 511.25 819 l 1,3,-1
 383.75 819 l 1,4,-1
 383.75 1024 l 1,5,-1
 255 1024 l 1,6,-1
 255 1228 l 1,7,-1
 127.5 1228 l 1,8,-1
 127.5 1433 l 1,9,-1
 383.75 1433 l 1,10,-1
 383.75 1228 l 1,11,-1
 511.25 1228 l 1,12,-1
 511.25 1024 l 1,13,-1
 640 1024 l 1,14,-1
 640 819 l 1,15,-1
 895 819 l 1,16,-1
 895 1024 l 1,17,-1
 1023.75 1024 l 1,18,-1
 1023.75 1228 l 1,19,-1
 1151.25 1228 l 1,20,-1
 1151.25 1433 l 1,21,-1
 1407.5 1433 l 1,22,-1
 1407.5 1228 l 1,23,-1
 1280 1228 l 1,24,-1
 1280 1024 l 1,25,-1
 1151.25 1024 l 1,26,-1
 1151.25 819 l 1,27,-1
 1023.75 819 l 1,28,-1
 1023.75 614 l 1,29,-1
 895 614 l 1,30,-1
 895 0 l 1,31,-1
 640 0 l 1,0,-1
EndSplineSet
Validated: 1
EndChar

StartChar: Z
Encoding: 90 90 59
Width: 1535
GlyphClass: 1
Flags: W
LayerCount: 2
Fore
SplineSet
255 0 m 1,0,-1
 255 204 l 1,1,-1
 383.75 204 l 1,2,-1
 383.75 409 l 1,3,-1
 511.25 409 l 1,4,-1
 511.25 614 l 1,5,-1
 640 614 l 1,6,-1
 640 819 l 1,7,-1
 767.5 819 l 1,8,-1
 767.5 1024 l 1,9,-1
 895 1024 l 1,10,-1
 895 1228 l 1,11,-1
 255 1228 l 1,12,-1
 255 1433 l 1,13,-1
 1280 1433 l 1,14,-1
 1280 1228 l 1,15,-1
 1151.25 1228 l 1,16,-1
 1151.25 1024 l 1,17,-1
 1023.75 1024 l 1,18,-1
 1023.75 819 l 1,19,-1
 895 819 l 1,20,-1
 895 614 l 1,21,-1
 767.5 614 l 1,22,-1
 767.5 409 l 1,23,-1
 640 409 l 1,24,-1
 640 204 l 1,25,-1
 1280 204 l 1,26,-1
 1280 0 l 1,27,-1
 255 0 l 1,0,-1
EndSplineSet
Validated: 1
EndChar

StartChar: bracketleft
Encoding: 91 91 60
Width: 1535
GlyphClass: 1
Flags: W
LayerCount: 2
Fore
SplineSet
640 -204 m 1,0,-1
 640 1638 l 1,1,-1
 1151.25 1638 l 1,2,-1
 1151.25 1433 l 1,3,-1
 895 1433 l 1,4,-1
 895 0 l 1,5,-1
 1151.25 0 l 1,6,-1
 1151.25 -204 l 1,7,-1
 640 -204 l 1,0,-1
EndSplineSet
Validated: 1
EndChar

StartChar: backslash
Encoding: 92 92 61
Width: 1535
GlyphClass: 1
Flags: W
LayerCount: 2
Fore
SplineSet
1023.75 0 m 1,0,-1
 1023.75 204 l 1,1,-1
 895 204 l 1,2,-1
 895 409 l 1,3,-1
 767.5 409 l 1,4,-1
 767.5 614 l 1,5,-1
 640 614 l 1,6,-1
 640 819 l 1,7,-1
 511.25 819 l 1,8,-1
 511.25 1024 l 1,9,-1
 383.75 1024 l 1,10,-1
 383.75 1228 l 1,11,-1
 255 1228 l 1,12,-1
 255 1433 l 1,13,-1
 511.25 1433 l 1,14,-1
 511.25 1228 l 1,15,-1
 640 1228 l 1,16,-1
 640 1024 l 1,17,-1
 767.5 1024 l 1,18,-1
 767.5 819 l 1,19,-1
 895 819 l 1,20,-1
 895 614 l 1,21,-1
 1023.75 614 l 1,22,-1
 1023.75 409 l 1,23,-1
 1151.25 409 l 1,24,-1
 1151.25 204 l 1,25,-1
 1280 204 l 1,26,-1
 1280 0 l 1,27,-1
 1023.75 0 l 1,0,-1
EndSplineSet
Validated: 1
EndChar

StartChar: bracketright
Encoding: 93 93 62
Width: 1535
GlyphClass: 1
Flags: W
LayerCount: 2
Fore
SplineSet
383.75 -204 m 1,0,-1
 383.75 0 l 1,1,-1
 640 0 l 1,2,-1
 640 1433 l 1,3,-1
 383.75 1433 l 1,4,-1
 383.75 1638 l 1,5,-1
 895 1638 l 1,6,-1
 895 -204 l 1,7,-1
 383.75 -204 l 1,0,-1
EndSplineSet
Validated: 1
EndChar

StartChar: asciicircum
Encoding: 94 94 63
Width: 1535
GlyphClass: 1
Flags: W
LayerCount: 2
Fore
SplineSet
255 819 m 1,0,-1
 255 1024 l 1,1,-1
 383.75 1024 l 1,2,-1
 383.75 1228 l 1,3,-1
 511.25 1228 l 1,4,-1
 511.25 1433 l 1,5,-1
 895 1433 l 1,6,-1
 895 1228 l 1,7,-1
 1023.75 1228 l 1,8,-1
 1023.75 1024 l 1,9,-1
 1151.25 1024 l 1,10,-1
 1151.25 819 l 1,11,-1
 895 819 l 1,12,-1
 895 1024 l 1,13,-1
 767.5 1024 l 1,14,-1
 767.5 1228 l 1,15,-1
 640 1228 l 1,16,-1
 640 1024 l 1,17,-1
 511.25 1024 l 1,18,-1
 511.25 819 l 1,19,-1
 255 819 l 1,0,-1
EndSplineSet
Validated: 1
EndChar

StartChar: underscore
Encoding: 95 95 64
Width: 1535
GlyphClass: 1
Flags: W
LayerCount: 2
Fore
SplineSet
127.5 -204 m 1,0,-1
 127.5 0 l 1,1,-1
 1407.5 0 l 1,2,-1
 1407.5 -204 l 1,3,-1
 127.5 -204 l 1,0,-1
EndSplineSet
Validated: 1
EndChar

StartChar: grave
Encoding: 96 96 65
Width: 1535
GlyphClass: 1
Flags: W
LayerCount: 2
Fore
SplineSet
895 819 m 1,0,-1
 895 1024 l 1,1,-1
 767.5 1024 l 1,2,-1
 767.5 1228 l 1,3,-1
 640 1228 l 1,4,-1
 640 1433 l 1,5,-1
 895 1433 l 1,6,-1
 895 1228 l 1,7,-1
 1023.75 1228 l 1,8,-1
 1023.75 1024 l 1,9,-1
 1151.25 1024 l 1,10,-1
 1151.25 819 l 1,11,-1
 895 819 l 1,0,-1
EndSplineSet
Validated: 1
EndChar

StartChar: a
Encoding: 97 97 66
Width: 1535
GlyphClass: 1
Flags: W
LayerCount: 2
Fore
SplineSet
1023.75 204 m 1,0,-1
 1023.75 409 l 1,1,-1
 383.75 409 l 1,2,-1
 383.75 204 l 1,3,-1
 1023.75 204 l 1,0,-1
255 0 m 1,4,-1
 255 204 l 1,5,-1
 127.5 204 l 1,6,-1
 127.5 409 l 1,7,-1
 255 409 l 1,8,-1
 255 614 l 1,9,-1
 1023.75 614 l 1,10,-1
 1023.75 819 l 1,11,-1
 255 819 l 1,12,-1
 255 1024 l 1,13,-1
 1151.25 1024 l 1,14,-1
 1151.25 819 l 1,15,-1
 1280 819 l 1,16,-1
 1280 204 l 1,17,-1
 1407.5 204 l 1,18,-1
 1407.5 0 l 1,19,-1
 255 0 l 1,4,-1
EndSplineSet
Validated: 1
EndChar

StartChar: b
Encoding: 98 98 67
Width: 1535
GlyphClass: 1
Flags: W
LayerCount: 2
Fore
SplineSet
255 0 m 1,0,-1
 255 1433 l 1,1,-1
 511.25 1433 l 1,2,-1
 511.25 819 l 1,3,-1
 640 819 l 1,4,-1
 640 614 l 1,5,-1
 511.25 614 l 1,6,-1
 511.25 204 l 1,7,-1
 1151.25 204 l 1,8,-1
 1151.25 819 l 1,9,-1
 640 819 l 1,10,-1
 640 1024 l 1,11,-1
 1280 1024 l 1,12,-1
 1280 819 l 1,13,-1
 1407.5 819 l 1,14,-1
 1407.5 204 l 1,15,-1
 1280 204 l 1,16,-1
 1280 0 l 1,17,-1
 255 0 l 1,0,-1
EndSplineSet
Validated: 5
EndChar

StartChar: c
Encoding: 99 99 68
Width: 1535
GlyphClass: 1
Flags: W
LayerCount: 2
Fore
SplineSet
383.75 0 m 1,0,-1
 383.75 204 l 1,1,-1
 255 204 l 1,2,-1
 255 819 l 1,3,-1
 383.75 819 l 1,4,-1
 383.75 1024 l 1,5,-1
 1407 1024 l 1,6,-1
 1407 819 l 1,7,-1
 511.25 819 l 1,8,-1
 511.25 204 l 1,9,-1
 1407.5 204 l 1,10,-1
 1407.5 0 l 1,11,-1
 383.75 0 l 1,0,-1
EndSplineSet
EndChar

StartChar: d
Encoding: 100 100 69
Width: 1535
GlyphClass: 1
Flags: W
LayerCount: 2
Fore
SplineSet
383.75 0 m 1,0,-1
 383.75 204 l 1,1,-1
 255 204 l 1,2,-1
 255 819 l 1,3,-1
 383.75 819 l 1,4,-1
 383.75 1024 l 1,5,-1
 1023.75 1024 l 1,6,-1
 1023.75 819 l 1,7,-1
 511.25 819 l 1,8,-1
 511.25 204 l 1,9,-1
 1151.25 204 l 1,10,-1
 1151.25 614 l 1,11,-1
 1023.75 614 l 1,12,-1
 1023.75 819 l 1,13,-1
 1151.25 819 l 1,14,-1
 1151.25 1433 l 1,15,-1
 1407.5 1433 l 1,16,-1
 1407.5 0 l 1,17,-1
 383.75 0 l 1,0,-1
EndSplineSet
Validated: 5
EndChar

StartChar: e
Encoding: 101 101 70
Width: 1535
GlyphClass: 1
Flags: W
LayerCount: 2
Fore
SplineSet
1151.25 614 m 1,0,-1
 1151.25 819 l 1,1,-1
 511.25 819 l 1,2,-1
 511.25 614 l 1,3,-1
 1151.25 614 l 1,0,-1
383.75 0 m 1,4,-1
 383.75 204 l 1,5,-1
 255 204 l 1,6,-1
 255 819 l 1,7,-1
 383.75 819 l 1,8,-1
 383.75 1024 l 1,9,-1
 1280 1024 l 1,10,-1
 1280 819 l 1,11,-1
 1407.5 819 l 1,12,-1
 1407.5 409 l 1,13,-1
 511.25 409 l 1,14,-1
 511.25 204 l 1,15,-1
 1280 204 l 1,16,-1
 1280 0 l 1,17,-1
 383.75 0 l 1,4,-1
EndSplineSet
Validated: 1
EndChar

StartChar: f
Encoding: 102 102 71
Width: 1535
GlyphClass: 1
Flags: W
HStem: 0 21G<511.25 767.5> 614 205<255 511.25 767.5 1023.75> 1024 204<1280 1407.5> 1228 205<767.5 1151.25>
VStem: 511.25 256.25<0 614 819 1228> 1151.25 256.25<1024 1228>
LayerCount: 2
Fore
SplineSet
511 0 m 1,0,-1
 511 614 l 1,1,-1
 255 614 l 1,2,-1
 255 819 l 1,3,-1
 511 819 l 1,4,-1
 511 1228 l 1,5,-1
 640 1228 l 1,6,-1
 640 1433 l 1,7,-1
 1280 1433 l 1,8,-1
 1408 1432 l 1,9,-1
 1408 1228 l 1,10,-1
 768 1228 l 1,11,-1
 768 819 l 1,12,-1
 1152 819 l 5,13,-1
 1152 614 l 5,14,-1
 768 614 l 1,15,-1
 768 0 l 1,16,-1
 511 0 l 1,0,-1
EndSplineSet
Validated: 1
EndChar

StartChar: g
Encoding: 103 103 72
Width: 1535
GlyphClass: 1
Flags: W
LayerCount: 2
Fore
SplineSet
384 -408 m 5,0,-1
 384 -204 l 5,1,-1
 1151 -204 l 5,2,-1
 1151 0 l 5,3,-1
 384 0 l 5,4,-1
 384 205 l 5,5,-1
 255 205 l 5,6,-1
 255 819 l 1,7,-1
 384 819 l 1,8,-1
 384 1024 l 1,9,-1
 1024 1024 l 1,10,-1
 1024 819 l 1,11,-1
 511 819 l 1,12,-1
 511 205 l 5,13,-1
 1151 205 l 5,14,-1
 1151 614 l 1,15,-1
 1024 614 l 1,16,-1
 1024 819 l 1,17,-1
 1151 819 l 1,18,-1
 1151 1024 l 1,19,20
 1152 1024 1152 1024 1408 1024 c 1,21,-1
 1408 -204 l 5,22,-1
 1280 -204 l 5,23,-1
 1280 -408 l 5,24,-1
 384 -408 l 5,0,-1
EndSplineSet
Validated: 5
EndChar

StartChar: h
Encoding: 104 104 73
Width: 1535
GlyphClass: 1
Flags: W
LayerCount: 2
Fore
SplineSet
1151.25 0 m 1,0,-1
 1151.25 819 l 1,1,-1
 640 819 l 1,2,-1
 640 1024 l 1,3,-1
 1280 1024 l 1,4,-1
 1280 819 l 1,5,-1
 1407.5 819 l 1,6,-1
 1407.5 0 l 1,7,-1
 1151.25 0 l 1,0,-1
255 0 m 1,8,-1
 255 1433 l 1,9,-1
 511.25 1433 l 1,10,-1
 511.25 819 l 1,11,-1
 640 819 l 1,12,-1
 640 614 l 1,13,-1
 511.25 614 l 1,14,-1
 511.25 0 l 1,15,-1
 255 0 l 1,8,-1
EndSplineSet
Validated: 5
EndChar

StartChar: i
Encoding: 105 105 74
Width: 1535
GlyphClass: 1
Flags: W
LayerCount: 2
Fore
SplineSet
256 0 m 5,0,-1
 256 204 l 5,1,-1
 640 204 l 5,2,-1
 640 819 l 5,3,-1
 383 819 l 5,4,-1
 383 1024 l 5,5,-1
 895 1024 l 5,6,-1
 895 204 l 5,7,-1
 1279 204 l 5,8,-1
 1279 0 l 5,9,-1
 256 0 l 5,0,-1
640 1228 m 1,10,-1
 640 1433 l 1,11,-1
 895 1433 l 1,12,-1
 895 1228 l 1,13,-1
 640 1228 l 1,10,-1
EndSplineSet
EndChar

StartChar: j
Encoding: 106 106 75
Width: 1535
GlyphClass: 1
Flags: W
LayerCount: 2
Fore
SplineSet
384 -408 m 1,0,-1
 384 -204 l 1,1,-1
 255 -204 l 1,2,-1
 255 0 l 1,3,-1
 639 0 l 1,4,-1
 639 -204 l 1,5,-1
 1151 -204 l 1,6,-1
 1151 819 l 1,7,-1
 767 819 l 5,8,-1
 767 1024 l 5,9,10
 1088 1024 1088 1024 1408 1024 c 1,11,-1
 1408 -204 l 1,12,-1
 1280 -204 l 1,13,-1
 1280 -408 l 1,14,-1
 384 -408 l 1,0,-1
1151 1228 m 1,15,-1
 1151 1433 l 1,16,17
 1152 1433 1152 1433 1408 1433 c 1,18,-1
 1408 1228 l 1,19,-1
 1151 1228 l 1,15,-1
EndSplineSet
Validated: 1
EndChar

StartChar: k
Encoding: 107 107 76
Width: 1535
GlyphClass: 1
Flags: W
LayerCount: 2
Fore
SplineSet
1023.75 0 m 1,0,-1
 1023.75 204 l 1,1,-1
 895 204 l 1,2,-1
 895 409 l 1,3,-1
 1151.25 409 l 1,4,-1
 1151.25 204 l 1,5,-1
 1407.5 204 l 1,6,-1
 1407.5 0 l 1,7,-1
 1023.75 0 l 1,0,-1
895 614 m 1,8,-1
 895 819 l 1,9,-1
 1023.75 819 l 1,10,-1
 1023.75 1024 l 1,11,-1
 1407.5 1024 l 1,12,-1
 1407.5 819 l 1,13,-1
 1151.25 819 l 1,14,-1
 1151.25 614 l 1,15,-1
 895 614 l 1,8,-1
255 0 m 1,16,-1
 255 1433 l 1,17,-1
 511.25 1433 l 1,18,-1
 511.25 614 l 1,19,-1
 895 614 l 1,20,-1
 895 409 l 1,21,-1
 511.25 409 l 1,22,-1
 511.25 0 l 1,23,-1
 255 0 l 1,16,-1
EndSplineSet
Validated: 5
EndChar

StartChar: l
Encoding: 108 108 77
Width: 1535
GlyphClass: 1
Flags: W
HStem: 0 204<383.75 640 895 1151.25> 1228 205<383.75 640>
VStem: 640 255<204 1228>
LayerCount: 2
Fore
SplineSet
256 0 m 1,0,-1
 256 204 l 1,1,-1
 640 204 l 1,2,-1
 640 1228 l 1,3,-1
 384 1228 l 1,4,-1
 384 1433 l 1,5,-1
 895 1433 l 1,6,-1
 895 204 l 1,7,-1
 1279 204 l 5,8,-1
 1279 0 l 5,9,-1
 256 0 l 1,0,-1
EndSplineSet
EndChar

StartChar: m
Encoding: 109 109 78
Width: 1535
GlyphClass: 1
Flags: W
HStem: 0 21G<127.5 383.75 640 895 1151.25 1407.5> 819 205<383.75 640 895 1151.25>
VStem: 127.5 256.25<0 819> 640 255<0 819> 895 385<819 1024> 1151.25 256.25<0 819>
LayerCount: 2
Fore
SplineSet
127.5 0 m 1,0,-1
 127.5 1024 l 1,1,-1
 767.5 1024 l 1,2,-1
 767.5 819 l 1,3,-1
 895 819 l 1,4,-1
 895 0 l 1,5,-1
 640 0 l 1,6,-1
 640 819 l 1,7,-1
 383.75 819 l 1,8,-1
 383.75 0 l 1,9,-1
 127.5 0 l 1,0,-1
1151.25 0 m 1,10,-1
 1151.25 819 l 1,11,-1
 895 819 l 1,12,-1
 895 1024 l 1,13,-1
 1280 1024 l 1,14,-1
 1280 819 l 1,15,-1
 1407.5 819 l 1,16,-1
 1407.5 0 l 1,17,-1
 1151.25 0 l 1,10,-1
EndSplineSet
Validated: 5
EndChar

StartChar: n
Encoding: 110 110 79
Width: 1535
GlyphClass: 1
Flags: W
LayerCount: 2
Fore
SplineSet
255 0 m 1,0,-1
 255 1024 l 1,1,-1
 511.25 1024 l 1,2,-1
 511.25 819 l 1,3,-1
 640 819 l 1,4,-1
 640 614 l 1,5,-1
 511.25 614 l 1,6,-1
 511.25 0 l 1,7,-1
 255 0 l 1,0,-1
1151.25 0 m 1,8,-1
 1151.25 819 l 1,9,-1
 640 819 l 1,10,-1
 640 1024 l 1,11,-1
 1280 1024 l 1,12,-1
 1280 819 l 1,13,-1
 1407.5 819 l 1,14,-1
 1407.5 0 l 1,15,-1
 1151.25 0 l 1,8,-1
EndSplineSet
Validated: 5
EndChar

StartChar: o
Encoding: 111 111 80
Width: 1535
GlyphClass: 1
Flags: W
LayerCount: 2
Fore
SplineSet
1151.25 204 m 1,0,-1
 1151.25 819 l 1,1,-1
 511.25 819 l 1,2,-1
 511.25 204 l 1,3,-1
 1151.25 204 l 1,0,-1
383.75 0 m 1,4,-1
 383.75 204 l 1,5,-1
 255 204 l 1,6,-1
 255 819 l 1,7,-1
 383.75 819 l 1,8,-1
 383.75 1024 l 1,9,-1
 1280 1024 l 1,10,-1
 1280 819 l 1,11,-1
 1407.5 819 l 1,12,-1
 1407.5 204 l 1,13,-1
 1280 204 l 1,14,-1
 1280 0 l 1,15,-1
 383.75 0 l 1,4,-1
EndSplineSet
Validated: 1
EndChar

StartChar: p
Encoding: 112 112 81
Width: 1535
GlyphClass: 1
Flags: W
LayerCount: 2
Fore
SplineSet
255 -408 m 5,0,-1
 255 1024 l 1,1,-1
 511 1024 l 1,2,-1
 511 819 l 1,3,-1
 640 819 l 1,4,-1
 640 614 l 1,5,-1
 511 614 l 1,6,-1
 511 409 l 1,7,-1
 640 409 l 1,8,-1
 640 204 l 1,9,-1
 511 204 l 1,10,-1
 511 -408 l 5,11,-1
 255 -408 l 5,0,-1
640 0 m 1,12,-1
 640 204 l 1,13,-1
 1151 204 l 1,14,-1
 1151 819 l 1,15,-1
 640 819 l 1,16,-1
 640 1024 l 1,17,-1
 1280 1024 l 1,18,-1
 1280 819 l 1,19,-1
 1408 819 l 1,20,-1
 1408 204 l 1,21,-1
 1280 204 l 1,22,-1
 1280 0 l 1,23,-1
 640 0 l 1,12,-1
EndSplineSet
Validated: 5
EndChar

StartChar: q
Encoding: 113 113 82
Width: 1535
GlyphClass: 1
Flags: W
LayerCount: 2
Fore
SplineSet
384 0 m 1,0,-1
 384 204 l 1,1,-1
 255 204 l 1,2,-1
 255 819 l 1,3,-1
 384 819 l 5,4,-1
 384 1024 l 1,5,-1
 1024 1024 l 1,6,-1
 1024 819 l 1,7,-1
 511 819 l 1,8,-1
 511 204 l 1,9,-1
 1024 204 l 1,10,-1
 1024 0 l 1,11,-1
 384 0 l 1,0,-1
1151 -408 m 1,12,-1
 1151 204 l 1,13,-1
 1024 204 l 1,14,-1
 1024 409 l 1,15,-1
 1151 409 l 1,16,-1
 1151 614 l 1,17,-1
 1024 614 l 1,18,-1
 1024 819 l 1,19,-1
 1151 819 l 1,20,-1
 1151 1024 l 1,21,22
 1152 1024 1152 1024 1408 1024 c 1,23,-1
 1408 -408 l 1,24,-1
 1151 -408 l 1,12,-1
EndSplineSet
Validated: 5
EndChar

StartChar: r
Encoding: 114 114 83
Width: 1535
GlyphClass: 1
Flags: W
LayerCount: 2
Fore
SplineSet
255 0 m 1,0,-1
 255 1024 l 1,1,-1
 511 1024 l 1,2,-1
 511 819 l 1,3,-1
 768 819 l 1,4,-1
 768 614 l 1,5,-1
 511 614 l 1,6,-1
 511 0 l 1,7,-1
 255 0 l 1,0,-1
768 819 m 1,8,-1
 768 1024 l 1,9,-1
 1408 1024 l 5,10,-1
 1408 819 l 5,11,-1
 768 819 l 1,8,-1
EndSplineSet
EndChar

StartChar: s
Encoding: 115 115 84
Width: 1535
GlyphClass: 1
Flags: W
LayerCount: 2
Fore
SplineSet
256 0 m 5,0,-1
 256 204 l 5,1,-1
 1151 204 l 1,2,-1
 1151 409 l 1,3,-1
 384 409 l 1,4,-1
 384 614 l 1,5,-1
 255 614 l 1,6,-1
 255 819 l 1,7,-1
 384 819 l 1,8,-1
 384 1024 l 1,9,-1
 1408 1024 l 1,10,-1
 1408 819 l 1,11,-1
 511 819 l 1,12,-1
 511 614 l 1,13,-1
 1280 614 l 1,14,-1
 1280 409 l 1,15,-1
 1408 409 l 1,16,-1
 1408 204 l 1,17,-1
 1280 204 l 1,18,-1
 1280 0 l 1,19,-1
 256 0 l 5,0,-1
EndSplineSet
Validated: 1
EndChar

StartChar: t
Encoding: 116 116 85
Width: 1535
GlyphClass: 1
Flags: W
HStem: 0 204<767.5 1151.25> 204 205<1280 1407.5> 819 205<255 511.25 767.5 1151.25> 1413 20G<511.25 767.5>
VStem: 511.25 256.25<204 819 1024 1433> 1151.25 256.25<204 409>
LayerCount: 2
Fore
SplineSet
640 0 m 1,0,-1
 640 204 l 1,1,-1
 511 204 l 1,2,-1
 511 819 l 1,3,-1
 255 819 l 1,4,-1
 255 1024 l 1,5,-1
 511 1024 l 1,6,-1
 511 1433 l 1,7,8
 512 1433 512 1433 768 1433 c 1,9,-1
 768 1024 l 1,10,-1
 1151 1024 l 1,11,-1
 1151 819 l 1,12,13
 1152 819 1152 819 768 819 c 1,14,-1
 768 204 l 1,15,-1
 1408 204 l 5,16,-1
 1408 0 l 5,17,-1
 640 0 l 1,0,-1
EndSplineSet
Validated: 33
EndChar

StartChar: u
Encoding: 117 117 86
Width: 1535
GlyphClass: 1
Flags: W
LayerCount: 2
Fore
SplineSet
383.75 0 m 1,0,-1
 383.75 204 l 1,1,-1
 255 204 l 1,2,-1
 255 1024 l 1,3,-1
 511.25 1024 l 1,4,-1
 511.25 204 l 1,5,-1
 1023.75 204 l 1,6,-1
 1023.75 0 l 1,7,-1
 383.75 0 l 1,0,-1
1151.25 0 m 1,8,-1
 1151.25 204 l 1,9,-1
 1023.75 204 l 1,10,-1
 1023.75 409 l 1,11,-1
 1151.25 409 l 1,12,-1
 1151.25 1024 l 1,13,-1
 1407.5 1024 l 1,14,-1
 1407.5 0 l 1,15,-1
 1151.25 0 l 1,8,-1
EndSplineSet
Validated: 5
EndChar

StartChar: v
Encoding: 118 118 87
Width: 1535
GlyphClass: 1
Flags: W
LayerCount: 2
Fore
SplineSet
640 0 m 1,0,-1
 640 204 l 1,1,-1
 511.25 204 l 1,2,-1
 511.25 409 l 1,3,-1
 383.75 409 l 1,4,-1
 383.75 614 l 1,5,-1
 255 614 l 1,6,-1
 255 819 l 1,7,-1
 127.5 819 l 1,8,-1
 127.5 1024 l 1,9,-1
 383.75 1024 l 1,10,-1
 383.75 819 l 1,11,-1
 511.25 819 l 1,12,-1
 511.25 614 l 1,13,-1
 640 614 l 1,14,-1
 640 409 l 1,15,-1
 895 409 l 1,16,-1
 895 614 l 1,17,-1
 1023.75 614 l 1,18,-1
 1023.75 819 l 1,19,-1
 1151.25 819 l 1,20,-1
 1151.25 1024 l 1,21,-1
 1407.5 1024 l 1,22,-1
 1407.5 819 l 1,23,-1
 1280 819 l 1,24,-1
 1280 614 l 1,25,-1
 1151.25 614 l 1,26,-1
 1151.25 409 l 1,27,-1
 1023.75 409 l 1,28,-1
 1023.75 204 l 1,29,-1
 895 204 l 1,30,-1
 895 0 l 1,31,-1
 640 0 l 1,0,-1
EndSplineSet
Validated: 1
EndChar

StartChar: w
Encoding: 119 119 88
Width: 1535
GlyphClass: 1
Flags: W
LayerCount: 2
Fore
SplineSet
640 204 m 1,0,-1
 640 819 l 1,1,-1
 895 819 l 1,2,-1
 895 204 l 1,3,-1
 640 204 l 1,0,-1
383.75 0 m 1,4,-1
 383.75 204 l 1,5,-1
 255 204 l 1,6,-1
 255 409 l 1,7,-1
 127.5 409 l 1,8,-1
 127.5 1024 l 1,9,-1
 383.75 1024 l 1,10,-1
 383.75 409 l 1,11,-1
 511.25 409 l 1,12,-1
 511.25 204 l 1,13,-1
 640 204 l 1,14,-1
 640 0 l 1,15,-1
 383.75 0 l 1,4,-1
895 0 m 1,16,-1
 895 204 l 1,17,-1
 1023.75 204 l 1,18,-1
 1023.75 409 l 1,19,-1
 1151.25 409 l 1,20,-1
 1151.25 1024 l 1,21,-1
 1407.5 1024 l 1,22,-1
 1407.5 409 l 1,23,-1
 1280 409 l 1,24,-1
 1280 204 l 1,25,-1
 1151.25 204 l 1,26,-1
 1151.25 0 l 1,27,-1
 895 0 l 1,16,-1
EndSplineSet
Validated: 5
EndChar

StartChar: x
Encoding: 120 120 89
Width: 1535
GlyphClass: 1
Flags: W
LayerCount: 2
Fore
SplineSet
127.5 0 m 1,0,-1
 127.5 204 l 1,1,-1
 383.75 204 l 1,2,-1
 383.75 409 l 1,3,-1
 511.25 409 l 1,4,-1
 511.25 614 l 1,5,-1
 383.75 614 l 1,6,-1
 383.75 819 l 1,7,-1
 127.5 819 l 1,8,-1
 127.5 1024 l 1,9,-1
 511.25 1024 l 1,10,-1
 511.25 819 l 1,11,-1
 640 819 l 1,12,-1
 640 614 l 1,13,-1
 895 614 l 1,14,-1
 895 819 l 1,15,-1
 1023.75 819 l 1,16,-1
 1023.75 1024 l 1,17,-1
 1407.5 1024 l 1,18,-1
 1407.5 819 l 1,19,-1
 1151.25 819 l 1,20,-1
 1151.25 614 l 1,21,-1
 1023.75 614 l 1,22,-1
 1023.75 409 l 1,23,-1
 1151.25 409 l 1,24,-1
 1151.25 204 l 1,25,-1
 1407.5 204 l 1,26,-1
 1407.5 0 l 1,27,-1
 1023.75 0 l 1,28,-1
 1023.75 204 l 1,29,-1
 895 204 l 1,30,-1
 895 409 l 1,31,-1
 640 409 l 1,32,-1
 640 204 l 1,33,-1
 511.25 204 l 1,34,-1
 511.25 0 l 1,35,-1
 127.5 0 l 1,0,-1
EndSplineSet
Validated: 1
EndChar

StartChar: y
Encoding: 121 121 90
Width: 1535
GlyphClass: 1
Flags: W
LayerCount: 2
Fore
SplineSet
256 -408 m 5,0,-1
 256 -204 l 5,1,-1
 512 -204 l 5,2,-1
 511 0 l 5,3,4
 511 0 511 0 640 0 c 5,5,6
 640 0 640 0 640 409 c 5,7,-1
 511 409 l 5,8,-1
 511 614 l 5,9,-1
 384 614 l 5,10,-1
 384 819 l 5,11,-1
 255 819 l 5,12,-1
 255 1024 l 5,13,-1
 511 1024 l 5,14,-1
 511 819 l 5,15,-1
 640 819 l 5,16,-1
 640 614 l 5,17,-1
 768 614 l 5,18,-1
 768 409 l 5,19,-1
 895 409 l 5,20,-1
 895 614 l 5,21,-1
 1024 614 l 5,22,-1
 1024 819 l 5,23,-1
 1151 819 l 5,24,-1
 1151 1024 l 5,25,26
 1152 1024 1152 1024 1408 1024 c 5,27,-1
 1408 819 l 5,28,-1
 1280 819 l 5,29,-1
 1280 614 l 5,30,-1
 1151 614 l 5,31,-1
 1151 409 l 5,32,-1
 1024 409 l 5,33,-1
 1024 204 l 5,34,-1
 895 204 l 5,35,-1
 895 0 l 5,36,37
 895 0 895 0 768 0 c 5,38,39
 768 0 768 0 767 -204 c 5,40,41
 767 -204 767 -204 640 -204 c 5,42,-1
 640 -408 l 5,43,-1
 256 -408 l 5,0,-1
EndSplineSet
Validated: 1
EndChar

StartChar: z
Encoding: 122 122 91
Width: 1535
GlyphClass: 1
Flags: W
LayerCount: 2
Fore
SplineSet
255 0 m 1,0,-1
 255 204 l 1,1,-1
 511.25 204 l 1,2,-1
 511.25 409 l 1,3,-1
 640 409 l 1,4,-1
 640 614 l 1,5,-1
 895 614 l 1,6,-1
 895 819 l 1,7,-1
 255 819 l 1,8,-1
 255 1024 l 1,9,-1
 1407.5 1024 l 1,10,-1
 1407.5 819 l 1,11,-1
 1151.25 819 l 1,12,-1
 1151.25 614 l 1,13,-1
 1023.75 614 l 1,14,-1
 1023.75 409 l 1,15,-1
 767.5 409 l 1,16,-1
 767.5 204 l 1,17,-1
 1407.5 204 l 1,18,-1
 1407.5 0 l 1,19,-1
 255 0 l 1,0,-1
EndSplineSet
Validated: 1
EndChar

StartChar: braceleft
Encoding: 123 123 92
Width: 1535
GlyphClass: 1
Flags: W
LayerCount: 2
Fore
SplineSet
767.5 -204 m 1,0,-1
 767.5 0 l 1,1,-1
 640 0 l 1,2,-1
 640 614 l 1,3,-1
 511.25 614 l 1,4,-1
 511.25 819 l 1,5,-1
 640 819 l 1,6,-1
 640 1433 l 1,7,-1
 767.5 1433 l 1,8,-1
 767.5 1638 l 1,9,-1
 1151.25 1638 l 1,10,-1
 1151.25 1433 l 1,11,-1
 895 1433 l 1,12,-1
 895 819 l 1,13,-1
 767.5 819 l 1,14,-1
 767.5 614 l 1,15,-1
 895 614 l 1,16,-1
 895 0 l 1,17,-1
 1151.25 0 l 1,18,-1
 1151.25 -204 l 1,19,-1
 767.5 -204 l 1,0,-1
EndSplineSet
Validated: 1
EndChar

StartChar: bar
Encoding: 124 124 93
Width: 1535
GlyphClass: 1
Flags: W
LayerCount: 2
Fore
SplineSet
640 0 m 1,0,-1
 640 1433 l 1,1,-1
 895 1433 l 1,2,-1
 895 0 l 1,3,-1
 640 0 l 1,0,-1
EndSplineSet
Validated: 1
EndChar

StartChar: braceright
Encoding: 125 125 94
Width: 1535
GlyphClass: 1
Flags: W
LayerCount: 2
Fore
SplineSet
383.75 -204 m 1,0,-1
 383.75 0 l 1,1,-1
 640 0 l 1,2,-1
 640 614 l 1,3,-1
 767.5 614 l 1,4,-1
 767.5 819 l 1,5,-1
 640 819 l 1,6,-1
 640 1433 l 1,7,-1
 383.75 1433 l 1,8,-1
 383.75 1638 l 1,9,-1
 767.5 1638 l 1,10,-1
 767.5 1433 l 1,11,-1
 895 1433 l 1,12,-1
 895 819 l 1,13,-1
 1023.75 819 l 1,14,-1
 1023.75 614 l 1,15,-1
 895 614 l 1,16,-1
 895 0 l 1,17,-1
 767.5 0 l 1,18,-1
 767.5 -204 l 1,19,-1
 383.75 -204 l 1,0,-1
EndSplineSet
Validated: 1
EndChar

StartChar: asciitilde
Encoding: 126 126 95
Width: 1535
GlyphClass: 1
Flags: W
LayerCount: 2
Fore
SplineSet
255 1024 m 1,0,-1
 255 1228 l 1,1,-1
 383.75 1228 l 1,2,-1
 383.75 1433 l 1,3,-1
 895 1433 l 1,4,-1
 895 1228 l 1,5,-1
 1151.25 1228 l 1,6,-1
 1151.25 1433 l 1,7,-1
 1407.5 1433 l 1,8,-1
 1407.5 1228 l 1,9,-1
 1280 1228 l 1,10,-1
 1280 1024 l 1,11,-1
 767.5 1024 l 1,12,-1
 767.5 1228 l 1,13,-1
 511.25 1228 l 1,14,-1
 511.25 1024 l 1,15,-1
 255 1024 l 1,0,-1
EndSplineSet
Validated: 1
EndChar

StartChar: exclamdown
Encoding: 161 161 97
Width: 1535
GlyphClass: 1
Flags: W
LayerCount: 2
Fore
SplineSet
640 0 m 1,0,-1
 640 1024 l 1,1,-1
 895 1024 l 1,2,-1
 895 0 l 1,3,-1
 640 0 l 1,0,-1
640 1228 m 1,4,-1
 640 1433 l 1,5,-1
 895 1433 l 1,6,-1
 895 1228 l 1,7,-1
 640 1228 l 1,4,-1
EndSplineSet
Validated: 1
EndChar

StartChar: cent
Encoding: 162 162 98
Width: 1535
GlyphClass: 1
Flags: W
LayerCount: 2
Fore
SplineSet
640 204 m 1,0,-1
 640 819 l 1,1,-1
 383.75 819 l 1,2,-1
 383.75 204 l 1,3,-1
 640 204 l 1,0,-1
640 -409 m 1,4,-1
 640 0 l 1,5,-1
 255 0 l 1,6,-1
 255 204 l 1,7,-1
 127.5 204 l 1,8,-1
 127.5 819 l 1,9,-1
 255 819 l 1,10,-1
 255 1024 l 1,11,-1
 640 1024 l 1,12,-1
 640 1433 l 1,13,-1
 895 1433 l 1,14,-1
 895 1024 l 1,15,-1
 1280 1024 l 1,16,-1
 1280 819 l 1,17,-1
 1407.5 819 l 1,18,-1
 1407.5 614 l 1,19,-1
 1151.25 614 l 1,20,-1
 1151.25 819 l 1,21,-1
 895 819 l 1,22,-1
 895 204 l 1,23,-1
 1407.5 204 l 1,24,-1
 1407.5 0 l 1,25,-1
 895 0 l 1,26,-1
 895 -409 l 1,27,-1
 640 -409 l 1,4,-1
EndSplineSet
Validated: 1
EndChar

StartChar: sterling
Encoding: 163 163 99
Width: 1535
GlyphClass: 1
Flags: W
LayerCount: 2
Fore
SplineSet
255 0 m 1,0,-1
 255 409 l 1,1,-1
 511.25 409 l 1,2,-1
 511.25 614 l 1,3,-1
 255 614 l 1,4,-1
 255 819 l 1,5,-1
 511.25 819 l 1,6,-1
 511.25 1024 l 1,7,-1
 383.75 1024 l 1,8,-1
 383.75 1228 l 1,9,-1
 511.25 1228 l 1,10,-1
 511.25 1433 l 1,11,-1
 1280 1433 l 1,12,-1
 1280 1228 l 1,13,-1
 1407.5 1228 l 1,14,-1
 1407.5 1024 l 1,15,-1
 1151.25 1024 l 1,16,-1
 1151.25 1228 l 1,17,-1
 640 1228 l 1,18,-1
 640 1024 l 1,19,-1
 767.5 1024 l 1,20,-1
 767.5 819 l 1,21,-1
 1023.75 819 l 1,22,-1
 1023.75 614 l 1,23,-1
 767.5 614 l 1,24,-1
 767.5 409 l 1,25,-1
 895 409 l 1,26,-1
 895 204 l 1,27,-1
 1151.25 204 l 1,28,-1
 1151.25 409 l 1,29,-1
 1407.5 409 l 1,30,-1
 1407.5 204 l 1,31,-1
 1280 204 l 1,32,-1
 1280 0 l 1,33,-1
 767.5 0 l 1,34,-1
 767.5 204 l 1,35,-1
 511.25 204 l 1,36,-1
 511.25 0 l 1,37,-1
 255 0 l 1,0,-1
EndSplineSet
Validated: 1
EndChar

StartChar: currency
Encoding: 164 164 100
Width: 1535
GlyphClass: 1
Flags: W
LayerCount: 2
Fore
SplineSet
1023.75 409 m 1,0,-1
 1023.75 819 l 1,1,-1
 511.25 819 l 1,2,-1
 511.25 409 l 1,3,-1
 1023.75 409 l 1,0,-1
255 0 m 1,4,-1
 255 204 l 1,5,-1
 383.75 204 l 1,6,-1
 383.75 409 l 1,7,-1
 255 409 l 1,8,-1
 255 819 l 1,9,-1
 383.75 819 l 1,10,-1
 383.75 1024 l 1,11,-1
 255 1024 l 1,12,-1
 255 1228 l 1,13,-1
 511.25 1228 l 1,14,-1
 511.25 1024 l 1,15,-1
 1023.75 1024 l 1,16,-1
 1023.75 1228 l 1,17,-1
 1280 1228 l 1,18,-1
 1280 1024 l 1,19,-1
 1151.25 1024 l 1,20,-1
 1151.25 819 l 1,21,-1
 1280 819 l 1,22,-1
 1280 409 l 1,23,-1
 1151.25 409 l 1,24,-1
 1151.25 204 l 1,25,-1
 1280 204 l 1,26,-1
 1280 0 l 1,27,-1
 1023.75 0 l 1,28,-1
 1023.75 204 l 1,29,-1
 511.25 204 l 1,30,-1
 511.25 0 l 1,31,-1
 255 0 l 1,4,-1
EndSplineSet
Validated: 1
EndChar

StartChar: yen
Encoding: 165 165 101
Width: 1535
GlyphClass: 1
Flags: W
LayerCount: 2
Fore
SplineSet
640 0 m 1,0,-1
 640 409 l 1,1,-1
 383.75 409 l 1,2,-1
 383.75 614 l 1,3,-1
 640 614 l 1,4,-1
 640 819 l 1,5,-1
 511.25 819 l 1,6,-1
 511.25 1024 l 1,7,-1
 383.75 1024 l 1,8,-1
 383.75 1228 l 1,9,-1
 255 1228 l 1,10,-1
 255 1433 l 1,11,-1
 511.25 1433 l 1,12,-1
 511.25 1228 l 1,13,-1
 640 1228 l 1,14,-1
 640 1024 l 1,15,-1
 895 1024 l 1,16,-1
 895 1228 l 1,17,-1
 1023.75 1228 l 1,18,-1
 1023.75 1433 l 1,19,-1
 1280 1433 l 1,20,-1
 1280 1228 l 1,21,-1
 1151.25 1228 l 1,22,-1
 1151.25 1024 l 1,23,-1
 1023.75 1024 l 1,24,-1
 1023.75 819 l 1,25,-1
 895 819 l 1,26,-1
 895 614 l 1,27,-1
 1151.25 614 l 1,28,-1
 1151.25 409 l 1,29,-1
 895 409 l 1,30,-1
 895 0 l 1,31,-1
 640 0 l 1,0,-1
EndSplineSet
Validated: 1
EndChar

StartChar: brokenbar
Encoding: 166 166 102
Width: 1535
GlyphClass: 1
Flags: W
LayerCount: 2
Fore
SplineSet
640 0 m 1,0,-1
 640 614 l 1,1,-1
 895 614 l 1,2,-1
 895 0 l 1,3,-1
 640 0 l 1,0,-1
640 819 m 1,4,-1
 640 1433 l 1,5,-1
 895 1433 l 1,6,-1
 895 819 l 1,7,-1
 640 819 l 1,4,-1
EndSplineSet
Validated: 1
EndChar

StartChar: section
Encoding: 167 167 103
Width: 1535
GlyphClass: 1
Flags: W
LayerCount: 2
Fore
SplineSet
1023.75 614 m 1,0,-1
 1023.75 819 l 1,1,-1
 511.25 819 l 1,2,-1
 511.25 614 l 1,3,-1
 1023.75 614 l 1,0,-1
383.75 -204 m 1,4,-1
 383.75 0 l 1,5,-1
 255 0 l 1,6,-1
 255 204 l 1,7,-1
 511.25 204 l 1,8,-1
 511.25 0 l 1,9,-1
 1023.75 0 l 1,10,-1
 1023.75 409 l 1,11,-1
 383.75 409 l 1,12,-1
 383.75 614 l 1,13,-1
 255 614 l 1,14,-1
 255 819 l 1,15,-1
 383.75 819 l 1,16,-1
 383.75 1024 l 1,17,-1
 255 1024 l 1,18,-1
 255 1433 l 1,19,-1
 383.75 1433 l 1,20,-1
 383.75 1638 l 1,21,-1
 1151.25 1638 l 1,22,-1
 1151.25 1433 l 1,23,-1
 1280 1433 l 1,24,-1
 1280 1228 l 1,25,-1
 1023.75 1228 l 1,26,-1
 1023.75 1433 l 1,27,-1
 511.25 1433 l 1,28,-1
 511.25 1024 l 1,29,-1
 1151.25 1024 l 1,30,-1
 1151.25 819 l 1,31,-1
 1280 819 l 1,32,-1
 1280 614 l 1,33,-1
 1151.25 614 l 1,34,-1
 1151.25 409 l 1,35,-1
 1280 409 l 1,36,-1
 1280 0 l 1,37,-1
 1151.25 0 l 1,38,-1
 1151.25 -204 l 1,39,-1
 383.75 -204 l 1,4,-1
EndSplineSet
Validated: 1
EndChar

StartChar: dieresis
Encoding: 168 168 104
Width: 1535
GlyphClass: 1
Flags: W
LayerCount: 2
Fore
SplineSet
383.75 1433 m 1,0,-1
 383.75 1638 l 1,1,-1
 640 1638 l 1,2,-1
 640 1433 l 1,3,-1
 383.75 1433 l 1,0,-1
1023.75 1433 m 1,4,-1
 1023.75 1638 l 1,5,-1
 1280 1638 l 1,6,-1
 1280 1433 l 1,7,-1
 1023.75 1433 l 1,4,-1
EndSplineSet
Validated: 1
EndChar

StartChar: copyright
Encoding: 169 169 105
Width: 1535
GlyphClass: 1
Flags: W
LayerCount: 2
Fore
SplineSet
383.75 -204 m 1,0,-1
 383.75 0 l 1,1,-1
 1280 0 l 1,2,-1
 1280 -204 l 1,3,-1
 383.75 -204 l 1,0,-1
255 0 m 1,4,-1
 255 204 l 1,5,-1
 383.75 204 l 1,6,-1
 383.75 0 l 1,7,-1
 255 0 l 1,4,-1
1280 0 m 1,8,-1
 1280 204 l 1,9,-1
 1407.5 204 l 1,10,-1
 1407.5 0 l 1,11,-1
 1280 0 l 1,8,-1
640 204 m 1,12,-1
 640 409 l 1,13,-1
 1023.75 409 l 1,14,-1
 1023.75 204 l 1,15,-1
 640 204 l 1,12,-1
1023.75 409 m 1,16,-1
 1023.75 614 l 1,17,-1
 1151.25 614 l 1,18,-1
 1151.25 409 l 1,19,-1
 1023.75 409 l 1,16,-1
511.25 409 m 1,20,-1
 511.25 1024 l 1,21,-1
 640 1024 l 1,22,-1
 640 409 l 1,23,-1
 511.25 409 l 1,20,-1
1023.75 819 m 1,24,-1
 1023.75 1024 l 1,25,-1
 1151.25 1024 l 1,26,-1
 1151.25 819 l 1,27,-1
 1023.75 819 l 1,24,-1
127.5 204 m 1,28,-1
 127.5 1228 l 1,29,-1
 255 1228 l 1,30,-1
 255 204 l 1,31,-1
 127.5 204 l 1,28,-1
640 1024 m 1,32,-1
 640 1228 l 1,33,-1
 1023.75 1228 l 1,34,-1
 1023.75 1024 l 1,35,-1
 640 1024 l 1,32,-1
1407.5 204 m 1,36,-1
 1407.5 1228 l 1,37,-1
 1535 1228 l 1,38,-1
 1535 204 l 1,39,-1
 1407.5 204 l 1,36,-1
255 1228 m 1,40,-1
 255 1433 l 1,41,-1
 383.75 1433 l 1,42,-1
 383.75 1228 l 1,43,-1
 255 1228 l 1,40,-1
1280 1228 m 1,44,-1
 1280 1433 l 1,45,-1
 1407.5 1433 l 1,46,-1
 1407.5 1228 l 1,47,-1
 1280 1228 l 1,44,-1
383.75 1433 m 1,48,-1
 383.75 1638 l 1,49,-1
 1280 1638 l 1,50,-1
 1280 1433 l 1,51,-1
 383.75 1433 l 1,48,-1
EndSplineSet
Validated: 5
EndChar

StartChar: ordfeminine
Encoding: 170 170 106
Width: 1535
GlyphClass: 1
Flags: W
LayerCount: 2
Fore
SplineSet
255 0 m 1,0,-1
 255 204 l 1,1,-1
 1407.5 204 l 1,2,-1
 1407.5 0 l 1,3,-1
 255 0 l 1,0,-1
1023.75 614 m 1,4,-1
 1023.75 819 l 1,5,-1
 511.25 819 l 1,6,-1
 511.25 614 l 1,7,-1
 1023.75 614 l 1,4,-1
383.75 409 m 1,8,-1
 383.75 614 l 1,9,-1
 255 614 l 1,10,-1
 255 819 l 1,11,-1
 383.75 819 l 1,12,-1
 383.75 1024 l 1,13,-1
 1023.75 1024 l 1,14,-1
 1023.75 1228 l 1,15,-1
 383.75 1228 l 1,16,-1
 383.75 1433 l 1,17,-1
 1151.25 1433 l 1,18,-1
 1151.25 1228 l 1,19,-1
 1280 1228 l 1,20,-1
 1280 614 l 1,21,-1
 1407.5 614 l 1,22,-1
 1407.5 409 l 1,23,-1
 383.75 409 l 1,8,-1
EndSplineSet
Validated: 1
EndChar

StartChar: guillemotleft
Encoding: 171 171 107
Width: 1535
GlyphClass: 1
Flags: W
LayerCount: 2
Fore
SplineSet
383.75 204 m 1,0,-1
 383.75 409 l 1,1,-1
 255 409 l 1,2,-1
 255 614 l 1,3,-1
 127.5 614 l 1,4,-1
 127.5 819 l 1,5,-1
 255 819 l 1,6,-1
 255 1024 l 1,7,-1
 383.75 1024 l 1,8,-1
 383.75 1228 l 1,9,-1
 640 1228 l 1,10,-1
 640 1024 l 1,11,-1
 511.25 1024 l 1,12,-1
 511.25 819 l 1,13,-1
 383.75 819 l 1,14,-1
 383.75 614 l 1,15,-1
 511.25 614 l 1,16,-1
 511.25 409 l 1,17,-1
 640 409 l 1,18,-1
 640 204 l 1,19,-1
 383.75 204 l 1,0,-1
895 204 m 1,20,-1
 895 409 l 1,21,-1
 767.5 409 l 1,22,-1
 767.5 614 l 1,23,-1
 640 614 l 1,24,-1
 640 819 l 1,25,-1
 767.5 819 l 1,26,-1
 767.5 1024 l 1,27,-1
 895 1024 l 1,28,-1
 895 1228 l 1,29,-1
 1151.25 1228 l 1,30,-1
 1151.25 1024 l 1,31,-1
 1023.75 1024 l 1,32,-1
 1023.75 819 l 1,33,-1
 895 819 l 1,34,-1
 895 614 l 1,35,-1
 1023.75 614 l 1,36,-1
 1023.75 409 l 1,37,-1
 1151.25 409 l 1,38,-1
 1151.25 204 l 1,39,-1
 895 204 l 1,20,-1
EndSplineSet
Validated: 1
EndChar

StartChar: logicalnot
Encoding: 172 172 108
Width: 1535
GlyphClass: 1
Flags: W
LayerCount: 2
Fore
SplineSet
1023.75 409 m 1,0,-1
 1023.75 614 l 1,1,-1
 255 614 l 1,2,-1
 255 819 l 1,3,-1
 1280 819 l 1,4,-1
 1280 409 l 1,5,-1
 1023.75 409 l 1,0,-1
EndSplineSet
Validated: 1
EndChar

StartChar: uni00AD
Encoding: 173 173 109
Width: 1535
GlyphClass: 1
Flags: W
LayerCount: 2
Fore
SplineSet
255 614 m 1,0,-1
 255 819 l 1,1,-1
 1280 819 l 1,2,-1
 1280 614 l 1,3,-1
 255 614 l 1,0,-1
EndSplineSet
Validated: 1
EndChar

StartChar: registered
Encoding: 174 174 110
Width: 1535
GlyphClass: 1
Flags: W
LayerCount: 2
Fore
SplineSet
383.75 -204 m 1,0,-1
 383.75 0 l 1,1,-1
 1280 0 l 1,2,-1
 1280 -204 l 1,3,-1
 383.75 -204 l 1,0,-1
255 0 m 1,4,-1
 255 204 l 1,5,-1
 383.75 204 l 1,6,-1
 383.75 0 l 1,7,-1
 255 0 l 1,4,-1
1280 0 m 1,8,-1
 1280 204 l 1,9,-1
 1407.5 204 l 1,10,-1
 1407.5 0 l 1,11,-1
 1280 0 l 1,8,-1
1023.75 819 m 1,12,-1
 1023.75 1024 l 1,13,-1
 640 1024 l 1,14,-1
 640 819 l 1,15,-1
 1023.75 819 l 1,12,-1
127.5 204 m 1,16,-1
 127.5 1228 l 1,17,-1
 255 1228 l 1,18,-1
 255 204 l 1,19,-1
 127.5 204 l 1,16,-1
511.25 204 m 1,20,-1
 511.25 1228 l 1,21,-1
 1151.25 1228 l 1,22,-1
 1151.25 1024 l 1,23,-1
 1280 1024 l 1,24,-1
 1280 819 l 1,25,-1
 1151.25 819 l 1,26,-1
 1151.25 409 l 1,27,-1
 1280 409 l 1,28,-1
 1280 204 l 1,29,-1
 1023.75 204 l 1,30,-1
 1023.75 614 l 1,31,-1
 640 614 l 1,32,-1
 640 204 l 1,33,-1
 511.25 204 l 1,20,-1
1407.5 204 m 1,34,-1
 1407.5 1228 l 1,35,-1
 1535 1228 l 1,36,-1
 1535 204 l 1,37,-1
 1407.5 204 l 1,34,-1
255 1228 m 1,38,-1
 255 1433 l 1,39,-1
 383.75 1433 l 1,40,-1
 383.75 1228 l 1,41,-1
 255 1228 l 1,38,-1
1280 1228 m 1,42,-1
 1280 1433 l 1,43,-1
 1407.5 1433 l 1,44,-1
 1407.5 1228 l 1,45,-1
 1280 1228 l 1,42,-1
383.75 1433 m 1,46,-1
 383.75 1638 l 1,47,-1
 1280 1638 l 1,48,-1
 1280 1433 l 1,49,-1
 383.75 1433 l 1,46,-1
EndSplineSet
Validated: 5
EndChar

StartChar: macron
Encoding: 175 175 111
Width: 1535
GlyphClass: 1
Flags: W
LayerCount: 2
Fore
SplineSet
383.75 1433 m 1,0,-1
 383.75 1638 l 1,1,-1
 1280 1638 l 1,2,-1
 1280 1433 l 1,3,-1
 383.75 1433 l 1,0,-1
EndSplineSet
Validated: 1
EndChar

StartChar: degree
Encoding: 176 176 112
Width: 1535
GlyphClass: 1
Flags: W
LayerCount: 2
Fore
SplineSet
767.5 1024 m 1,0,-1
 767.5 1228 l 1,1,-1
 511.25 1228 l 1,2,-1
 511.25 1024 l 1,3,-1
 767.5 1024 l 1,0,-1
383.75 819 m 1,4,-1
 383.75 1024 l 1,5,-1
 255 1024 l 1,6,-1
 255 1228 l 1,7,-1
 383.75 1228 l 1,8,-1
 383.75 1433 l 1,9,-1
 895 1433 l 1,10,-1
 895 1228 l 1,11,-1
 1023.75 1228 l 1,12,-1
 1023.75 1024 l 1,13,-1
 895 1024 l 1,14,-1
 895 819 l 1,15,-1
 383.75 819 l 1,4,-1
EndSplineSet
Validated: 1
EndChar

StartChar: plusminus
Encoding: 177 177 113
Width: 1535
GlyphClass: 1
Flags: W
LayerCount: 2
Fore
SplineSet
255 0 m 1,0,-1
 255 204 l 1,1,-1
 1280 204 l 1,2,-1
 1280 0 l 1,3,-1
 255 0 l 1,0,-1
640 409 m 1,4,-1
 640 819 l 1,5,-1
 255 819 l 1,6,-1
 255 1024 l 1,7,-1
 640 1024 l 1,8,-1
 640 1433 l 1,9,-1
 895 1433 l 1,10,-1
 895 1024 l 1,11,-1
 1280 1024 l 1,12,-1
 1280 819 l 1,13,-1
 895 819 l 1,14,-1
 895 409 l 1,15,-1
 640 409 l 1,4,-1
EndSplineSet
Validated: 1
EndChar

StartChar: uni00B2
Encoding: 178 178 114
Width: 1535
GlyphClass: 1
Flags: W
LayerCount: 2
Fore
SplineSet
255 409 m 1,0,-1
 255 614 l 1,1,-1
 383.75 614 l 1,2,-1
 383.75 819 l 1,3,-1
 511.25 819 l 1,4,-1
 511.25 1024 l 1,5,-1
 640 1024 l 1,6,-1
 640 1228 l 1,7,-1
 255 1228 l 1,8,-1
 255 1433 l 1,9,-1
 767.5 1433 l 1,10,-1
 767.5 1228 l 1,11,-1
 895 1228 l 1,12,-1
 895 1024 l 1,13,-1
 767.5 1024 l 1,14,-1
 767.5 819 l 1,15,-1
 640 819 l 1,16,-1
 640 614 l 1,17,-1
 1023.75 614 l 1,18,-1
 1023.75 409 l 1,19,-1
 255 409 l 1,0,-1
EndSplineSet
Validated: 1
EndChar

StartChar: uni00B3
Encoding: 179 179 115
Width: 1535
GlyphClass: 1
Flags: W
LayerCount: 2
Fore
SplineSet
255 409 m 1,0,-1
 255 614 l 1,1,-1
 640 614 l 1,2,-1
 640 819 l 1,3,-1
 383.75 819 l 1,4,-1
 383.75 1024 l 1,5,-1
 640 1024 l 1,6,-1
 640 1228 l 1,7,-1
 255 1228 l 1,8,-1
 255 1433 l 1,9,-1
 767.5 1433 l 1,10,-1
 767.5 1228 l 1,11,-1
 895 1228 l 1,12,-1
 895 1024 l 1,13,-1
 767.5 1024 l 1,14,-1
 767.5 819 l 1,15,-1
 895 819 l 1,16,-1
 895 614 l 1,17,-1
 767.5 614 l 1,18,-1
 767.5 409 l 1,19,-1
 255 409 l 1,0,-1
EndSplineSet
Validated: 1
EndChar

StartChar: acute
Encoding: 180 180 116
Width: 1535
GlyphClass: 1
Flags: W
LayerCount: 2
Fore
SplineSet
640 1024 m 1,0,-1
 640 1228 l 1,1,-1
 767.5 1228 l 1,2,-1
 767.5 1433 l 1,3,-1
 1023.75 1433 l 1,4,-1
 1023.75 1228 l 1,5,-1
 895 1228 l 1,6,-1
 895 1024 l 1,7,-1
 640 1024 l 1,0,-1
EndSplineSet
Validated: 1
EndChar

StartChar: mu
Encoding: 181 181 117
Width: 1535
GlyphClass: 1
Flags: W
LayerCount: 2
Fore
SplineSet
127.5 -409 m 1,0,-1
 127.5 1024 l 1,1,-1
 383.75 1024 l 1,2,-1
 383.75 204 l 1,3,-1
 895 204 l 1,4,-1
 895 0 l 1,5,-1
 383.75 0 l 1,6,-1
 383.75 -409 l 1,7,-1
 127.5 -409 l 1,0,-1
1023.75 0 m 1,8,-1
 1023.75 204 l 1,9,-1
 895 204 l 1,10,-1
 895 1024 l 1,11,-1
 1151.25 1024 l 1,12,-1
 1151.25 204 l 1,13,-1
 1280 204 l 1,14,-1
 1280 0 l 1,15,-1
 1023.75 0 l 1,8,-1
EndSplineSet
Validated: 5
EndChar

StartChar: paragraph
Encoding: 182 182 118
Width: 1535
GlyphClass: 1
Flags: W
LayerCount: 2
Fore
SplineSet
640 819 m 1,0,-1
 640 1228 l 1,1,-1
 383.75 1228 l 1,2,-1
 383.75 819 l 1,3,-1
 640 819 l 1,0,-1
640 -409 m 1,4,-1
 640 614 l 1,5,-1
 255 614 l 1,6,-1
 255 819 l 1,7,-1
 127.5 819 l 1,8,-1
 127.5 1228 l 1,9,-1
 255 1228 l 1,10,-1
 255 1433 l 1,11,-1
 1535 1433 l 1,12,-1
 1535 1024 l 1,13,-1
 1407.5 1024 l 1,14,-1
 1407.5 -409 l 1,15,-1
 1151.25 -409 l 1,16,-1
 1151.25 1228 l 1,17,-1
 895 1228 l 1,18,-1
 895 -409 l 1,19,-1
 640 -409 l 1,4,-1
EndSplineSet
Validated: 1
EndChar

StartChar: periodcentered
Encoding: 183 183 119
Width: 1535
GlyphClass: 1
Flags: W
LayerCount: 2
Fore
SplineSet
640 614 m 1,0,-1
 640 819 l 5,1,-1
 895 819 l 1,2,-1
 895 614 l 1,3,-1
 640 614 l 1,0,-1
EndSplineSet
Validated: 1
EndChar

StartChar: cedilla
Encoding: 184 184 120
Width: 1535
GlyphClass: 1
Flags: W
LayerCount: 2
Fore
SplineSet
511.25 -409 m 5,0,-1
 511.25 -204 l 5,1,-1
 640 -204 l 5,2,-1
 640 0 l 5,3,-1
 895 0 l 5,4,-1
 895 -409 l 5,5,-1
 511.25 -409 l 5,0,-1
EndSplineSet
Validated: 1
EndChar

StartChar: uni00B9
Encoding: 185 185 121
Width: 1535
GlyphClass: 1
Flags: W
LayerCount: 2
Fore
SplineSet
640 409 m 1,0,-1
 640 1024 l 1,1,-1
 511.25 1024 l 1,2,-1
 511.25 1228 l 1,3,-1
 640 1228 l 1,4,-1
 640 1433 l 1,5,-1
 895 1433 l 1,6,-1
 895 409 l 1,7,-1
 640 409 l 1,0,-1
EndSplineSet
Validated: 1
EndChar

StartChar: ordmasculine
Encoding: 186 186 122
Width: 1535
GlyphClass: 1
Flags: W
LayerCount: 2
Fore
SplineSet
383.75 0 m 1,0,-1
 383.75 204 l 1,1,-1
 1407.5 204 l 1,2,-1
 1407.5 0 l 1,3,-1
 383.75 0 l 1,0,-1
1151.25 614 m 1,4,-1
 1151.25 1228 l 1,5,-1
 640 1228 l 1,6,-1
 640 614 l 1,7,-1
 1151.25 614 l 1,4,-1
511.25 409 m 1,8,-1
 511.25 614 l 1,9,-1
 383.75 614 l 1,10,-1
 383.75 1228 l 1,11,-1
 511.25 1228 l 1,12,-1
 511.25 1433 l 1,13,-1
 1280 1433 l 1,14,-1
 1280 1228 l 1,15,-1
 1407.5 1228 l 1,16,-1
 1407.5 614 l 1,17,-1
 1280 614 l 1,18,-1
 1280 409 l 1,19,-1
 511.25 409 l 1,8,-1
EndSplineSet
Validated: 1
EndChar

StartChar: guillemotright
Encoding: 187 187 123
Width: 1535
GlyphClass: 1
Flags: W
LayerCount: 2
Fore
SplineSet
255 204 m 1,0,-1
 255 409 l 1,1,-1
 383.75 409 l 1,2,-1
 383.75 614 l 1,3,-1
 511.25 614 l 1,4,-1
 511.25 819 l 1,5,-1
 383.75 819 l 1,6,-1
 383.75 1024 l 1,7,-1
 255 1024 l 1,8,-1
 255 1228 l 1,9,-1
 511.25 1228 l 1,10,-1
 511.25 1024 l 1,11,-1
 640 1024 l 1,12,-1
 640 819 l 1,13,-1
 767.5 819 l 1,14,-1
 767.5 614 l 1,15,-1
 640 614 l 1,16,-1
 640 409 l 1,17,-1
 511.25 409 l 1,18,-1
 511.25 204 l 1,19,-1
 255 204 l 1,0,-1
767.5 204 m 1,20,-1
 767.5 409 l 1,21,-1
 895 409 l 1,22,-1
 895 614 l 1,23,-1
 1023.75 614 l 1,24,-1
 1023.75 819 l 1,25,-1
 895 819 l 1,26,-1
 895 1024 l 1,27,-1
 767.5 1024 l 1,28,-1
 767.5 1228 l 1,29,-1
 1023.75 1228 l 1,30,-1
 1023.75 1024 l 1,31,-1
 1151.25 1024 l 1,32,-1
 1151.25 819 l 1,33,-1
 1280 819 l 1,34,-1
 1280 614 l 1,35,-1
 1151.25 614 l 1,36,-1
 1151.25 409 l 1,37,-1
 1023.75 409 l 1,38,-1
 1023.75 204 l 1,39,-1
 767.5 204 l 1,20,-1
EndSplineSet
Validated: 1
EndChar

StartChar: onequarter
Encoding: 188 188 124
Width: 1535
GlyphClass: 1
Flags: W
LayerCount: 2
Fore
SplineSet
255 -204 m 1,0,-1
 255 0 l 1,1,-1
 383.75 0 l 1,2,-1
 383.75 -204 l 1,3,-1
 255 -204 l 1,0,-1
383.75 0 m 1,4,-1
 383.75 204 l 1,5,-1
 511.25 204 l 1,6,-1
 511.25 0 l 1,7,-1
 383.75 0 l 1,4,-1
511.25 204 m 1,8,-1
 511.25 409 l 1,9,-1
 640 409 l 1,10,-1
 640 204 l 1,11,-1
 511.25 204 l 1,8,-1
640 409 m 1,12,-1
 640 614 l 1,13,-1
 767.5 614 l 1,14,-1
 767.5 409 l 1,15,-1
 640 409 l 1,12,-1
1023.75 409 m 1,16,-1
 1023.75 614 l 1,17,-1
 1151.25 614 l 1,18,-1
 1151.25 409 l 1,19,-1
 1023.75 409 l 1,16,-1
767.5 614 m 1,20,-1
 767.5 819 l 1,21,-1
 895 819 l 1,22,-1
 895 614 l 1,23,-1
 767.5 614 l 1,20,-1
1280 -204 m 1,24,-1
 1280 0 l 1,25,-1
 767.5 0 l 1,26,-1
 767.5 204 l 1,27,-1
 895 204 l 1,28,-1
 895 409 l 1,29,-1
 1023.75 409 l 1,30,-1
 1023.75 204 l 1,31,-1
 1280 204 l 1,32,-1
 1280 614 l 1,33,-1
 1151.25 614 l 1,34,-1
 1151.25 819 l 1,35,-1
 1535 819 l 1,36,-1
 1535 -204 l 1,37,-1
 1280 -204 l 1,24,-1
895 819 m 1,38,-1
 895 1024 l 1,39,-1
 1023.75 1024 l 1,40,-1
 1023.75 819 l 1,41,-1
 895 819 l 1,38,-1
1023.75 1024 m 1,42,-1
 1023.75 1228 l 1,43,-1
 1151.25 1228 l 1,44,-1
 1151.25 1024 l 1,45,-1
 1023.75 1024 l 1,42,-1
383.75 614 m 1,46,-1
 383.75 1228 l 1,47,-1
 127.5 1228 l 1,48,-1
 127.5 1433 l 1,49,-1
 640 1433 l 1,50,-1
 640 614 l 1,51,-1
 383.75 614 l 1,46,-1
1151.25 1228 m 1,52,-1
 1151.25 1433 l 1,53,-1
 1280 1433 l 1,54,-1
 1280 1228 l 1,55,-1
 1151.25 1228 l 1,52,-1
EndSplineSet
Validated: 5
EndChar

StartChar: onehalf
Encoding: 189 189 125
Width: 1535
GlyphClass: 1
Flags: W
LayerCount: 2
Fore
SplineSet
255 -204 m 1,0,-1
 255 0 l 1,1,-1
 383.75 0 l 1,2,-1
 383.75 -204 l 1,3,-1
 255 -204 l 1,0,-1
383.75 0 m 1,4,-1
 383.75 204 l 1,5,-1
 511.25 204 l 1,6,-1
 511.25 0 l 1,7,-1
 383.75 0 l 1,4,-1
511.25 204 m 1,8,-1
 511.25 409 l 1,9,-1
 640 409 l 1,10,-1
 640 204 l 1,11,-1
 511.25 204 l 1,8,-1
640 409 m 1,12,-1
 640 614 l 1,13,-1
 767.5 614 l 1,14,-1
 767.5 409 l 1,15,-1
 640 409 l 1,12,-1
895 -204 m 1,16,-1
 895 0 l 1,17,-1
 1023.75 0 l 1,18,-1
 1023.75 204 l 1,19,-1
 1151.25 204 l 1,20,-1
 1151.25 409 l 1,21,-1
 1280 409 l 1,22,-1
 1280 614 l 1,23,-1
 767.5 614 l 1,24,-1
 767.5 819 l 1,25,-1
 895 819 l 1,26,-1
 895 1024 l 1,27,-1
 1023.75 1024 l 1,28,-1
 1023.75 819 l 1,29,-1
 1407.5 819 l 1,30,-1
 1407.5 614 l 1,31,-1
 1535 614 l 1,32,-1
 1535 409 l 1,33,-1
 1407.5 409 l 1,34,-1
 1407.5 204 l 1,35,-1
 1280 204 l 1,36,-1
 1280 0 l 1,37,-1
 1535 0 l 1,38,-1
 1535 -204 l 1,39,-1
 895 -204 l 1,16,-1
1023.75 1024 m 1,40,-1
 1023.75 1228 l 1,41,-1
 1151.25 1228 l 1,42,-1
 1151.25 1024 l 1,43,-1
 1023.75 1024 l 1,40,-1
383.75 614 m 1,44,-1
 383.75 1228 l 1,45,-1
 127.5 1228 l 1,46,-1
 127.5 1433 l 1,47,-1
 640 1433 l 1,48,-1
 640 614 l 1,49,-1
 383.75 614 l 1,44,-1
1151.25 1228 m 1,50,-1
 1151.25 1433 l 1,51,-1
 1280 1433 l 1,52,-1
 1280 1228 l 1,53,-1
 1151.25 1228 l 1,50,-1
EndSplineSet
Validated: 5
EndChar

StartChar: threequarters
Encoding: 190 190 126
Width: 1535
GlyphClass: 1
Flags: W
LayerCount: 2
Fore
SplineSet
255 -204 m 1,0,-1
 255 0 l 1,1,-1
 383.75 0 l 1,2,-1
 383.75 -204 l 1,3,-1
 255 -204 l 1,0,-1
383.75 0 m 1,4,-1
 383.75 204 l 1,5,-1
 511.25 204 l 1,6,-1
 511.25 0 l 1,7,-1
 383.75 0 l 1,4,-1
895 409 m 1,8,-1
 895 614 l 1,9,-1
 1023.75 614 l 1,10,-1
 1023.75 409 l 1,11,-1
 895 409 l 1,8,-1
1151.25 -204 m 1,12,-1
 1151.25 0 l 1,13,-1
 640 0 l 1,14,-1
 640 204 l 1,15,-1
 767.5 204 l 1,16,-1
 767.5 409 l 1,17,-1
 895 409 l 1,18,-1
 895 204 l 1,19,-1
 1151.25 204 l 1,20,-1
 1151.25 614 l 1,21,-1
 1023.75 614 l 1,22,-1
 1023.75 819 l 1,23,-1
 1407.5 819 l 1,24,-1
 1407.5 -204 l 1,25,-1
 1151.25 -204 l 1,12,-1
895 819 m 1,26,-1
 895 1024 l 1,27,-1
 1023.75 1024 l 1,28,-1
 1023.75 819 l 1,29,-1
 895 819 l 1,26,-1
1023.75 1024 m 1,30,-1
 1023.75 1228 l 1,31,-1
 1151.25 1228 l 1,32,-1
 1151.25 1024 l 1,33,-1
 1023.75 1024 l 1,30,-1
511.25 204 m 1,34,-1
 511.25 409 l 1,35,-1
 127.5 409 l 1,36,-1
 127.5 614 l 1,37,-1
 511.25 614 l 1,38,-1
 511.25 819 l 1,39,-1
 255 819 l 1,40,-1
 255 1024 l 1,41,-1
 511.25 1024 l 1,42,-1
 511.25 1228 l 1,43,-1
 127.5 1228 l 1,44,-1
 127.5 1433 l 1,45,-1
 640 1433 l 1,46,-1
 640 1228 l 1,47,-1
 767.5 1228 l 1,48,-1
 767.5 1024 l 1,49,-1
 640 1024 l 1,50,-1
 640 819 l 1,51,-1
 895 819 l 1,52,-1
 895 614 l 1,53,-1
 767.5 614 l 1,54,-1
 767.5 409 l 1,55,-1
 640 409 l 1,56,-1
 640 204 l 1,57,-1
 511.25 204 l 1,34,-1
1151.25 1228 m 1,58,-1
 1151.25 1433 l 1,59,-1
 1280 1433 l 1,60,-1
 1280 1228 l 1,61,-1
 1151.25 1228 l 1,58,-1
EndSplineSet
Validated: 5
EndChar

StartChar: questiondown
Encoding: 191 191 127
Width: 1535
GlyphClass: 1
Flags: W
LayerCount: 2
Fore
SplineSet
383.75 0 m 1,0,-1
 383.75 204 l 1,1,-1
 255 204 l 1,2,-1
 255 614 l 1,3,-1
 383.75 614 l 1,4,-1
 383.75 819 l 1,5,-1
 640 819 l 1,6,-1
 640 614 l 1,7,-1
 511.25 614 l 1,8,-1
 511.25 204 l 1,9,-1
 1023.75 204 l 1,10,-1
 1023.75 409 l 1,11,-1
 1280 409 l 1,12,-1
 1280 204 l 1,13,-1
 1151.25 204 l 1,14,-1
 1151.25 0 l 1,15,-1
 383.75 0 l 1,0,-1
640 819 m 1,16,-1
 640 1024 l 1,17,-1
 895 1024 l 1,18,-1
 895 819 l 1,19,-1
 640 819 l 1,16,-1
640 1228 m 1,20,-1
 640 1433 l 1,21,-1
 895 1433 l 1,22,-1
 895 1228 l 1,23,-1
 640 1228 l 1,20,-1
EndSplineSet
Validated: 5
EndChar

StartChar: Agrave
Encoding: 192 192 128
Width: 1535
GlyphClass: 1
Flags: W
LayerCount: 2
Fore
SplineSet
1151.25 614 m 1,0,-1
 1151.25 819 l 1,1,-1
 1023.75 819 l 1,2,-1
 1023.75 1024 l 1,3,-1
 640 1024 l 1,4,-1
 640 819 l 1,5,-1
 511.25 819 l 1,6,-1
 511.25 614 l 1,7,-1
 1151.25 614 l 1,0,-1
255 0 m 1,8,-1
 255 819 l 1,9,-1
 383.75 819 l 1,10,-1
 383.75 1024 l 1,11,-1
 511.25 1024 l 1,12,-1
 511.25 1228 l 1,13,-1
 640 1228 l 1,14,-1
 640 1433 l 1,15,-1
 511.25 1433 l 1,16,-1
 511.25 1638 l 1,17,-1
 767.5 1638 l 1,18,-1
 767.5 1433 l 1,19,-1
 895 1433 l 1,20,-1
 895 1228 l 1,21,-1
 1151.25 1228 l 1,22,-1
 1151.25 1024 l 1,23,-1
 1280 1024 l 1,24,-1
 1280 819 l 1,25,-1
 1407.5 819 l 1,26,-1
 1407.5 0 l 1,27,-1
 1151.25 0 l 1,28,-1
 1151.25 409 l 1,29,-1
 511.25 409 l 1,30,-1
 511.25 0 l 1,31,-1
 255 0 l 1,8,-1
EndSplineSet
Validated: 1
EndChar

StartChar: Aacute
Encoding: 193 193 129
Width: 1535
GlyphClass: 1
Flags: W
LayerCount: 2
Fore
SplineSet
1151.25 614 m 1,0,-1
 1151.25 819 l 1,1,-1
 1023.75 819 l 1,2,-1
 1023.75 1024 l 1,3,-1
 640 1024 l 1,4,-1
 640 819 l 1,5,-1
 511.25 819 l 1,6,-1
 511.25 614 l 1,7,-1
 1151.25 614 l 1,0,-1
255 0 m 1,8,-1
 255 819 l 1,9,-1
 383.75 819 l 1,10,-1
 383.75 1024 l 1,11,-1
 511.25 1024 l 1,12,-1
 511.25 1228 l 1,13,-1
 767.5 1228 l 1,14,-1
 767.5 1433 l 1,15,-1
 895 1433 l 1,16,-1
 895 1638 l 1,17,-1
 1151.25 1638 l 1,18,-1
 1151.25 1433 l 1,19,-1
 1023.75 1433 l 1,20,-1
 1023.75 1228 l 1,21,-1
 1151.25 1228 l 1,22,-1
 1151.25 1024 l 1,23,-1
 1280 1024 l 1,24,-1
 1280 819 l 1,25,-1
 1407.5 819 l 1,26,-1
 1407.5 0 l 1,27,-1
 1151.25 0 l 1,28,-1
 1151.25 409 l 1,29,-1
 511.25 409 l 1,30,-1
 511.25 0 l 1,31,-1
 255 0 l 1,8,-1
EndSplineSet
Validated: 1
EndChar

StartChar: Acircumflex
Encoding: 194 194 130
Width: 1535
GlyphClass: 1
Flags: W
LayerCount: 2
Fore
SplineSet
1151.25 614 m 1,0,-1
 1151.25 819 l 1,1,-1
 511.25 819 l 1,2,-1
 511.25 614 l 1,3,-1
 1151.25 614 l 1,0,-1
255 0 m 1,4,-1
 255 819 l 1,5,-1
 383.75 819 l 1,6,-1
 383.75 1024 l 1,7,-1
 1280 1024 l 1,8,-1
 1280 819 l 1,9,-1
 1407.5 819 l 1,10,-1
 1407.5 0 l 1,11,-1
 1151.25 0 l 1,12,-1
 1151.25 409 l 1,13,-1
 511.25 409 l 1,14,-1
 511.25 0 l 1,15,-1
 255 0 l 1,4,-1
511.25 1228 m 1,16,-1
 511.25 1433 l 1,17,-1
 640 1433 l 1,18,-1
 640 1638 l 1,19,-1
 1023.75 1638 l 1,20,-1
 1023.75 1433 l 1,21,-1
 1151.25 1433 l 1,22,-1
 1151.25 1228 l 1,23,-1
 895 1228 l 1,24,-1
 895 1433 l 1,25,-1
 767.5 1433 l 1,26,-1
 767.5 1228 l 1,27,-1
 511.25 1228 l 1,16,-1
EndSplineSet
Validated: 1
EndChar

StartChar: Atilde
Encoding: 195 195 131
Width: 1535
GlyphClass: 1
Flags: W
LayerCount: 2
Fore
SplineSet
1151.25 614 m 1,0,-1
 1151.25 819 l 1,1,-1
 511.25 819 l 1,2,-1
 511.25 614 l 1,3,-1
 1151.25 614 l 1,0,-1
255 0 m 1,4,-1
 255 819 l 1,5,-1
 383.75 819 l 1,6,-1
 383.75 1024 l 1,7,-1
 1280 1024 l 1,8,-1
 1280 819 l 1,9,-1
 1407.5 819 l 1,10,-1
 1407.5 0 l 1,11,-1
 1151.25 0 l 1,12,-1
 1151.25 409 l 1,13,-1
 511.25 409 l 1,14,-1
 511.25 0 l 1,15,-1
 255 0 l 1,4,-1
255 1228 m 1,16,-1
 255 1433 l 1,17,-1
 383.75 1433 l 1,18,-1
 383.75 1638 l 1,19,-1
 895 1638 l 1,20,-1
 895 1433 l 1,21,-1
 1151.25 1433 l 1,22,-1
 1151.25 1638 l 1,23,-1
 1407.5 1638 l 1,24,-1
 1407.5 1433 l 1,25,-1
 1280 1433 l 1,26,-1
 1280 1228 l 1,27,-1
 767.5 1228 l 1,28,-1
 767.5 1433 l 1,29,-1
 511.25 1433 l 1,30,-1
 511.25 1228 l 1,31,-1
 255 1228 l 1,16,-1
EndSplineSet
Validated: 1
EndChar

StartChar: Adieresis
Encoding: 196 196 132
Width: 1535
GlyphClass: 1
Flags: W
LayerCount: 2
Fore
SplineSet
1151.25 614 m 1,0,-1
 1151.25 819 l 1,1,-1
 1023.75 819 l 1,2,-1
 1023.75 1024 l 1,3,-1
 640 1024 l 1,4,-1
 640 819 l 1,5,-1
 511.25 819 l 1,6,-1
 511.25 614 l 1,7,-1
 1151.25 614 l 1,0,-1
255 0 m 1,8,-1
 255 819 l 1,9,-1
 383.75 819 l 1,10,-1
 383.75 1024 l 1,11,-1
 511.25 1024 l 1,12,-1
 511.25 1228 l 1,13,-1
 1151.25 1228 l 1,14,-1
 1151.25 1024 l 1,15,-1
 1280 1024 l 1,16,-1
 1280 819 l 1,17,-1
 1407.5 819 l 1,18,-1
 1407.5 0 l 1,19,-1
 1151.25 0 l 1,20,-1
 1151.25 409 l 1,21,-1
 511.25 409 l 1,22,-1
 511.25 0 l 1,23,-1
 255 0 l 1,8,-1
383.75 1433 m 1,24,-1
 383.75 1638 l 1,25,-1
 640 1638 l 1,26,-1
 640 1433 l 1,27,-1
 383.75 1433 l 1,24,-1
1023.75 1433 m 1,28,-1
 1023.75 1638 l 1,29,-1
 1280 1638 l 1,30,-1
 1280 1433 l 1,31,-1
 1023.75 1433 l 1,28,-1
EndSplineSet
Validated: 1
EndChar

StartChar: Aring
Encoding: 197 197 133
Width: 1535
GlyphClass: 1
Flags: W
LayerCount: 2
Fore
SplineSet
1151.25 614 m 1,0,-1
 1151.25 819 l 1,1,-1
 1023.75 819 l 1,2,-1
 1023.75 1024 l 1,3,-1
 640 1024 l 1,4,-1
 640 819 l 1,5,-1
 511.25 819 l 1,6,-1
 511.25 614 l 1,7,-1
 1151.25 614 l 1,0,-1
1023.75 1228 m 1,8,-1
 1023.75 1433 l 1,9,-1
 640 1433 l 1,10,-1
 640 1228 l 1,11,-1
 1023.75 1228 l 1,8,-1
255 0 m 1,12,-1
 255 819 l 1,13,-1
 383.75 819 l 1,14,-1
 383.75 1024 l 1,15,-1
 511.25 1024 l 1,16,-1
 511.25 1228 l 1,17,-1
 383.75 1228 l 1,18,-1
 383.75 1433 l 1,19,-1
 511.25 1433 l 1,20,-1
 511.25 1638 l 1,21,-1
 1151.25 1638 l 1,22,-1
 1151.25 1433 l 1,23,-1
 1280 1433 l 1,24,-1
 1280 1228 l 1,25,-1
 1151.25 1228 l 1,26,-1
 1151.25 1024 l 1,27,-1
 1280 1024 l 1,28,-1
 1280 819 l 1,29,-1
 1407.5 819 l 1,30,-1
 1407.5 0 l 1,31,-1
 1151.25 0 l 1,32,-1
 1151.25 409 l 1,33,-1
 511.25 409 l 1,34,-1
 511.25 0 l 1,35,-1
 255 0 l 1,12,-1
EndSplineSet
Validated: 1
EndChar

StartChar: AE
Encoding: 198 198 134
Width: 1535
GlyphClass: 1
Flags: W
LayerCount: 2
Fore
SplineSet
640 819 m 1,0,-1
 640 1228 l 1,1,-1
 511.25 1228 l 1,2,-1
 511.25 1024 l 1,3,-1
 383.75 1024 l 1,4,-1
 383.75 819 l 1,5,-1
 640 819 l 1,0,-1
127.5 0 m 1,6,-1
 127.5 1024 l 1,7,-1
 255 1024 l 1,8,-1
 255 1228 l 1,9,-1
 383.75 1228 l 1,10,-1
 383.75 1433 l 1,11,-1
 1407.5 1433 l 1,12,-1
 1407.5 1228 l 1,13,-1
 895 1228 l 1,14,-1
 895 819 l 1,15,-1
 1280 819 l 1,16,-1
 1280 614 l 1,17,-1
 895 614 l 1,18,-1
 895 204 l 1,19,-1
 1407.5 204 l 1,20,-1
 1407.5 0 l 1,21,-1
 640 0 l 1,22,-1
 640 614 l 1,23,-1
 383.75 614 l 1,24,-1
 383.75 0 l 1,25,-1
 127.5 0 l 1,6,-1
EndSplineSet
Validated: 1
EndChar

StartChar: Ccedilla
Encoding: 199 199 135
Width: 1535
GlyphClass: 1
Flags: W
LayerCount: 2
Fore
SplineSet
640 -409 m 1,0,-1
 640 -204 l 1,1,-1
 767.5 -204 l 1,2,-1
 767.5 0 l 1,3,-1
 511.25 0 l 1,4,-1
 511.25 204 l 1,5,-1
 383.75 204 l 1,6,-1
 383.75 409 l 1,7,-1
 255 409 l 1,8,-1
 255 1024 l 1,9,-1
 383.75 1024 l 1,10,-1
 383.75 1228 l 1,11,-1
 511.25 1228 l 1,12,-1
 511.25 1433 l 1,13,-1
 1408 1433 l 1,14,-1
 1408 1228 l 1,15,-1
 640 1228 l 1,16,-1
 640 1024 l 1,17,-1
 511.25 1024 l 1,18,-1
 511.25 409 l 1,19,-1
 640 409 l 1,20,-1
 640 204 l 1,21,-1
 1408 204 l 5,22,-1
 1408 0 l 5,23,-1
 1023.75 0 l 1,24,-1
 1023.75 -204 l 1,25,-1
 895 -204 l 1,26,-1
 895 -409 l 1,27,-1
 640 -409 l 1,0,-1
EndSplineSet
EndChar

StartChar: Egrave
Encoding: 200 200 136
Width: 1535
GlyphClass: 1
Flags: W
LayerCount: 2
Fore
SplineSet
255 0 m 1,0,-1
 255 1228 l 1,1,-1
 767.5 1228 l 1,2,-1
 767.5 1433 l 1,3,-1
 640 1433 l 1,4,-1
 640 1638 l 1,5,-1
 895 1638 l 1,6,-1
 895 1433 l 1,7,-1
 1023.75 1433 l 1,8,-1
 1023.75 1228 l 1,9,-1
 1407.5 1228 l 1,10,-1
 1407.5 1024 l 1,11,-1
 511.25 1024 l 1,12,-1
 511.25 819 l 1,13,-1
 1151.25 819 l 1,14,-1
 1151.25 614 l 1,15,-1
 511.25 614 l 1,16,-1
 511.25 204 l 1,17,-1
 1407.5 204 l 1,18,-1
 1407.5 0 l 1,19,-1
 255 0 l 1,0,-1
EndSplineSet
Validated: 1
EndChar

StartChar: Eacute
Encoding: 201 201 137
Width: 1535
GlyphClass: 1
Flags: W
LayerCount: 2
Fore
SplineSet
255 0 m 1,0,-1
 255 1228 l 1,1,-1
 767.5 1228 l 1,2,-1
 767.5 1433 l 1,3,-1
 895 1433 l 1,4,-1
 895 1638 l 1,5,-1
 1151.25 1638 l 1,6,-1
 1151.25 1433 l 1,7,-1
 1023.75 1433 l 1,8,-1
 1023.75 1228 l 1,9,-1
 1407.5 1228 l 1,10,-1
 1407.5 1024 l 1,11,-1
 511.25 1024 l 1,12,-1
 511.25 819 l 1,13,-1
 1151.25 819 l 1,14,-1
 1151.25 614 l 1,15,-1
 511.25 614 l 1,16,-1
 511.25 204 l 1,17,-1
 1407.5 204 l 1,18,-1
 1407.5 0 l 1,19,-1
 255 0 l 1,0,-1
EndSplineSet
Validated: 1
EndChar

StartChar: Ecircumflex
Encoding: 202 202 138
Width: 1535
GlyphClass: 1
Flags: W
LayerCount: 2
Fore
SplineSet
895 1228 m 1,0,-1
 895 1433 l 1,1,-1
 767.5 1433 l 1,2,-1
 767.5 1228 l 1,3,-1
 895 1228 l 1,0,-1
255 0 m 1,4,-1
 255 1228 l 1,5,-1
 511.25 1228 l 1,6,-1
 511.25 1433 l 1,7,-1
 640 1433 l 1,8,-1
 640 1638 l 1,9,-1
 1023.75 1638 l 1,10,-1
 1023.75 1433 l 1,11,-1
 1151.25 1433 l 1,12,-1
 1151.25 1228 l 1,13,-1
 1407.5 1228 l 1,14,-1
 1407.5 1024 l 1,15,-1
 511.25 1024 l 1,16,-1
 511.25 819 l 1,17,-1
 1151.25 819 l 1,18,-1
 1151.25 614 l 1,19,-1
 511.25 614 l 1,20,-1
 511.25 204 l 1,21,-1
 1407.5 204 l 1,22,-1
 1407.5 0 l 1,23,-1
 255 0 l 1,4,-1
EndSplineSet
Validated: 1
EndChar

StartChar: Edieresis
Encoding: 203 203 139
Width: 1535
GlyphClass: 1
Flags: W
LayerCount: 2
Fore
SplineSet
255 0 m 1,0,-1
 255 1228 l 1,1,-1
 1407.5 1228 l 1,2,-1
 1407.5 1024 l 1,3,-1
 511.25 1024 l 1,4,-1
 511.25 819 l 1,5,-1
 1151.25 819 l 1,6,-1
 1151.25 614 l 1,7,-1
 511.25 614 l 1,8,-1
 511.25 204 l 1,9,-1
 1407.5 204 l 1,10,-1
 1407.5 0 l 1,11,-1
 255 0 l 1,0,-1
383.75 1433 m 1,12,-1
 383.75 1638 l 1,13,-1
 640 1638 l 1,14,-1
 640 1433 l 1,15,-1
 383.75 1433 l 1,12,-1
1023.75 1433 m 1,16,-1
 1023.75 1638 l 1,17,-1
 1280 1638 l 1,18,-1
 1280 1433 l 1,19,-1
 1023.75 1433 l 1,16,-1
EndSplineSet
Validated: 1
EndChar

StartChar: Igrave
Encoding: 204 204 140
Width: 1535
GlyphClass: 1
Flags: W
LayerCount: 2
Fore
SplineSet
383.75 0 m 1,0,-1
 383.75 204 l 1,1,-1
 640 204 l 1,2,-1
 640 1024 l 1,3,-1
 383.75 1024 l 1,4,-1
 383.75 1228 l 1,5,-1
 640 1228 l 1,6,-1
 640 1433 l 1,7,-1
 511.25 1433 l 1,8,-1
 511.25 1638 l 1,9,-1
 767.5 1638 l 1,10,-1
 767.5 1433 l 1,11,-1
 895 1433 l 1,12,-1
 895 1228 l 1,13,-1
 1151.25 1228 l 1,14,-1
 1151.25 1024 l 1,15,-1
 895 1024 l 1,16,-1
 895 204 l 1,17,-1
 1151.25 204 l 1,18,-1
 1151.25 0 l 1,19,-1
 383.75 0 l 1,0,-1
EndSplineSet
Validated: 1
EndChar

StartChar: Iacute
Encoding: 205 205 141
Width: 1535
GlyphClass: 1
Flags: W
LayerCount: 2
Fore
SplineSet
383.75 0 m 1,0,-1
 383.75 204 l 1,1,-1
 640 204 l 1,2,-1
 640 1024 l 1,3,-1
 383.75 1024 l 1,4,-1
 383.75 1228 l 1,5,-1
 640 1228 l 1,6,-1
 640 1433 l 1,7,-1
 767.5 1433 l 1,8,-1
 767.5 1638 l 1,9,-1
 1023.75 1638 l 1,10,-1
 1023.75 1433 l 1,11,-1
 895 1433 l 1,12,-1
 895 1228 l 1,13,-1
 1151.25 1228 l 1,14,-1
 1151.25 1024 l 1,15,-1
 895 1024 l 1,16,-1
 895 204 l 1,17,-1
 1151.25 204 l 1,18,-1
 1151.25 0 l 1,19,-1
 383.75 0 l 1,0,-1
EndSplineSet
Validated: 1
EndChar

StartChar: Icircumflex
Encoding: 206 206 142
Width: 1535
GlyphClass: 1
Flags: W
LayerCount: 2
Fore
SplineSet
383.75 0 m 1,0,-1
 383.75 204 l 1,1,-1
 640 204 l 1,2,-1
 640 819 l 1,3,-1
 383.75 819 l 1,4,-1
 383.75 1024 l 1,5,-1
 1151.25 1024 l 1,6,-1
 1151.25 819 l 1,7,-1
 895 819 l 1,8,-1
 895 204 l 1,9,-1
 1151.25 204 l 1,10,-1
 1151.25 0 l 1,11,-1
 383.75 0 l 1,0,-1
383.75 1228 m 1,12,-1
 383.75 1433 l 1,13,-1
 511.25 1433 l 1,14,-1
 511.25 1638 l 1,15,-1
 1023.75 1638 l 1,16,-1
 1023.75 1433 l 1,17,-1
 1151.25 1433 l 1,18,-1
 1151.25 1228 l 1,19,-1
 895 1228 l 1,20,-1
 895 1433 l 1,21,-1
 640 1433 l 1,22,-1
 640 1228 l 1,23,-1
 383.75 1228 l 1,12,-1
EndSplineSet
Validated: 1
EndChar

StartChar: Idieresis
Encoding: 207 207 143
Width: 1535
GlyphClass: 1
Flags: W
LayerCount: 2
Fore
SplineSet
383.75 0 m 1,0,-1
 383.75 204 l 1,1,-1
 640 204 l 1,2,-1
 640 1024 l 1,3,-1
 383.75 1024 l 1,4,-1
 383.75 1228 l 1,5,-1
 1151.25 1228 l 1,6,-1
 1151.25 1024 l 1,7,-1
 895 1024 l 1,8,-1
 895 204 l 1,9,-1
 1151.25 204 l 1,10,-1
 1151.25 0 l 1,11,-1
 383.75 0 l 1,0,-1
383.75 1433 m 1,12,-1
 383.75 1638 l 1,13,-1
 640 1638 l 1,14,-1
 640 1433 l 1,15,-1
 383.75 1433 l 1,12,-1
895 1433 m 1,16,-1
 895 1638 l 1,17,-1
 1151.25 1638 l 1,18,-1
 1151.25 1433 l 1,19,-1
 895 1433 l 1,16,-1
EndSplineSet
Validated: 1
EndChar

StartChar: Eth
Encoding: 208 208 144
Width: 1535
GlyphClass: 1
Flags: W
LayerCount: 2
Fore
SplineSet
1023.75 204 m 1,0,-1
 1023.75 409 l 1,1,-1
 1151.25 409 l 1,2,-1
 1151.25 1024 l 1,3,-1
 1023.75 1024 l 1,4,-1
 1023.75 1228 l 1,5,-1
 511.25 1228 l 1,6,-1
 511.25 819 l 1,7,-1
 767.5 819 l 1,8,-1
 767.5 614 l 1,9,-1
 511.25 614 l 1,10,-1
 511.25 204 l 1,11,-1
 1023.75 204 l 1,0,-1
255 0 m 1,12,-1
 255 614 l 1,13,-1
 127.5 614 l 1,14,-1
 127.5 819 l 1,15,-1
 255 819 l 1,16,-1
 255 1433 l 1,17,-1
 1151.25 1433 l 1,18,-1
 1151.25 1228 l 1,19,-1
 1280 1228 l 1,20,-1
 1280 1024 l 1,21,-1
 1407.5 1024 l 1,22,-1
 1407.5 409 l 1,23,-1
 1280 409 l 1,24,-1
 1280 204 l 1,25,-1
 1151.25 204 l 1,26,-1
 1151.25 0 l 1,27,-1
 255 0 l 1,12,-1
EndSplineSet
Validated: 1
EndChar

StartChar: Ntilde
Encoding: 209 209 145
Width: 1535
GlyphClass: 1
Flags: W
LayerCount: 2
Fore
SplineSet
1151.25 409 m 1,0,-1
 1151.25 1228 l 1,1,-1
 767.5 1228 l 1,2,-1
 767.5 1433 l 1,3,-1
 511.25 1433 l 1,4,-1
 511.25 1228 l 1,5,-1
 640 1228 l 1,6,-1
 640 1024 l 1,7,-1
 767.5 1024 l 1,8,-1
 767.5 819 l 1,9,-1
 895 819 l 1,10,-1
 895 614 l 1,11,-1
 1023.75 614 l 1,12,-1
 1023.75 409 l 1,13,-1
 1151.25 409 l 1,0,-1
255 0 m 1,14,-1
 255 1433 l 1,15,-1
 383.75 1433 l 1,16,-1
 383.75 1638 l 1,17,-1
 895 1638 l 1,18,-1
 895 1433 l 1,19,-1
 1151.25 1433 l 1,20,-1
 1151.25 1638 l 1,21,-1
 1407.5 1638 l 1,22,-1
 1407.5 1433 l 1,23,-1
 1280 1433 l 1,24,-1
 1280 1228 l 1,25,-1
 1407.5 1228 l 1,26,-1
 1407.5 0 l 1,27,-1
 1023.75 0 l 1,28,-1
 1023.75 204 l 1,29,-1
 895 204 l 1,30,-1
 895 409 l 1,31,-1
 767.5 409 l 1,32,-1
 767.5 614 l 1,33,-1
 640 614 l 1,34,-1
 640 819 l 1,35,-1
 511.25 819 l 1,36,-1
 511.25 0 l 1,37,-1
 255 0 l 1,14,-1
EndSplineSet
Validated: 1
EndChar

StartChar: Ograve
Encoding: 210 210 146
Width: 1535
GlyphClass: 1
Flags: W
LayerCount: 2
Fore
SplineSet
1151.25 204 m 1,0,-1
 1151.25 1024 l 1,1,-1
 511.25 1024 l 1,2,-1
 511.25 204 l 1,3,-1
 1151.25 204 l 1,0,-1
383.75 0 m 1,4,-1
 383.75 204 l 1,5,-1
 255 204 l 1,6,-1
 255 1024 l 1,7,-1
 383.75 1024 l 1,8,-1
 383.75 1228 l 1,9,-1
 640 1228 l 1,10,-1
 640 1433 l 1,11,-1
 511.25 1433 l 1,12,-1
 511.25 1638 l 1,13,-1
 767.5 1638 l 1,14,-1
 767.5 1433 l 1,15,-1
 895 1433 l 1,16,-1
 895 1228 l 1,17,-1
 1280 1228 l 1,18,-1
 1280 1024 l 1,19,-1
 1407.5 1024 l 1,20,-1
 1407.5 204 l 1,21,-1
 1280 204 l 1,22,-1
 1280 0 l 1,23,-1
 383.75 0 l 1,4,-1
EndSplineSet
Validated: 1
EndChar

StartChar: Oacute
Encoding: 211 211 147
Width: 1535
GlyphClass: 1
Flags: W
LayerCount: 2
Fore
SplineSet
1151.25 204 m 1,0,-1
 1151.25 1024 l 1,1,-1
 511.25 1024 l 1,2,-1
 511.25 204 l 1,3,-1
 1151.25 204 l 1,0,-1
383.75 0 m 1,4,-1
 383.75 204 l 1,5,-1
 255 204 l 1,6,-1
 255 1024 l 1,7,-1
 383.75 1024 l 1,8,-1
 383.75 1228 l 1,9,-1
 767.5 1228 l 1,10,-1
 767.5 1433 l 1,11,-1
 895 1433 l 1,12,-1
 895 1638 l 1,13,-1
 1151.25 1638 l 1,14,-1
 1151.25 1433 l 1,15,-1
 1023.75 1433 l 1,16,-1
 1023.75 1228 l 1,17,-1
 1280 1228 l 1,18,-1
 1280 1024 l 1,19,-1
 1407.5 1024 l 1,20,-1
 1407.5 204 l 1,21,-1
 1280 204 l 1,22,-1
 1280 0 l 1,23,-1
 383.75 0 l 1,4,-1
EndSplineSet
Validated: 1
EndChar

StartChar: Ocircumflex
Encoding: 212 212 148
Width: 1535
GlyphClass: 1
Flags: W
LayerCount: 2
Fore
SplineSet
1151.25 204 m 1,0,-1
 1151.25 1024 l 1,1,-1
 511.25 1024 l 1,2,-1
 511.25 204 l 1,3,-1
 1151.25 204 l 1,0,-1
895 1228 m 1,4,-1
 895 1433 l 1,5,-1
 767.5 1433 l 1,6,-1
 767.5 1228 l 1,7,-1
 895 1228 l 1,4,-1
383.75 0 m 1,8,-1
 383.75 204 l 1,9,-1
 255 204 l 1,10,-1
 255 1024 l 1,11,-1
 383.75 1024 l 1,12,-1
 383.75 1228 l 1,13,-1
 511.25 1228 l 1,14,-1
 511.25 1433 l 1,15,-1
 640 1433 l 1,16,-1
 640 1638 l 1,17,-1
 1023.75 1638 l 1,18,-1
 1023.75 1433 l 1,19,-1
 1151.25 1433 l 1,20,-1
 1151.25 1228 l 1,21,-1
 1280 1228 l 1,22,-1
 1280 1024 l 1,23,-1
 1407.5 1024 l 1,24,-1
 1407.5 204 l 1,25,-1
 1280 204 l 1,26,-1
 1280 0 l 1,27,-1
 383.75 0 l 1,8,-1
EndSplineSet
Validated: 1
EndChar

StartChar: Otilde
Encoding: 213 213 149
Width: 1535
GlyphClass: 1
Flags: W
LayerCount: 2
Fore
SplineSet
1151.25 204 m 1,0,-1
 1151.25 1024 l 1,1,-1
 511.25 1024 l 1,2,-1
 511.25 204 l 1,3,-1
 1151.25 204 l 1,0,-1
767.5 1228 m 1,4,-1
 767.5 1433 l 1,5,-1
 511.25 1433 l 1,6,-1
 511.25 1228 l 1,7,-1
 767.5 1228 l 1,4,-1
383.75 0 m 1,8,-1
 383.75 204 l 1,9,-1
 255 204 l 1,10,-1
 255 1024 l 1,11,-1
 383.75 1024 l 1,12,-1
 383.75 1228 l 1,13,-1
 255 1228 l 1,14,-1
 255 1433 l 1,15,-1
 383.75 1433 l 1,16,-1
 383.75 1638 l 1,17,-1
 895 1638 l 1,18,-1
 895 1433 l 1,19,-1
 1151.25 1433 l 1,20,-1
 1151.25 1638 l 1,21,-1
 1407.5 1638 l 1,22,-1
 1407.5 1433 l 1,23,-1
 1280 1433 l 1,24,-1
 1280 1024 l 1,25,-1
 1407.5 1024 l 1,26,-1
 1407.5 204 l 1,27,-1
 1280 204 l 1,28,-1
 1280 0 l 1,29,-1
 383.75 0 l 1,8,-1
EndSplineSet
Validated: 1
EndChar

StartChar: Odieresis
Encoding: 214 214 150
Width: 1535
GlyphClass: 1
Flags: W
LayerCount: 2
Fore
SplineSet
1151.25 204 m 1,0,-1
 1151.25 1024 l 1,1,-1
 511.25 1024 l 1,2,-1
 511.25 204 l 1,3,-1
 1151.25 204 l 1,0,-1
383.75 0 m 1,4,-1
 383.75 204 l 1,5,-1
 255 204 l 1,6,-1
 255 1024 l 1,7,-1
 383.75 1024 l 1,8,-1
 383.75 1228 l 1,9,-1
 1280 1228 l 1,10,-1
 1280 1024 l 1,11,-1
 1407.5 1024 l 1,12,-1
 1407.5 204 l 1,13,-1
 1280 204 l 1,14,-1
 1280 0 l 1,15,-1
 383.75 0 l 1,4,-1
383.75 1433 m 1,16,-1
 383.75 1638 l 1,17,-1
 640 1638 l 1,18,-1
 640 1433 l 1,19,-1
 383.75 1433 l 1,16,-1
1023.75 1433 m 1,20,-1
 1023.75 1638 l 1,21,-1
 1280 1638 l 1,22,-1
 1280 1433 l 1,23,-1
 1023.75 1433 l 1,20,-1
EndSplineSet
Validated: 1
EndChar

StartChar: multiply
Encoding: 215 215 151
Width: 1535
GlyphClass: 1
Flags: W
LayerCount: 2
Fore
SplineSet
383.75 0 m 1,0,-1
 383.75 204 l 1,1,-1
 511.25 204 l 1,2,-1
 511.25 409 l 1,3,-1
 640 409 l 1,4,-1
 640 614 l 1,5,-1
 511.25 614 l 1,6,-1
 511.25 819 l 1,7,-1
 383.75 819 l 1,8,-1
 383.75 1024 l 1,9,-1
 640 1024 l 1,10,-1
 640 819 l 1,11,-1
 895 819 l 1,12,-1
 895 1024 l 1,13,-1
 1151.25 1024 l 1,14,-1
 1151.25 819 l 1,15,-1
 1023.75 819 l 1,16,-1
 1023.75 614 l 1,17,-1
 895 614 l 1,18,-1
 895 409 l 1,19,-1
 1023.75 409 l 1,20,-1
 1023.75 204 l 1,21,-1
 1151.25 204 l 1,22,-1
 1151.25 0 l 1,23,-1
 895 0 l 1,24,-1
 895 204 l 1,25,-1
 640 204 l 1,26,-1
 640 0 l 1,27,-1
 383.75 0 l 1,0,-1
EndSplineSet
Validated: 1
EndChar

StartChar: Oslash
Encoding: 216 216 152
Width: 1535
GlyphClass: 1
Flags: W
LayerCount: 2
Fore
SplineSet
1151.25 204 m 1,0,-1
 1151.25 819 l 1,1,-1
 1023.75 819 l 1,2,-1
 1023.75 614 l 1,3,-1
 895 614 l 1,4,-1
 895 409 l 1,5,-1
 767.5 409 l 1,6,-1
 767.5 204 l 1,7,-1
 1151.25 204 l 1,0,-1
640 409 m 1,8,-1
 640 614 l 1,9,-1
 767.5 614 l 1,10,-1
 767.5 819 l 1,11,-1
 895 819 l 1,12,-1
 895 1024 l 1,13,-1
 511.25 1024 l 1,14,-1
 511.25 409 l 1,15,-1
 640 409 l 1,8,-1
255 -204 m 1,16,-1
 255 0 l 1,17,-1
 383.75 0 l 1,18,-1
 383.75 204 l 1,19,-1
 255 204 l 1,20,-1
 255 1024 l 1,21,-1
 383.75 1024 l 1,22,-1
 383.75 1228 l 1,23,-1
 1151.25 1228 l 1,24,-1
 1151.25 1433 l 1,25,-1
 1407.5 1433 l 1,26,-1
 1407.5 1228 l 1,27,-1
 1280 1228 l 1,28,-1
 1280 1024 l 1,29,-1
 1407.5 1024 l 1,30,-1
 1407.5 204 l 1,31,-1
 1280 204 l 1,32,-1
 1280 0 l 1,33,-1
 511.25 0 l 1,34,-1
 511.25 -204 l 1,35,-1
 255 -204 l 1,16,-1
EndSplineSet
Validated: 1
EndChar

StartChar: Ugrave
Encoding: 217 217 153
Width: 1535
GlyphClass: 1
Flags: W
LayerCount: 2
Fore
SplineSet
383.75 0 m 1,0,-1
 383.75 204 l 1,1,-1
 255 204 l 1,2,-1
 255 1228 l 1,3,-1
 511.25 1228 l 1,4,-1
 511.25 204 l 1,5,-1
 1151.25 204 l 1,6,-1
 1151.25 1228 l 1,7,-1
 1407.5 1228 l 1,8,-1
 1407.5 204 l 1,9,-1
 1280 204 l 1,10,-1
 1280 0 l 1,11,-1
 383.75 0 l 1,0,-1
767.5 1228 m 1,12,-1
 767.5 1433 l 1,13,-1
 640 1433 l 1,14,-1
 640 1638 l 1,15,-1
 895 1638 l 1,16,-1
 895 1433 l 1,17,-1
 1023.75 1433 l 1,18,-1
 1023.75 1228 l 1,19,-1
 767.5 1228 l 1,12,-1
EndSplineSet
Validated: 1
EndChar

StartChar: Uacute
Encoding: 218 218 154
Width: 1535
GlyphClass: 1
Flags: W
LayerCount: 2
Fore
SplineSet
383.75 0 m 1,0,-1
 383.75 204 l 1,1,-1
 255 204 l 1,2,-1
 255 1228 l 1,3,-1
 511.25 1228 l 1,4,-1
 511.25 204 l 1,5,-1
 1151.25 204 l 1,6,-1
 1151.25 1228 l 1,7,-1
 1407.5 1228 l 1,8,-1
 1407.5 204 l 1,9,-1
 1280 204 l 1,10,-1
 1280 0 l 1,11,-1
 383.75 0 l 1,0,-1
640 1228 m 1,12,-1
 640 1433 l 1,13,-1
 767.5 1433 l 1,14,-1
 767.5 1638 l 1,15,-1
 1023.75 1638 l 1,16,-1
 1023.75 1433 l 1,17,-1
 895 1433 l 1,18,-1
 895 1228 l 1,19,-1
 640 1228 l 1,12,-1
EndSplineSet
Validated: 1
EndChar

StartChar: Ucircumflex
Encoding: 219 219 155
Width: 1535
GlyphClass: 1
Flags: W
LayerCount: 2
Fore
SplineSet
383.75 0 m 1,0,-1
 383.75 204 l 1,1,-1
 255 204 l 1,2,-1
 255 1228 l 1,3,-1
 511.25 1228 l 1,4,-1
 511.25 204 l 1,5,-1
 1151.25 204 l 1,6,-1
 1151.25 1228 l 1,7,-1
 1407.5 1228 l 1,8,-1
 1407.5 204 l 1,9,-1
 1280 204 l 1,10,-1
 1280 0 l 1,11,-1
 383.75 0 l 1,0,-1
511.25 1228 m 1,12,-1
 511.25 1433 l 1,13,-1
 640 1433 l 1,14,-1
 640 1638 l 1,15,-1
 1023.75 1638 l 1,16,-1
 1023.75 1433 l 1,17,-1
 1151.25 1433 l 1,18,-1
 1151.25 1228 l 1,19,-1
 895 1228 l 1,20,-1
 895 1433 l 1,21,-1
 767.5 1433 l 1,22,-1
 767.5 1228 l 1,23,-1
 511.25 1228 l 1,12,-1
EndSplineSet
Validated: 5
EndChar

StartChar: Udieresis
Encoding: 220 220 156
Width: 1535
GlyphClass: 1
Flags: W
LayerCount: 2
Fore
SplineSet
383.75 0 m 1,0,-1
 383.75 204 l 1,1,-1
 255 204 l 1,2,-1
 255 1228 l 1,3,-1
 511.25 1228 l 1,4,-1
 511.25 204 l 1,5,-1
 1151.25 204 l 1,6,-1
 1151.25 1228 l 1,7,-1
 1407.5 1228 l 1,8,-1
 1407.5 204 l 1,9,-1
 1280 204 l 1,10,-1
 1280 0 l 1,11,-1
 383.75 0 l 1,0,-1
383.75 1433 m 1,12,-1
 383.75 1638 l 1,13,-1
 640 1638 l 1,14,-1
 640 1433 l 1,15,-1
 383.75 1433 l 1,12,-1
1023.75 1433 m 1,16,-1
 1023.75 1638 l 1,17,-1
 1280 1638 l 1,18,-1
 1280 1433 l 1,19,-1
 1023.75 1433 l 1,16,-1
EndSplineSet
Validated: 1
EndChar

StartChar: Yacute
Encoding: 221 221 157
Width: 1535
GlyphClass: 1
Flags: W
LayerCount: 2
Fore
SplineSet
640 0 m 1,0,-1
 640 614 l 1,1,-1
 511.25 614 l 1,2,-1
 511.25 819 l 1,3,-1
 383.75 819 l 1,4,-1
 383.75 1024 l 1,5,-1
 255 1024 l 1,6,-1
 255 1228 l 1,7,-1
 127.5 1228 l 1,8,-1
 127.5 1433 l 1,9,-1
 383.75 1433 l 1,10,-1
 383.75 1228 l 1,11,-1
 511.25 1228 l 1,12,-1
 511.25 1024 l 1,13,-1
 640 1024 l 1,14,-1
 640 819 l 1,15,-1
 895 819 l 1,16,-1
 895 1024 l 1,17,-1
 1023.75 1024 l 1,18,-1
 1023.75 1228 l 1,19,-1
 1151.25 1228 l 1,20,-1
 1151.25 1433 l 1,21,-1
 1407.5 1433 l 1,22,-1
 1407.5 1228 l 1,23,-1
 1280 1228 l 1,24,-1
 1280 1024 l 1,25,-1
 1151.25 1024 l 1,26,-1
 1151.25 819 l 1,27,-1
 1023.75 819 l 1,28,-1
 1023.75 614 l 1,29,-1
 895 614 l 1,30,-1
 895 0 l 1,31,-1
 640 0 l 1,0,-1
640 1228 m 1,32,-1
 640 1433 l 1,33,-1
 767.5 1433 l 1,34,-1
 767.5 1638 l 1,35,-1
 1023.75 1638 l 1,36,-1
 1023.75 1433 l 1,37,-1
 895 1433 l 1,38,-1
 895 1228 l 1,39,-1
 640 1228 l 1,32,-1
EndSplineSet
Validated: 1
EndChar

StartChar: Thorn
Encoding: 222 222 158
Width: 1535
GlyphClass: 1
Flags: W
LayerCount: 2
Fore
SplineSet
1151.25 614 m 1,0,-1
 1151.25 1024 l 1,1,-1
 640 1024 l 1,2,-1
 640 614 l 1,3,-1
 1151.25 614 l 1,0,-1
255 0 m 1,4,-1
 255 204 l 1,5,-1
 383.75 204 l 1,6,-1
 383.75 1433 l 1,7,-1
 255 1433 l 1,8,-1
 255 1638 l 1,9,-1
 767.5 1638 l 1,10,-1
 767.5 1433 l 1,11,-1
 640 1433 l 1,12,-1
 640 1228 l 1,13,-1
 1280 1228 l 1,14,-1
 1280 1024 l 1,15,-1
 1407.5 1024 l 1,16,-1
 1407.5 614 l 1,17,-1
 1280 614 l 1,18,-1
 1280 409 l 1,19,-1
 640 409 l 1,20,-1
 640 204 l 1,21,-1
 767.5 204 l 1,22,-1
 767.5 0 l 1,23,-1
 255 0 l 1,4,-1
EndSplineSet
Validated: 1
EndChar

StartChar: germandbls
Encoding: 223 223 159
Width: 1535
GlyphClass: 1
Flags: W
LayerCount: 2
Fore
SplineSet
768 0 m 1,0,-1
 768 204 l 1,1,-1
 1151 204 l 1,2,-1
 1151 614 l 1,3,4
 1152 614 1152 614 1408 614 c 1,5,-1
 1408 204 l 1,6,-1
 1280 204 l 1,7,-1
 1280 0 l 1,8,-1
 768 0 l 1,0,-1
255 -408 m 5,9,-1
 255 1024 l 1,10,-1
 384 1024 l 1,11,-1
 384 1228 l 1,12,-1
 511 1228 l 1,13,-1
 511 1433 l 1,14,-1
 1151 1433 l 1,15,-1
 1151 1228 l 1,16,-1
 1280 1228 l 1,17,-1
 1280 819 l 1,18,-1
 1151 819 l 1,19,-1
 1151 614 l 1,20,-1
 895 614 l 1,21,-1
 895 819 l 1,22,-1
 1024 819 l 1,23,-1
 1024 1228 l 1,24,-1
 640 1228 l 1,25,-1
 640 1024 l 1,26,-1
 511 1024 l 1,27,-1
 511 -408 l 5,28,-1
 255 -408 l 5,9,-1
EndSplineSet
Validated: 5
EndChar

StartChar: agrave
Encoding: 224 224 160
Width: 1535
GlyphClass: 1
Flags: W
LayerCount: 2
Fore
SplineSet
1023.75 204 m 1,0,-1
 1023.75 409 l 1,1,-1
 383.75 409 l 1,2,-1
 383.75 204 l 1,3,-1
 1023.75 204 l 1,0,-1
255 0 m 1,4,-1
 255 204 l 1,5,-1
 127.5 204 l 1,6,-1
 127.5 409 l 1,7,-1
 255 409 l 1,8,-1
 255 614 l 1,9,-1
 1023.75 614 l 1,10,-1
 1023.75 819 l 1,11,-1
 255 819 l 1,12,-1
 255 1024 l 1,13,-1
 1151.25 1024 l 1,14,-1
 1151.25 819 l 1,15,-1
 1280 819 l 1,16,-1
 1280 204 l 1,17,-1
 1407.5 204 l 1,18,-1
 1407.5 0 l 1,19,-1
 255 0 l 1,4,-1
640 1228 m 1,20,-1
 640 1433 l 1,21,-1
 511.25 1433 l 1,22,-1
 511.25 1638 l 1,23,-1
 767.5 1638 l 1,24,-1
 767.5 1433 l 1,25,-1
 895 1433 l 1,26,-1
 895 1228 l 1,27,-1
 640 1228 l 1,20,-1
EndSplineSet
Validated: 1
EndChar

StartChar: aacute
Encoding: 225 225 161
Width: 1535
GlyphClass: 1
Flags: W
LayerCount: 2
Fore
SplineSet
1023.75 204 m 1,0,-1
 1023.75 409 l 1,1,-1
 383.75 409 l 1,2,-1
 383.75 204 l 1,3,-1
 1023.75 204 l 1,0,-1
255 0 m 1,4,-1
 255 204 l 1,5,-1
 127.5 204 l 1,6,-1
 127.5 409 l 1,7,-1
 255 409 l 1,8,-1
 255 614 l 1,9,-1
 1023.75 614 l 1,10,-1
 1023.75 819 l 1,11,-1
 255 819 l 1,12,-1
 255 1024 l 1,13,-1
 1151.25 1024 l 1,14,-1
 1151.25 819 l 1,15,-1
 1280 819 l 1,16,-1
 1280 204 l 1,17,-1
 1407.5 204 l 1,18,-1
 1407.5 0 l 1,19,-1
 255 0 l 1,4,-1
640 1228 m 1,20,-1
 640 1433 l 1,21,-1
 767.5 1433 l 1,22,-1
 767.5 1638 l 1,23,-1
 1023.75 1638 l 1,24,-1
 1023.75 1433 l 1,25,-1
 895 1433 l 1,26,-1
 895 1228 l 1,27,-1
 640 1228 l 1,20,-1
EndSplineSet
Validated: 1
EndChar

StartChar: acircumflex
Encoding: 226 226 162
Width: 1535
GlyphClass: 1
Flags: W
LayerCount: 2
Fore
SplineSet
1023.75 204 m 1,0,-1
 1023.75 409 l 1,1,-1
 383.75 409 l 1,2,-1
 383.75 204 l 1,3,-1
 1023.75 204 l 1,0,-1
255 0 m 1,4,-1
 255 204 l 1,5,-1
 127.5 204 l 1,6,-1
 127.5 409 l 1,7,-1
 255 409 l 1,8,-1
 255 614 l 1,9,-1
 1023.75 614 l 1,10,-1
 1023.75 819 l 1,11,-1
 255 819 l 1,12,-1
 255 1024 l 1,13,-1
 1151.25 1024 l 1,14,-1
 1151.25 819 l 1,15,-1
 1280 819 l 1,16,-1
 1280 204 l 1,17,-1
 1407.5 204 l 1,18,-1
 1407.5 0 l 1,19,-1
 255 0 l 1,4,-1
383.75 1228 m 1,20,-1
 383.75 1433 l 1,21,-1
 511.25 1433 l 1,22,-1
 511.25 1638 l 1,23,-1
 895 1638 l 1,24,-1
 895 1433 l 1,25,-1
 1023.75 1433 l 1,26,-1
 1023.75 1228 l 1,27,-1
 767.5 1228 l 1,28,-1
 767.5 1433 l 1,29,-1
 640 1433 l 1,30,-1
 640 1228 l 1,31,-1
 383.75 1228 l 1,20,-1
EndSplineSet
Validated: 1
EndChar

StartChar: atilde
Encoding: 227 227 163
Width: 1535
GlyphClass: 1
Flags: W
LayerCount: 2
Fore
SplineSet
1023.75 204 m 1,0,-1
 1023.75 409 l 1,1,-1
 383.75 409 l 1,2,-1
 383.75 204 l 1,3,-1
 1023.75 204 l 1,0,-1
255 0 m 1,4,-1
 255 204 l 1,5,-1
 127.5 204 l 1,6,-1
 127.5 409 l 1,7,-1
 255 409 l 1,8,-1
 255 614 l 1,9,-1
 1023.75 614 l 1,10,-1
 1023.75 819 l 1,11,-1
 255 819 l 1,12,-1
 255 1024 l 1,13,-1
 1151.25 1024 l 1,14,-1
 1151.25 819 l 1,15,-1
 1280 819 l 1,16,-1
 1280 204 l 1,17,-1
 1407.5 204 l 1,18,-1
 1407.5 0 l 1,19,-1
 255 0 l 1,4,-1
255 1228 m 1,20,-1
 255 1433 l 1,21,-1
 383.75 1433 l 1,22,-1
 383.75 1638 l 1,23,-1
 767.5 1638 l 1,24,-1
 767.5 1433 l 1,25,-1
 511.25 1433 l 1,26,-1
 511.25 1228 l 1,27,-1
 255 1228 l 1,20,-1
767.5 1228 m 1,28,-1
 767.5 1433 l 1,29,-1
 1023.75 1433 l 1,30,-1
 1023.75 1638 l 1,31,-1
 1280 1638 l 1,32,-1
 1280 1433 l 1,33,-1
 1151.25 1433 l 1,34,-1
 1151.25 1228 l 1,35,-1
 767.5 1228 l 1,28,-1
EndSplineSet
Validated: 5
EndChar

StartChar: adieresis
Encoding: 228 228 164
Width: 1535
GlyphClass: 1
Flags: W
LayerCount: 2
Fore
SplineSet
1023.75 204 m 1,0,-1
 1023.75 409 l 1,1,-1
 383.75 409 l 1,2,-1
 383.75 204 l 1,3,-1
 1023.75 204 l 1,0,-1
255 0 m 1,4,-1
 255 204 l 1,5,-1
 127.5 204 l 1,6,-1
 127.5 409 l 1,7,-1
 255 409 l 1,8,-1
 255 614 l 1,9,-1
 1023.75 614 l 1,10,-1
 1023.75 819 l 1,11,-1
 255 819 l 1,12,-1
 255 1024 l 1,13,-1
 1151.25 1024 l 1,14,-1
 1151.25 819 l 1,15,-1
 1280 819 l 1,16,-1
 1280 204 l 1,17,-1
 1407.5 204 l 1,18,-1
 1407.5 0 l 1,19,-1
 255 0 l 1,4,-1
383.75 1229 m 5,20,-1
 383.75 1434 l 5,21,-1
 640 1434 l 5,22,-1
 640 1229 l 5,23,-1
 383.75 1229 l 5,20,-1
895 1229 m 5,24,-1
 895 1434 l 5,25,-1
 1151.25 1434 l 5,26,-1
 1151.25 1229 l 5,27,-1
 895 1229 l 5,24,-1
EndSplineSet
EndChar

StartChar: aring
Encoding: 229 229 165
Width: 1535
GlyphClass: 1
Flags: W
LayerCount: 2
Fore
SplineSet
1023.75 204 m 1,0,-1
 1023.75 409 l 1,1,-1
 383.75 409 l 1,2,-1
 383.75 204 l 1,3,-1
 1023.75 204 l 1,0,-1
895 1228 m 1,4,-1
 895 1433 l 1,5,-1
 640 1433 l 1,6,-1
 640 1228 l 1,7,-1
 895 1228 l 1,4,-1
255 0 m 1,8,-1
 255 204 l 1,9,-1
 127.5 204 l 1,10,-1
 127.5 409 l 1,11,-1
 255 409 l 1,12,-1
 255 614 l 1,13,-1
 1023.75 614 l 1,14,-1
 1023.75 819 l 1,15,-1
 255 819 l 1,16,-1
 255 1024 l 1,17,-1
 511.25 1024 l 1,18,-1
 511.25 1228 l 1,19,-1
 383.75 1228 l 1,20,-1
 383.75 1433 l 1,21,-1
 511.25 1433 l 1,22,-1
 511.25 1638 l 1,23,-1
 1023.75 1638 l 1,24,-1
 1023.75 1433 l 1,25,-1
 1151.25 1433 l 1,26,-1
 1151.25 1228 l 1,27,-1
 1023.75 1228 l 1,28,-1
 1023.75 1024 l 1,29,-1
 1151.25 1024 l 1,30,-1
 1151.25 819 l 1,31,-1
 1280 819 l 1,32,-1
 1280 204 l 1,33,-1
 1407.5 204 l 1,34,-1
 1407.5 0 l 1,35,-1
 255 0 l 1,8,-1
EndSplineSet
Validated: 1
EndChar

StartChar: ae
Encoding: 230 230 166
Width: 1535
GlyphClass: 1
Flags: W
LayerCount: 2
Fore
SplineSet
640 204 m 1,0,-1
 640 409 l 1,1,-1
 383.75 409 l 1,2,-1
 383.75 204 l 1,3,-1
 640 204 l 1,0,-1
255 0 m 1,4,-1
 255 204 l 1,5,-1
 127.5 204 l 1,6,-1
 127.5 409 l 1,7,-1
 255 409 l 1,8,-1
 255 614 l 1,9,-1
 640 614 l 1,10,-1
 640 819 l 1,11,-1
 255 819 l 1,12,-1
 255 1024 l 1,13,-1
 767.5 1024 l 1,14,-1
 767.5 819 l 1,15,-1
 895 819 l 1,16,-1
 895 614 l 1,17,-1
 1151.25 614 l 1,18,-1
 1151.25 819 l 1,19,-1
 895 819 l 1,20,-1
 895 1024 l 1,21,-1
 1280 1024 l 1,22,-1
 1280 819 l 1,23,-1
 1407.5 819 l 1,24,-1
 1407.5 409 l 1,25,-1
 895 409 l 1,26,-1
 895 204 l 1,27,-1
 1280 204 l 1,28,-1
 1280 0 l 1,29,-1
 255 0 l 1,4,-1
EndSplineSet
Validated: 5
EndChar

StartChar: ccedilla
Encoding: 231 231 167
Width: 1535
GlyphClass: 1
Flags: W
LayerCount: 2
Fore
SplineSet
511.25 -409 m 5,0,-1
 511.25 -204 l 5,1,-1
 640 -204 l 5,2,-1
 640 0 l 5,3,-1
 383.75 0 l 5,4,-1
 383.75 204 l 1,5,-1
 255 204 l 1,6,-1
 255 819 l 1,7,-1
 383.75 819 l 1,8,-1
 383.75 1024 l 1,9,-1
 1407 1024 l 1,10,-1
 1407 819 l 1,11,-1
 511.25 819 l 1,12,-1
 511.25 204 l 1,13,-1
 1407.5 204 l 1,14,-1
 1407.5 0 l 5,15,-1
 895 0 l 5,16,-1
 895 -204 l 5,17,-1
 767.5 -204 l 5,18,-1
 767.5 -409 l 5,19,-1
 511.25 -409 l 5,0,-1
EndSplineSet
EndChar

StartChar: egrave
Encoding: 232 232 168
Width: 1535
GlyphClass: 1
Flags: W
LayerCount: 2
Fore
SplineSet
1151.25 614 m 1,0,-1
 1151.25 819 l 1,1,-1
 511.25 819 l 1,2,-1
 511.25 614 l 1,3,-1
 1151.25 614 l 1,0,-1
383.75 0 m 1,4,-1
 383.75 204 l 1,5,-1
 255 204 l 1,6,-1
 255 819 l 1,7,-1
 383.75 819 l 1,8,-1
 383.75 1024 l 1,9,-1
 1280 1024 l 1,10,-1
 1280 819 l 1,11,-1
 1407.5 819 l 1,12,-1
 1407.5 409 l 1,13,-1
 511.25 409 l 1,14,-1
 511.25 204 l 1,15,-1
 1280 204 l 1,16,-1
 1280 0 l 1,17,-1
 383.75 0 l 1,4,-1
767.5 1228 m 1,18,-1
 767.5 1433 l 1,19,-1
 640 1433 l 1,20,-1
 640 1638 l 1,21,-1
 895 1638 l 1,22,-1
 895 1433 l 1,23,-1
 1023.75 1433 l 1,24,-1
 1023.75 1228 l 1,25,-1
 767.5 1228 l 1,18,-1
EndSplineSet
Validated: 1
EndChar

StartChar: eacute
Encoding: 233 233 169
Width: 1535
GlyphClass: 1
Flags: W
LayerCount: 2
Fore
SplineSet
1151.25 614 m 1,0,-1
 1151.25 819 l 1,1,-1
 511.25 819 l 1,2,-1
 511.25 614 l 1,3,-1
 1151.25 614 l 1,0,-1
383.75 0 m 1,4,-1
 383.75 204 l 1,5,-1
 255 204 l 1,6,-1
 255 819 l 1,7,-1
 383.75 819 l 1,8,-1
 383.75 1024 l 1,9,-1
 1280 1024 l 1,10,-1
 1280 819 l 1,11,-1
 1407.5 819 l 1,12,-1
 1407.5 409 l 1,13,-1
 511.25 409 l 1,14,-1
 511.25 204 l 1,15,-1
 1280 204 l 1,16,-1
 1280 0 l 1,17,-1
 383.75 0 l 1,4,-1
640 1228 m 1,18,-1
 640 1433 l 1,19,-1
 767.5 1433 l 1,20,-1
 767.5 1638 l 1,21,-1
 1023.75 1638 l 1,22,-1
 1023.75 1433 l 1,23,-1
 895 1433 l 1,24,-1
 895 1228 l 1,25,-1
 640 1228 l 1,18,-1
EndSplineSet
Validated: 1
EndChar

StartChar: ecircumflex
Encoding: 234 234 170
Width: 1535
GlyphClass: 1
Flags: W
LayerCount: 2
Fore
SplineSet
1151.25 614 m 1,0,-1
 1151.25 819 l 1,1,-1
 511.25 819 l 1,2,-1
 511.25 614 l 1,3,-1
 1151.25 614 l 1,0,-1
383.75 0 m 1,4,-1
 383.75 204 l 1,5,-1
 255 204 l 1,6,-1
 255 819 l 1,7,-1
 383.75 819 l 1,8,-1
 383.75 1024 l 1,9,-1
 1280 1024 l 1,10,-1
 1280 819 l 1,11,-1
 1407.5 819 l 1,12,-1
 1407.5 409 l 1,13,-1
 511.25 409 l 1,14,-1
 511.25 204 l 1,15,-1
 1280 204 l 1,16,-1
 1280 0 l 1,17,-1
 383.75 0 l 1,4,-1
511.25 1228 m 1,18,-1
 511.25 1433 l 1,19,-1
 640 1433 l 1,20,-1
 640 1638 l 1,21,-1
 1023.75 1638 l 1,22,-1
 1023.75 1433 l 1,23,-1
 1151.25 1433 l 1,24,-1
 1151.25 1228 l 1,25,-1
 895 1228 l 1,26,-1
 895 1433 l 1,27,-1
 767.5 1433 l 1,28,-1
 767.5 1228 l 1,29,-1
 511.25 1228 l 1,18,-1
EndSplineSet
Validated: 1
EndChar

StartChar: edieresis
Encoding: 235 235 171
Width: 1535
GlyphClass: 1
Flags: W
LayerCount: 2
Fore
SplineSet
1151.25 614 m 1,0,-1
 1151.25 819 l 1,1,-1
 511.25 819 l 1,2,-1
 511.25 614 l 1,3,-1
 1151.25 614 l 1,0,-1
383.75 0 m 1,4,-1
 383.75 204 l 1,5,-1
 255 204 l 1,6,-1
 255 819 l 1,7,-1
 383.75 819 l 1,8,-1
 383.75 1024 l 1,9,-1
 1280 1024 l 1,10,-1
 1280 819 l 1,11,-1
 1407.5 819 l 1,12,-1
 1407.5 409 l 1,13,-1
 511.25 409 l 1,14,-1
 511.25 204 l 1,15,-1
 1280 204 l 1,16,-1
 1280 0 l 1,17,-1
 383.75 0 l 1,4,-1
383.75 1229 m 5,18,-1
 383.75 1434 l 5,19,-1
 640 1434 l 5,20,-1
 640 1229 l 5,21,-1
 383.75 1229 l 5,18,-1
1023.75 1229 m 5,22,-1
 1023.75 1434 l 5,23,-1
 1280 1434 l 5,24,-1
 1280 1229 l 5,25,-1
 1023.75 1229 l 5,22,-1
EndSplineSet
EndChar

StartChar: igrave
Encoding: 236 236 172
Width: 1535
GlyphClass: 1
Flags: W
LayerCount: 2
Fore
SplineSet
256 0 m 5,0,-1
 256 204 l 5,1,-1
 640 204 l 5,2,-1
 640 819 l 5,3,-1
 383 819 l 5,4,-1
 383 1024 l 5,5,-1
 895 1024 l 5,6,-1
 895 204 l 5,7,-1
 1279 204 l 5,8,-1
 1279 0 l 5,9,-1
 256 0 l 5,0,-1
640 1228 m 1,10,-1
 640 1433 l 1,11,-1
 511.25 1433 l 1,12,-1
 511.25 1638 l 1,13,-1
 767.5 1638 l 1,14,-1
 767.5 1433 l 1,15,-1
 895 1433 l 1,16,-1
 895 1228 l 1,17,-1
 640 1228 l 1,10,-1
EndSplineSet
EndChar

StartChar: iacute
Encoding: 237 237 173
Width: 1535
GlyphClass: 1
Flags: W
LayerCount: 2
Fore
SplineSet
256 0 m 5,0,-1
 256 204 l 5,1,-1
 640 204 l 5,2,-1
 640 819 l 5,3,-1
 383 819 l 5,4,-1
 383 1024 l 5,5,-1
 895 1024 l 5,6,-1
 895 204 l 5,7,-1
 1279 204 l 5,8,-1
 1279 0 l 5,9,-1
 256 0 l 5,0,-1
640 1228 m 1,10,-1
 640 1433 l 1,11,-1
 767.5 1433 l 1,12,-1
 767.5 1638 l 1,13,-1
 1023.75 1638 l 1,14,-1
 1023.75 1433 l 1,15,-1
 895 1433 l 1,16,-1
 895 1228 l 1,17,-1
 640 1228 l 1,10,-1
EndSplineSet
EndChar

StartChar: icircumflex
Encoding: 238 238 174
Width: 1535
GlyphClass: 1
Flags: W
LayerCount: 2
Fore
SplineSet
256 0 m 5,0,-1
 256 204 l 5,1,-1
 640 204 l 5,2,-1
 640 819 l 5,3,-1
 383 819 l 5,4,-1
 383 1024 l 5,5,-1
 895 1024 l 5,6,-1
 895 204 l 5,7,-1
 1279 204 l 5,8,-1
 1279 0 l 5,9,-1
 256 0 l 5,0,-1
511.25 1228 m 1,10,-1
 511.25 1433 l 1,11,-1
 640 1433 l 1,12,-1
 640 1638 l 1,13,-1
 1023.75 1638 l 1,14,-1
 1023.75 1433 l 1,15,-1
 1151.25 1433 l 1,16,-1
 1151.25 1228 l 1,17,-1
 895 1228 l 1,18,-1
 895 1433 l 1,19,-1
 767.5 1433 l 1,20,-1
 767.5 1228 l 1,21,-1
 511.25 1228 l 1,10,-1
EndSplineSet
EndChar

StartChar: idieresis
Encoding: 239 239 175
Width: 1535
GlyphClass: 1
Flags: W
LayerCount: 2
Fore
SplineSet
256 0 m 1,0,-1
 256 204 l 1,1,-1
 640 204 l 1,2,-1
 640 819 l 1,3,-1
 383 819 l 1,4,-1
 383 1024 l 1,5,-1
 895 1024 l 1,6,-1
 895 204 l 1,7,-1
 1279 204 l 1,8,-1
 1279 0 l 1,9,-1
 256 0 l 1,0,-1
383.75 1229 m 5,10,-1
 383.75 1434 l 5,11,-1
 640 1434 l 5,12,-1
 640 1229 l 5,13,-1
 383.75 1229 l 5,10,-1
895 1229 m 5,14,-1
 895 1434 l 5,15,-1
 1151.25 1434 l 5,16,-1
 1151.25 1229 l 5,17,-1
 895 1229 l 5,14,-1
EndSplineSet
EndChar

StartChar: eth
Encoding: 240 240 176
Width: 1535
GlyphClass: 1
Flags: W
LayerCount: 2
Fore
SplineSet
1151.25 204 m 1,0,-1
 1151.25 819 l 1,1,-1
 511.25 819 l 1,2,-1
 511.25 204 l 1,3,-1
 1151.25 204 l 1,0,-1
383.75 0 m 1,4,-1
 383.75 204 l 1,5,-1
 255 204 l 1,6,-1
 255 819 l 1,7,-1
 383.75 819 l 1,8,-1
 383.75 1024 l 1,9,-1
 1023.75 1024 l 1,10,-1
 1023.75 1228 l 1,11,-1
 511.25 1228 l 1,12,-1
 511.25 1433 l 1,13,-1
 767.5 1433 l 1,14,-1
 767.5 1638 l 1,15,-1
 1023.75 1638 l 1,16,-1
 1023.75 1433 l 1,17,-1
 1535 1433 l 1,18,-1
 1535 1228 l 1,19,-1
 1280 1228 l 1,20,-1
 1280 1024 l 1,21,-1
 1407.5 1024 l 1,22,-1
 1407.5 204 l 1,23,-1
 1280 204 l 1,24,-1
 1280 0 l 1,25,-1
 383.75 0 l 1,4,-1
EndSplineSet
Validated: 1
EndChar

StartChar: ntilde
Encoding: 241 241 177
Width: 1535
GlyphClass: 1
Flags: W
LayerCount: 2
Fore
SplineSet
255 0 m 1,0,-1
 255 1024 l 1,1,-1
 511.25 1024 l 1,2,-1
 511.25 819 l 1,3,-1
 640 819 l 1,4,-1
 640 614 l 1,5,-1
 511.25 614 l 1,6,-1
 511.25 0 l 1,7,-1
 255 0 l 1,0,-1
1151.25 0 m 1,8,-1
 1151.25 819 l 1,9,-1
 640 819 l 1,10,-1
 640 1024 l 1,11,-1
 1280 1024 l 1,12,-1
 1280 819 l 1,13,-1
 1407.5 819 l 1,14,-1
 1407.5 0 l 1,15,-1
 1151.25 0 l 1,8,-1
255 1228 m 1,16,-1
 255 1433 l 1,17,-1
 383.75 1433 l 1,18,-1
 383.75 1638 l 1,19,-1
 895 1638 l 1,20,-1
 895 1433 l 1,21,-1
 1151.25 1433 l 1,22,-1
 1151.25 1638 l 1,23,-1
 1407.5 1638 l 1,24,-1
 1407.5 1433 l 1,25,-1
 1280 1433 l 1,26,-1
 1280 1228 l 1,27,-1
 767.5 1228 l 1,28,-1
 767.5 1433 l 1,29,-1
 511.25 1433 l 1,30,-1
 511.25 1228 l 1,31,-1
 255 1228 l 1,16,-1
EndSplineSet
Validated: 5
EndChar

StartChar: ograve
Encoding: 242 242 178
Width: 1535
GlyphClass: 1
Flags: W
LayerCount: 2
Fore
SplineSet
1151.25 204 m 1,0,-1
 1151.25 819 l 1,1,-1
 511.25 819 l 1,2,-1
 511.25 204 l 1,3,-1
 1151.25 204 l 1,0,-1
383.75 0 m 1,4,-1
 383.75 204 l 1,5,-1
 255 204 l 1,6,-1
 255 819 l 1,7,-1
 383.75 819 l 1,8,-1
 383.75 1024 l 1,9,-1
 1280 1024 l 1,10,-1
 1280 819 l 1,11,-1
 1407.5 819 l 1,12,-1
 1407.5 204 l 1,13,-1
 1280 204 l 1,14,-1
 1280 0 l 1,15,-1
 383.75 0 l 1,4,-1
640 1228 m 1,16,-1
 640 1433 l 1,17,-1
 511.25 1433 l 1,18,-1
 511.25 1638 l 1,19,-1
 767.5 1638 l 1,20,-1
 767.5 1433 l 1,21,-1
 895 1433 l 1,22,-1
 895 1228 l 1,23,-1
 640 1228 l 1,16,-1
EndSplineSet
Validated: 1
EndChar

StartChar: oacute
Encoding: 243 243 179
Width: 1535
GlyphClass: 1
Flags: W
LayerCount: 2
Fore
SplineSet
1151.25 204 m 1,0,-1
 1151.25 819 l 1,1,-1
 511.25 819 l 1,2,-1
 511.25 204 l 1,3,-1
 1151.25 204 l 1,0,-1
383.75 0 m 1,4,-1
 383.75 204 l 1,5,-1
 255 204 l 1,6,-1
 255 819 l 1,7,-1
 383.75 819 l 1,8,-1
 383.75 1024 l 1,9,-1
 1280 1024 l 1,10,-1
 1280 819 l 1,11,-1
 1407.5 819 l 1,12,-1
 1407.5 204 l 1,13,-1
 1280 204 l 1,14,-1
 1280 0 l 1,15,-1
 383.75 0 l 1,4,-1
767.5 1228 m 1,16,-1
 767.5 1433 l 1,17,-1
 895 1433 l 1,18,-1
 895 1638 l 1,19,-1
 1151.25 1638 l 1,20,-1
 1151.25 1433 l 1,21,-1
 1023.75 1433 l 1,22,-1
 1023.75 1228 l 1,23,-1
 767.5 1228 l 1,16,-1
EndSplineSet
Validated: 1
EndChar

StartChar: ocircumflex
Encoding: 244 244 180
Width: 1535
GlyphClass: 1
Flags: W
LayerCount: 2
Fore
SplineSet
1151.25 204 m 1,0,-1
 1151.25 819 l 1,1,-1
 511.25 819 l 1,2,-1
 511.25 204 l 1,3,-1
 1151.25 204 l 1,0,-1
383.75 0 m 1,4,-1
 383.75 204 l 1,5,-1
 255 204 l 1,6,-1
 255 819 l 1,7,-1
 383.75 819 l 1,8,-1
 383.75 1024 l 1,9,-1
 1280 1024 l 1,10,-1
 1280 819 l 1,11,-1
 1407.5 819 l 1,12,-1
 1407.5 204 l 1,13,-1
 1280 204 l 1,14,-1
 1280 0 l 1,15,-1
 383.75 0 l 1,4,-1
511.25 1228 m 1,16,-1
 511.25 1433 l 1,17,-1
 640 1433 l 1,18,-1
 640 1638 l 1,19,-1
 1023.75 1638 l 1,20,-1
 1023.75 1433 l 1,21,-1
 1151.25 1433 l 1,22,-1
 1151.25 1228 l 1,23,-1
 895 1228 l 1,24,-1
 895 1433 l 1,25,-1
 767.5 1433 l 1,26,-1
 767.5 1228 l 1,27,-1
 511.25 1228 l 1,16,-1
EndSplineSet
Validated: 1
EndChar

StartChar: otilde
Encoding: 245 245 181
Width: 1535
GlyphClass: 1
Flags: W
LayerCount: 2
Fore
SplineSet
1151.25 204 m 1,0,-1
 1151.25 819 l 1,1,-1
 511.25 819 l 1,2,-1
 511.25 204 l 1,3,-1
 1151.25 204 l 1,0,-1
383.75 0 m 1,4,-1
 383.75 204 l 1,5,-1
 255 204 l 1,6,-1
 255 819 l 1,7,-1
 383.75 819 l 1,8,-1
 383.75 1024 l 1,9,-1
 1280 1024 l 1,10,-1
 1280 819 l 1,11,-1
 1407.5 819 l 1,12,-1
 1407.5 204 l 1,13,-1
 1280 204 l 1,14,-1
 1280 0 l 1,15,-1
 383.75 0 l 1,4,-1
255 1228 m 1,16,-1
 255 1433 l 1,17,-1
 383.75 1433 l 1,18,-1
 383.75 1638 l 1,19,-1
 895 1638 l 1,20,-1
 895 1433 l 1,21,-1
 1151.25 1433 l 1,22,-1
 1151.25 1638 l 1,23,-1
 1407.5 1638 l 1,24,-1
 1407.5 1433 l 1,25,-1
 1280 1433 l 1,26,-1
 1280 1228 l 1,27,-1
 767.5 1228 l 1,28,-1
 767.5 1433 l 1,29,-1
 511.25 1433 l 1,30,-1
 511.25 1228 l 1,31,-1
 255 1228 l 1,16,-1
EndSplineSet
Validated: 1
EndChar

StartChar: odieresis
Encoding: 246 246 182
Width: 1535
GlyphClass: 1
Flags: W
LayerCount: 2
Fore
SplineSet
1151.25 204 m 1,0,-1
 1151.25 819 l 1,1,-1
 511.25 819 l 1,2,-1
 511.25 204 l 1,3,-1
 1151.25 204 l 1,0,-1
383.75 0 m 1,4,-1
 383.75 204 l 1,5,-1
 255 204 l 1,6,-1
 255 819 l 1,7,-1
 383.75 819 l 1,8,-1
 383.75 1024 l 1,9,-1
 1280 1024 l 1,10,-1
 1280 819 l 1,11,-1
 1407.5 819 l 1,12,-1
 1407.5 204 l 1,13,-1
 1280 204 l 1,14,-1
 1280 0 l 1,15,-1
 383.75 0 l 1,4,-1
383.75 1229 m 5,16,-1
 383.75 1434 l 5,17,-1
 640 1434 l 5,18,-1
 640 1229 l 5,19,-1
 383.75 1229 l 5,16,-1
1023.75 1229 m 5,20,-1
 1023.75 1434 l 5,21,-1
 1280 1434 l 5,22,-1
 1280 1229 l 5,23,-1
 1023.75 1229 l 5,20,-1
EndSplineSet
EndChar

StartChar: divide
Encoding: 247 247 183
Width: 1535
GlyphClass: 1
Flags: W
LayerCount: 2
Fore
SplineSet
640 0 m 1,0,-1
 640 204 l 1,1,-1
 895 204 l 1,2,-1
 895 0 l 1,3,-1
 640 0 l 1,0,-1
255 409 m 1,4,-1
 255 614 l 1,5,-1
 1280 614 l 1,6,-1
 1280 409 l 1,7,-1
 255 409 l 1,4,-1
640 819 m 1,8,-1
 640 1024 l 1,9,-1
 895 1024 l 1,10,-1
 895 819 l 1,11,-1
 640 819 l 1,8,-1
EndSplineSet
Validated: 1
EndChar

StartChar: oslash
Encoding: 248 248 184
Width: 1535
GlyphClass: 1
Flags: W
LayerCount: 2
Fore
SplineSet
511.25 204 m 1,0,-1
 511.25 409 l 1,1,-1
 640 409 l 1,2,-1
 640 614 l 1,3,-1
 767.5 614 l 1,4,-1
 767.5 819 l 1,5,-1
 383.75 819 l 1,6,-1
 383.75 204 l 1,7,-1
 511.25 204 l 1,0,-1
1151.25 204 m 1,8,-1
 1151.25 819 l 1,9,-1
 1023.75 819 l 1,10,-1
 1023.75 614 l 1,11,-1
 895 614 l 1,12,-1
 895 409 l 1,13,-1
 767.5 409 l 1,14,-1
 767.5 204 l 1,15,-1
 1151.25 204 l 1,8,-1
383.75 -204 m 1,16,-1
 383.75 0 l 1,17,-1
 255 0 l 1,18,-1
 255 204 l 1,19,-1
 127.5 204 l 1,20,-1
 127.5 819 l 1,21,-1
 255 819 l 1,22,-1
 255 1024 l 1,23,-1
 895 1024 l 1,24,-1
 895 1228 l 1,25,-1
 1151.25 1228 l 1,26,-1
 1151.25 1024 l 1,27,-1
 1280 1024 l 1,28,-1
 1280 819 l 1,29,-1
 1407.5 819 l 1,30,-1
 1407.5 204 l 1,31,-1
 1280 204 l 1,32,-1
 1280 0 l 1,33,-1
 640 0 l 1,34,-1
 640 -204 l 1,35,-1
 383.75 -204 l 1,16,-1
EndSplineSet
Validated: 1
EndChar

StartChar: ugrave
Encoding: 249 249 185
Width: 1535
GlyphClass: 1
Flags: W
LayerCount: 2
Fore
SplineSet
383.75 0 m 1,0,-1
 383.75 204 l 1,1,-1
 255 204 l 1,2,-1
 255 1024 l 1,3,-1
 511.25 1024 l 1,4,-1
 511.25 204 l 1,5,-1
 1023.75 204 l 1,6,-1
 1023.75 0 l 1,7,-1
 383.75 0 l 1,0,-1
1151.25 0 m 1,8,-1
 1151.25 204 l 1,9,-1
 1023.75 204 l 1,10,-1
 1023.75 409 l 1,11,-1
 1151.25 409 l 1,12,-1
 1151.25 1024 l 1,13,-1
 1407.5 1024 l 1,14,-1
 1407.5 0 l 1,15,-1
 1151.25 0 l 1,8,-1
767.5 1228 m 1,16,-1
 767.5 1433 l 1,17,-1
 640 1433 l 1,18,-1
 640 1638 l 1,19,-1
 895 1638 l 1,20,-1
 895 1433 l 1,21,-1
 1023.75 1433 l 1,22,-1
 1023.75 1228 l 1,23,-1
 767.5 1228 l 1,16,-1
EndSplineSet
Validated: 5
EndChar

StartChar: uacute
Encoding: 250 250 186
Width: 1535
GlyphClass: 1
Flags: W
LayerCount: 2
Fore
SplineSet
383.75 0 m 1,0,-1
 383.75 204 l 1,1,-1
 255 204 l 1,2,-1
 255 1024 l 1,3,-1
 511.25 1024 l 1,4,-1
 511.25 204 l 1,5,-1
 1023.75 204 l 1,6,-1
 1023.75 0 l 1,7,-1
 383.75 0 l 1,0,-1
1151.25 0 m 1,8,-1
 1151.25 204 l 1,9,-1
 1023.75 204 l 1,10,-1
 1023.75 409 l 1,11,-1
 1151.25 409 l 1,12,-1
 1151.25 1024 l 1,13,-1
 1407.5 1024 l 1,14,-1
 1407.5 0 l 1,15,-1
 1151.25 0 l 1,8,-1
640 1228 m 1,16,-1
 640 1433 l 1,17,-1
 767.5 1433 l 1,18,-1
 767.5 1638 l 1,19,-1
 1023.75 1638 l 1,20,-1
 1023.75 1433 l 1,21,-1
 895 1433 l 1,22,-1
 895 1228 l 1,23,-1
 640 1228 l 1,16,-1
EndSplineSet
Validated: 5
EndChar

StartChar: ucircumflex
Encoding: 251 251 187
Width: 1535
GlyphClass: 1
Flags: W
LayerCount: 2
Fore
SplineSet
383.75 0 m 1,0,-1
 383.75 204 l 1,1,-1
 255 204 l 1,2,-1
 255 1024 l 1,3,-1
 511.25 1024 l 1,4,-1
 511.25 204 l 1,5,-1
 1023.75 204 l 1,6,-1
 1023.75 0 l 1,7,-1
 383.75 0 l 1,0,-1
1151.25 0 m 1,8,-1
 1151.25 204 l 1,9,-1
 1023.75 204 l 1,10,-1
 1023.75 409 l 1,11,-1
 1151.25 409 l 1,12,-1
 1151.25 1024 l 1,13,-1
 1407.5 1024 l 1,14,-1
 1407.5 0 l 1,15,-1
 1151.25 0 l 1,8,-1
511.25 1228 m 1,16,-1
 511.25 1433 l 1,17,-1
 640 1433 l 1,18,-1
 640 1638 l 1,19,-1
 1023.75 1638 l 1,20,-1
 1023.75 1433 l 1,21,-1
 1151.25 1433 l 1,22,-1
 1151.25 1228 l 1,23,-1
 895 1228 l 1,24,-1
 895 1433 l 1,25,-1
 767.5 1433 l 1,26,-1
 767.5 1228 l 1,27,-1
 511.25 1228 l 1,16,-1
EndSplineSet
Validated: 5
EndChar

StartChar: udieresis
Encoding: 252 252 188
Width: 1535
GlyphClass: 1
Flags: W
LayerCount: 2
Fore
SplineSet
383.75 0 m 1,0,-1
 383.75 204 l 1,1,-1
 255 204 l 1,2,-1
 255 1024 l 1,3,-1
 511.25 1024 l 1,4,-1
 511.25 204 l 1,5,-1
 1023.75 204 l 1,6,-1
 1023.75 0 l 1,7,-1
 383.75 0 l 1,0,-1
1151.25 0 m 1,8,-1
 1151.25 204 l 1,9,-1
 1023.75 204 l 1,10,-1
 1023.75 409 l 1,11,-1
 1151.25 409 l 1,12,-1
 1151.25 1024 l 1,13,-1
 1407.5 1024 l 1,14,-1
 1407.5 0 l 1,15,-1
 1151.25 0 l 1,8,-1
383.75 1229 m 5,16,-1
 383.75 1434 l 5,17,-1
 640 1434 l 5,18,-1
 640 1229 l 5,19,-1
 383.75 1229 l 5,16,-1
1023.75 1229 m 5,20,-1
 1023.75 1434 l 5,21,-1
 1280 1434 l 5,22,-1
 1280 1229 l 5,23,-1
 1023.75 1229 l 5,20,-1
EndSplineSet
EndChar

StartChar: yacute
Encoding: 253 253 189
Width: 1535
GlyphClass: 1
Flags: W
LayerCount: 2
Fore
SplineSet
256 -408 m 5,0,-1
 256 -204 l 5,1,-1
 512 -204 l 5,2,-1
 511 0 l 5,3,4
 511 0 511 0 640 0 c 5,5,6
 640 0 640 0 640 409 c 5,7,-1
 511 409 l 5,8,-1
 511 614 l 5,9,-1
 384 614 l 5,10,-1
 384 819 l 5,11,-1
 255 819 l 5,12,-1
 255 1024 l 5,13,-1
 511 1024 l 5,14,-1
 511 819 l 5,15,-1
 640 819 l 5,16,-1
 640 614 l 5,17,-1
 768 614 l 5,18,-1
 768 409 l 5,19,-1
 895 409 l 5,20,-1
 895 614 l 5,21,-1
 1024 614 l 5,22,-1
 1024 819 l 5,23,-1
 1151 819 l 5,24,-1
 1151 1024 l 5,25,26
 1152 1024 1152 1024 1408 1024 c 5,27,-1
 1408 819 l 5,28,-1
 1280 819 l 5,29,-1
 1280 614 l 5,30,-1
 1151 614 l 5,31,-1
 1151 409 l 5,32,-1
 1024 409 l 5,33,-1
 1024 204 l 5,34,-1
 895 204 l 5,35,-1
 895 0 l 5,36,37
 895 0 895 0 768 0 c 5,38,39
 768 0 768 0 767 -204 c 5,40,41
 767 -204 767 -204 640 -204 c 5,42,-1
 640 -408 l 5,43,-1
 256 -408 l 5,0,-1
767.5 1228 m 1,44,-1
 767.5 1433 l 1,45,-1
 895 1433 l 1,46,-1
 895 1638 l 1,47,-1
 1151.25 1638 l 1,48,-1
 1151.25 1433 l 1,49,-1
 1023.75 1433 l 1,50,-1
 1023.75 1228 l 1,51,-1
 767.5 1228 l 1,44,-1
EndSplineSet
Validated: 1
EndChar

StartChar: thorn
Encoding: 254 254 190
Width: 1535
GlyphClass: 1
Flags: W
LayerCount: 2
Fore
SplineSet
1151.25 204 m 1,0,-1
 1151.25 819 l 1,1,-1
 640 819 l 1,2,-1
 640 204 l 1,3,-1
 1151.25 204 l 1,0,-1
383.75 -409 m 1,4,-1
 383.75 1433 l 1,5,-1
 640 1433 l 1,6,-1
 640 1024 l 1,7,-1
 1280 1024 l 1,8,-1
 1280 819 l 1,9,-1
 1407.5 819 l 1,10,-1
 1407.5 204 l 1,11,-1
 1280 204 l 1,12,-1
 1280 0 l 1,13,-1
 640 0 l 1,14,-1
 640 -409 l 1,15,-1
 383.75 -409 l 1,4,-1
EndSplineSet
Validated: 1
EndChar

StartChar: ydieresis
Encoding: 255 255 191
Width: 1535
GlyphClass: 1
Flags: W
LayerCount: 2
Fore
SplineSet
128 -408 m 1,0,-1
 128 -204 l 1,1,-1
 384 -204 l 1,2,-1
 383 0 l 1,3,4
 383 0 383 0 512 0 c 1,5,6
 512 0 512 0 512 409 c 1,7,-1
 383 409 l 1,8,-1
 383 614 l 1,9,-1
 256 614 l 1,10,-1
 256 819 l 1,11,-1
 127 819 l 1,12,-1
 127 1024 l 1,13,-1
 383 1024 l 1,14,-1
 383 819 l 1,15,-1
 512 819 l 1,16,-1
 512 614 l 1,17,-1
 640 614 l 1,18,-1
 640 409 l 1,19,-1
 767 409 l 1,20,-1
 767 614 l 1,21,-1
 896 614 l 1,22,-1
 896 819 l 1,23,-1
 1023 819 l 1,24,-1
 1023 1024 l 1,25,26
 1024 1024 1024 1024 1280 1024 c 1,27,-1
 1280 819 l 1,28,-1
 1152 819 l 1,29,-1
 1152 614 l 1,30,-1
 1023 614 l 1,31,-1
 1023 409 l 1,32,-1
 896 409 l 1,33,-1
 896 204 l 1,34,-1
 767 204 l 1,35,-1
 767 0 l 1,36,37
 767 0 767 0 640 0 c 1,38,39
 640 0 640 0 639 -204 c 1,40,41
 639 -204 639 -204 512 -204 c 1,42,-1
 512 -408 l 1,43,-1
 128 -408 l 1,0,-1
255 1229 m 1,44,-1
 255 1434 l 1,45,-1
 511 1434 l 1,46,-1
 511 1229 l 1,47,-1
 255 1229 l 1,44,-1
895 1229 m 1,48,-1
 895 1434 l 1,49,-1
 1151 1434 l 1,50,-1
 1151 1229 l 1,51,-1
 895 1229 l 1,48,-1
EndSplineSet
EndChar

StartChar: OE
Encoding: 338 338 192
Width: 1535
GlyphClass: 1
Flags: W
LayerCount: 2
Fore
SplineSet
767.5 204 m 1,0,-1
 767.5 1228 l 1,1,-1
 511.25 1228 l 1,2,-1
 511.25 1024 l 1,3,-1
 383.75 1024 l 1,4,-1
 383.75 409 l 1,5,-1
 511.25 409 l 1,6,-1
 511.25 204 l 1,7,-1
 767.5 204 l 1,0,-1
383.75 0 m 1,8,-1
 383.75 204 l 1,9,-1
 255 204 l 1,10,-1
 255 409 l 1,11,-1
 127.5 409 l 1,12,-1
 127.5 1024 l 1,13,-1
 255 1024 l 1,14,-1
 255 1228 l 1,15,-1
 383.75 1228 l 1,16,-1
 383.75 1433 l 1,17,-1
 1407.5 1433 l 1,18,-1
 1407.5 1228 l 1,19,-1
 1023.75 1228 l 1,20,-1
 1023.75 819 l 1,21,-1
 1280 819 l 1,22,-1
 1280 614 l 1,23,-1
 1023.75 614 l 1,24,-1
 1023.75 204 l 1,25,-1
 1407.5 204 l 1,26,-1
 1407.5 0 l 1,27,-1
 383.75 0 l 1,8,-1
EndSplineSet
Validated: 1
EndChar

StartChar: oe
Encoding: 339 339 193
Width: 1535
GlyphClass: 1
Flags: W
LayerCount: 2
Fore
SplineSet
640 204 m 1,0,-1
 640 819 l 1,1,-1
 383.75 819 l 1,2,-1
 383.75 204 l 1,3,-1
 640 204 l 1,0,-1
1151.25 614 m 1,4,-1
 1151.25 819 l 1,5,-1
 895 819 l 1,6,-1
 895 614 l 1,7,-1
 1151.25 614 l 1,4,-1
255 0 m 1,8,-1
 255 204 l 1,9,-1
 127.5 204 l 1,10,-1
 127.5 819 l 1,11,-1
 255 819 l 1,12,-1
 255 1024 l 1,13,-1
 1280 1024 l 1,14,-1
 1280 819 l 1,15,-1
 1407.5 819 l 1,16,-1
 1407.5 409 l 1,17,-1
 895 409 l 1,18,-1
 895 204 l 1,19,-1
 1280 204 l 1,20,-1
 1280 0 l 1,21,-1
 255 0 l 1,8,-1
EndSplineSet
Validated: 1
EndChar

StartChar: Scaron
Encoding: 352 352 194
Width: 1535
GlyphClass: 1
Flags: W
LayerCount: 2
Fore
SplineSet
256 0 m 1,0,-1
 256 204 l 1,1,-1
 1151 204 l 1,2,-1
 1151 614 l 1,3,-1
 384 614 l 1,4,-1
 384 819 l 1,5,-1
 255 819 l 1,6,-1
 255 1024 l 1,7,-1
 384 1024 l 1,8,-1
 384 1228 l 1,9,-1
 640 1228 l 1,10,-1
 640 1433 l 1,11,-1
 511 1433 l 1,12,-1
 511 1638 l 1,13,14
 512 1638 512 1638 768 1638 c 1,15,-1
 768 1433 l 1,16,-1
 895 1433 l 1,17,-1
 895 1638 l 1,18,-1
 1151 1638 l 1,19,-1
 1151 1433 l 1,20,-1
 1024 1433 l 1,21,-1
 1024 1228 l 1,22,-1
 1408 1228 l 5,23,-1
 1408 1024 l 5,24,-1
 511 1024 l 1,25,-1
 511 819 l 1,26,-1
 1280 819 l 1,27,-1
 1280 614 l 1,28,-1
 1408 614 l 1,29,-1
 1408 204 l 1,30,-1
 1280 204 l 1,31,-1
 1280 0 l 1,32,-1
 256 0 l 1,0,-1
EndSplineSet
EndChar

StartChar: scaron
Encoding: 353 353 195
Width: 1535
GlyphClass: 1
Flags: W
LayerCount: 2
Fore
SplineSet
256 0 m 5,0,-1
 256 204 l 5,1,-1
 1151 204 l 1,2,-1
 1151 409 l 1,3,-1
 384 409 l 1,4,-1
 384 614 l 1,5,-1
 255 614 l 1,6,-1
 255 819 l 1,7,-1
 384 819 l 1,8,-1
 384 1024 l 1,9,-1
 1408 1024 l 1,10,-1
 1408 819 l 1,11,-1
 511 819 l 1,12,-1
 511 614 l 1,13,-1
 1280 614 l 1,14,-1
 1280 409 l 1,15,-1
 1408 409 l 1,16,-1
 1408 204 l 1,17,-1
 1280 204 l 1,18,-1
 1280 0 l 5,19,-1
 256 0 l 5,0,-1
640 1228 m 1,20,-1
 640 1433 l 1,21,-1
 511 1433 l 1,22,-1
 511 1638 l 1,23,24
 512 1638 512 1638 768 1638 c 1,25,-1
 768 1433 l 1,26,-1
 895 1433 l 1,27,-1
 895 1638 l 1,28,-1
 1151 1638 l 1,29,-1
 1151 1433 l 1,30,-1
 1024 1433 l 1,31,-1
 1024 1228 l 1,32,-1
 640 1228 l 1,20,-1
EndSplineSet
Validated: 1
EndChar

StartChar: Zcaron
Encoding: 381 381 196
Width: 1535
GlyphClass: 1
Flags: W
LayerCount: 2
Fore
SplineSet
255 0 m 1,0,-1
 255 204 l 1,1,-1
 383.75 204 l 1,2,-1
 383.75 409 l 1,3,-1
 511.25 409 l 1,4,-1
 511.25 614 l 1,5,-1
 640 614 l 1,6,-1
 640 819 l 1,7,-1
 767.5 819 l 1,8,-1
 767.5 1024 l 1,9,-1
 255 1024 l 1,10,-1
 255 1228 l 1,11,-1
 640 1228 l 1,12,-1
 640 1433 l 1,13,-1
 511.25 1433 l 1,14,-1
 511.25 1638 l 1,15,-1
 767.5 1638 l 1,16,-1
 767.5 1433 l 1,17,-1
 895 1433 l 1,18,-1
 895 1638 l 1,19,-1
 1151.25 1638 l 1,20,-1
 1151.25 1433 l 1,21,-1
 1023.75 1433 l 1,22,-1
 1023.75 1228 l 1,23,-1
 1280 1228 l 1,24,-1
 1280 1024 l 1,25,-1
 1023.75 1024 l 1,26,-1
 1023.75 819 l 1,27,-1
 895 819 l 1,28,-1
 895 614 l 1,29,-1
 767.5 614 l 1,30,-1
 767.5 409 l 1,31,-1
 640 409 l 1,32,-1
 640 204 l 1,33,-1
 1280 204 l 1,34,-1
 1280 0 l 1,35,-1
 255 0 l 1,0,-1
EndSplineSet
Validated: 1
EndChar

StartChar: zcaron
Encoding: 382 382 197
Width: 1535
GlyphClass: 1
Flags: W
LayerCount: 2
Fore
SplineSet
255 0 m 1,0,-1
 255 204 l 1,1,-1
 511.25 204 l 1,2,-1
 511.25 409 l 1,3,-1
 640 409 l 1,4,-1
 640 614 l 1,5,-1
 895 614 l 1,6,-1
 895 819 l 1,7,-1
 255 819 l 1,8,-1
 255 1024 l 1,9,-1
 1407.5 1024 l 1,10,-1
 1407.5 819 l 1,11,-1
 1151.25 819 l 1,12,-1
 1151.25 614 l 1,13,-1
 1023.75 614 l 1,14,-1
 1023.75 409 l 1,15,-1
 767.5 409 l 1,16,-1
 767.5 204 l 1,17,-1
 1407.5 204 l 1,18,-1
 1407.5 0 l 1,19,-1
 255 0 l 1,0,-1
640 1228 m 1,20,-1
 640 1433 l 1,21,-1
 511.25 1433 l 1,22,-1
 511.25 1638 l 1,23,-1
 767.5 1638 l 1,24,-1
 767.5 1433 l 1,25,-1
 895 1433 l 1,26,-1
 895 1638 l 1,27,-1
 1151.25 1638 l 1,28,-1
 1151.25 1433 l 1,29,-1
 1023.75 1433 l 1,30,-1
 1023.75 1228 l 1,31,-1
 640 1228 l 1,20,-1
EndSplineSet
Validated: 1
EndChar

StartChar: circumflex
Encoding: 710 710 198
Width: 1535
GlyphClass: 1
Flags: W
LayerCount: 2
Fore
SplineSet
0 -614 m 1,0,-1
 0 -409 l 1,1,-1
 1535 -409 l 1,2,-1
 1535 -614 l 1,3,-1
 0 -614 l 1,0,-1
511.25 1228 m 1,4,-1
 511.25 1433 l 1,5,-1
 640 1433 l 1,6,-1
 640 1638 l 1,7,-1
 1023.75 1638 l 1,8,-1
 1023.75 1433 l 1,9,-1
 1151.25 1433 l 1,10,-1
 1151.25 1228 l 1,11,-1
 895 1228 l 1,12,-1
 895 1433 l 1,13,-1
 767.5 1433 l 1,14,-1
 767.5 1228 l 1,15,-1
 511.25 1228 l 1,4,-1
EndSplineSet
Validated: 1
EndChar

StartChar: tilde
Encoding: 732 732 199
Width: 1535
GlyphClass: 1
Flags: W
LayerCount: 2
Fore
SplineSet
383.75 1228 m 1,0,-1
 383.75 1433 l 1,1,-1
 511.25 1433 l 1,2,-1
 511.25 1638 l 1,3,-1
 895 1638 l 1,4,-1
 895 1433 l 1,5,-1
 1023.75 1433 l 1,6,-1
 1023.75 1638 l 1,7,-1
 1280 1638 l 1,8,-1
 1280 1433 l 1,9,-1
 1151.25 1433 l 1,10,-1
 1151.25 1228 l 1,11,-1
 767.5 1228 l 1,12,-1
 767.5 1433 l 1,13,-1
 640 1433 l 1,14,-1
 640 1228 l 1,15,-1
 383.75 1228 l 1,0,-1
EndSplineSet
Validated: 1
EndChar

StartChar: endash
Encoding: 8211 8211 200
Width: 1535
GlyphClass: 1
Flags: W
LayerCount: 2
Fore
SplineSet
0 614 m 1,0,-1
 0 819 l 1,1,-1
 1535 819 l 1,2,-1
 1535 614 l 1,3,-1
 0 614 l 1,0,-1
EndSplineSet
Validated: 1
EndChar

StartChar: emdash
Encoding: 8212 8212 201
Width: 1535
GlyphClass: 1
Flags: W
LayerCount: 2
Fore
SplineSet
0 614 m 1,0,-1
 0 819 l 1,1,-1
 1535 819 l 1,2,-1
 1535 614 l 1,3,-1
 0 614 l 1,0,-1
EndSplineSet
Validated: 1
EndChar

StartChar: quoteleft
Encoding: 8216 8216 202
Width: 1535
GlyphClass: 1
Flags: W
LayerCount: 2
Fore
SplineSet
640 1024 m 1,0,-1
 640 1433 l 1,1,-1
 767.5 1433 l 1,2,-1
 767.5 1638 l 1,3,-1
 1023.75 1638 l 1,4,-1
 1023.75 1433 l 1,5,-1
 895 1433 l 1,6,-1
 895 1228 l 1,7,-1
 1023.75 1228 l 1,8,-1
 1023.75 1024 l 1,9,-1
 640 1024 l 1,0,-1
EndSplineSet
Validated: 1
EndChar

StartChar: quoteright
Encoding: 8217 8217 203
Width: 1535
GlyphClass: 1
Flags: W
LayerCount: 2
Fore
SplineSet
640 1024 m 1,0,-1
 640 1228 l 1,1,-1
 767.5 1228 l 1,2,-1
 767.5 1433 l 1,3,-1
 640 1433 l 1,4,-1
 640 1638 l 1,5,-1
 1023.75 1638 l 1,6,-1
 1023.75 1228 l 1,7,-1
 895 1228 l 1,8,-1
 895 1024 l 1,9,-1
 640 1024 l 1,0,-1
EndSplineSet
Validated: 1
EndChar

StartChar: quotesinglbase
Encoding: 8218 8218 204
Width: 1535
GlyphClass: 1
Flags: W
LayerCount: 2
Fore
SplineSet
640 4 m 5,0,-1
 640 208 l 5,1,-1
 768 208 l 5,2,-1
 768 413 l 5,3,-1
 640 413 l 5,4,-1
 640 618 l 5,5,-1
 1024 618 l 5,6,-1
 1024 208 l 5,7,-1
 895 208 l 5,8,-1
 895 4 l 5,9,-1
 640 4 l 5,0,-1
EndSplineSet
Validated: 1
EndChar

StartChar: quotedblleft
Encoding: 8220 8220 205
Width: 1535
GlyphClass: 1
Flags: W
LayerCount: 2
Fore
SplineSet
383.75 1024 m 1,0,-1
 383.75 1433 l 1,1,-1
 511.25 1433 l 1,2,-1
 511.25 1638 l 1,3,-1
 767.5 1638 l 1,4,-1
 767.5 1433 l 1,5,-1
 640 1433 l 1,6,-1
 640 1228 l 1,7,-1
 767.5 1228 l 1,8,-1
 767.5 1024 l 1,9,-1
 383.75 1024 l 1,0,-1
895 1024 m 1,10,-1
 895 1433 l 1,11,-1
 1023.75 1433 l 1,12,-1
 1023.75 1638 l 1,13,-1
 1280 1638 l 1,14,-1
 1280 1433 l 1,15,-1
 1151.25 1433 l 1,16,-1
 1151.25 1228 l 1,17,-1
 1280 1228 l 1,18,-1
 1280 1024 l 1,19,-1
 895 1024 l 1,10,-1
EndSplineSet
Validated: 1
EndChar

StartChar: quotedblright
Encoding: 8221 8221 206
Width: 1535
GlyphClass: 1
Flags: W
LayerCount: 2
Fore
SplineSet
383.75 1024 m 5,0,-1
 383.75 1228 l 5,1,-1
 511.25 1228 l 5,2,-1
 511.25 1433 l 5,3,-1
 383.75 1433 l 5,4,-1
 383.75 1638 l 5,5,-1
 767.5 1638 l 5,6,-1
 767.5 1228 l 5,7,-1
 640 1228 l 5,8,-1
 640 1024 l 5,9,-1
 383.75 1024 l 5,0,-1
895 1024 m 5,10,-1
 895 1228 l 5,11,-1
 1023.75 1228 l 5,12,-1
 1023.75 1433 l 5,13,-1
 895 1433 l 5,14,-1
 895 1638 l 5,15,-1
 1280 1638 l 5,16,-1
 1280 1228 l 5,17,-1
 1151.25 1228 l 5,18,-1
 1151.25 1024 l 5,19,-1
 895 1024 l 5,10,-1
EndSplineSet
Validated: 1
EndChar

StartChar: quotedblbase
Encoding: 8222 8222 207
Width: 1535
GlyphClass: 1
Flags: W
LayerCount: 2
Fore
SplineSet
384 4 m 5,0,-1
 384 208 l 5,1,-1
 511 208 l 5,2,-1
 511 413 l 5,3,-1
 384 413 l 5,4,-1
 384 618 l 5,5,-1
 768 618 l 5,6,-1
 768 208 l 5,7,-1
 640 208 l 5,8,-1
 640 4 l 5,9,-1
 384 4 l 5,0,-1
895 4 m 5,10,-1
 895 208 l 5,11,-1
 1024 208 l 5,12,-1
 1024 413 l 5,13,-1
 895 413 l 5,14,-1
 895 618 l 5,15,-1
 1280 618 l 5,16,-1
 1280 208 l 5,17,-1
 1151 208 l 5,18,-1
 1151 4 l 5,19,-1
 895 4 l 5,10,-1
EndSplineSet
Validated: 1
EndChar

StartChar: bullet
Encoding: 8226 8226 208
Width: 1535
GlyphClass: 1
Flags: W
LayerCount: 2
Fore
SplineSet
512 410 m 5,0,-1
 512 819 l 5,1,-1
 895 819 l 5,2,-1
 895 410 l 5,3,-1
 512 410 l 5,0,-1
EndSplineSet
EndChar

StartChar: perthousand
Encoding: 8240 8240 209
Width: 1535
GlyphClass: 1
Flags: W
LayerCount: 2
Fore
SplineSet
767.5 204 m 1,0,-1
 767.5 409 l 1,1,-1
 640 409 l 1,2,-1
 640 204 l 1,3,-1
 767.5 204 l 1,0,-1
1407.5 204 m 1,4,-1
 1407.5 409 l 1,5,-1
 1151.25 409 l 1,6,-1
 1151.25 204 l 1,7,-1
 1407.5 204 l 1,4,-1
1023.75 0 m 1,8,-1
 1023.75 614 l 1,9,-1
 1535 614 l 1,10,-1
 1535 0 l 1,11,-1
 1023.75 0 l 1,8,-1
511.25 1228 m 1,12,-1
 511.25 1433 l 1,13,-1
 255 1433 l 1,14,-1
 255 1228 l 1,15,-1
 511.25 1228 l 1,12,-1
127.5 1024 m 1,16,-1
 127.5 1638 l 1,17,-1
 640 1638 l 1,18,-1
 640 1024 l 1,19,-1
 127.5 1024 l 1,16,-1
127.5 0 m 1,20,-1
 127.5 204 l 1,21,-1
 255 204 l 1,22,-1
 255 409 l 1,23,-1
 383.75 409 l 1,24,-1
 383.75 614 l 1,25,-1
 511.25 614 l 1,26,-1
 511.25 819 l 1,27,-1
 640 819 l 1,28,-1
 640 1024 l 1,29,-1
 767.5 1024 l 1,30,-1
 767.5 1228 l 1,31,-1
 895 1228 l 1,32,-1
 895 1433 l 1,33,-1
 1023.75 1433 l 1,34,-1
 1023.75 1638 l 1,35,-1
 1280 1638 l 1,36,-1
 1280 1433 l 1,37,-1
 1151.25 1433 l 1,38,-1
 1151.25 1228 l 1,39,-1
 1023.75 1228 l 1,40,-1
 1023.75 1024 l 1,41,-1
 895 1024 l 1,42,-1
 895 819 l 1,43,-1
 767.5 819 l 1,44,-1
 767.5 614 l 1,45,-1
 895 614 l 1,46,-1
 895 0 l 1,47,-1
 511.25 0 l 1,48,-1
 511.25 204 l 1,49,-1
 383.75 204 l 1,50,-1
 383.75 0 l 1,51,-1
 127.5 0 l 1,20,-1
EndSplineSet
Validated: 5
EndChar

StartChar: Euro
Encoding: 8364 8364 210
Width: 1535
GlyphClass: 1
Flags: W
LayerCount: 2
Fore
SplineSet
640 0 m 1,0,-1
 640 204 l 1,1,-1
 511.25 204 l 1,2,-1
 511.25 409 l 1,3,-1
 255 409 l 1,4,-1
 255 614 l 1,5,-1
 383.75 614 l 1,6,-1
 383.75 819 l 1,7,-1
 255 819 l 1,8,-1
 255 1024 l 1,9,-1
 511.25 1024 l 1,10,-1
 511.25 1228 l 1,11,-1
 640 1228 l 1,12,-1
 640 1433 l 1,13,-1
 1280 1433 l 1,14,-1
 1280 1228 l 1,15,-1
 1407.5 1228 l 1,16,-1
 1407.5 1024 l 1,17,-1
 1151.25 1024 l 1,18,-1
 1151.25 1228 l 1,19,-1
 767.5 1228 l 1,20,-1
 767.5 1024 l 1,21,-1
 1023.75 1024 l 1,22,-1
 1023.75 819 l 1,23,-1
 640 819 l 1,24,-1
 640 614 l 1,25,-1
 1023.75 614 l 1,26,-1
 1023.75 409 l 1,27,-1
 767.5 409 l 1,28,-1
 767.5 204 l 1,29,-1
 1151.25 204 l 1,30,-1
 1151.25 409 l 1,31,-1
 1407.5 409 l 1,32,-1
 1407.5 204 l 1,33,-1
 1280 204 l 1,34,-1
 1280 0 l 1,35,-1
 640 0 l 1,0,-1
EndSplineSet
Validated: 1
EndChar

StartChar: trademark
Encoding: 8482 8482 211
Width: 1535
GlyphClass: 1
Flags: W
LayerCount: 2
Fore
SplineSet
383.75 409 m 1,0,-1
 383.75 1228 l 1,1,-1
 127.5 1228 l 1,2,-1
 127.5 1433 l 1,3,-1
 895 1433 l 1,4,-1
 895 1228 l 1,5,-1
 1023.75 1228 l 1,6,-1
 1023.75 1024 l 1,7,-1
 1151.25 1024 l 1,8,-1
 1151.25 1228 l 1,9,-1
 1280 1228 l 1,10,-1
 1280 1433 l 1,11,-1
 1407.5 1433 l 1,12,-1
 1407.5 409 l 1,13,-1
 1280 409 l 1,14,-1
 1280 819 l 1,15,-1
 1151.25 819 l 1,16,-1
 1151.25 614 l 1,17,-1
 1023.75 614 l 1,18,-1
 1023.75 819 l 1,19,-1
 895 819 l 1,20,-1
 895 409 l 1,21,-1
 767.5 409 l 1,22,-1
 767.5 1228 l 1,23,-1
 511.25 1228 l 1,24,-1
 511.25 409 l 1,25,-1
 383.75 409 l 1,0,-1
EndSplineSet
Validated: 1
EndChar

StartChar: filledbox
Encoding: 9632 9632 212
Width: 1535
Flags: W
LayerCount: 2
Fore
SplineSet
128 0 m 5,0,-1
 128 1433 l 5,1,-1
 1407 1433 l 1,2,-1
 1407 0 l 1,3,-1
 128 0 l 5,0,-1
EndSplineSet
EndChar

StartChar: guilsinglleft
Encoding: 8249 8249 213
Width: 1535
Flags: W
LayerCount: 2
Fore
SplineSet
767.75 204 m 5,0,-1
 767.75 409 l 5,1,-1
 639 409 l 5,2,-1
 639 614 l 5,3,-1
 511.5 614 l 5,4,-1
 511.5 819 l 5,5,-1
 639 819 l 5,6,-1
 639 1024 l 5,7,-1
 767.75 1024 l 5,8,-1
 767.75 1228 l 5,9,-1
 1024 1228 l 5,10,-1
 1024 1024 l 5,11,-1
 895.25 1024 l 5,12,-1
 895.25 819 l 5,13,-1
 767.75 819 l 5,14,-1
 767.75 614 l 5,15,-1
 895.25 614 l 5,16,-1
 895.25 409 l 5,17,-1
 1024 409 l 5,18,-1
 1024 204 l 5,19,-1
 767.75 204 l 5,0,-1
EndSplineSet
EndChar

StartChar: guilsinglright
Encoding: 8250 8250 214
Width: 1535
Flags: W
LayerCount: 2
Fore
SplineSet
511.5 204 m 5,0,-1
 511.5 409 l 5,1,-1
 639 409 l 5,2,-1
 639 614 l 5,3,-1
 767.75 614 l 5,4,-1
 767.75 819 l 5,5,-1
 639 819 l 5,6,-1
 639 1024 l 5,7,-1
 511.5 1024 l 5,8,-1
 511.5 1228 l 5,9,-1
 767.75 1228 l 5,10,-1
 767.75 1024 l 5,11,-1
 895.25 1024 l 5,12,-1
 895.25 819 l 5,13,-1
 1024 819 l 5,14,-1
 1024 614 l 5,15,-1
 895.25 614 l 5,16,-1
 895.25 409 l 5,17,-1
 767.75 409 l 5,18,-1
 767.75 204 l 5,19,-1
 511.5 204 l 5,0,-1
EndSplineSet
EndChar

StartChar: scedilla
Encoding: 351 351 215
Width: 1535
Flags: W
LayerCount: 2
Fore
SplineSet
767 -204 m 5,0,1
 767 -204 767 -204 767 -409 c 5,2,-1
 511.25 -409 l 5,3,-1
 511.25 -204 l 5,4,-1
 640 -204 l 5,5,-1
 640 0 l 5,6,-1
 895 0 l 5,7,-1
 895 -204 l 5,8,9
 895 -204 895 -204 767 -204 c 5,0,1
256 0 m 1,10,-1
 256 204 l 1,11,-1
 1151 204 l 1,12,-1
 1151 409 l 1,13,-1
 384 409 l 1,14,-1
 384 614 l 1,15,-1
 255 614 l 1,16,-1
 255 819 l 1,17,-1
 384 819 l 1,18,-1
 384 1024 l 1,19,-1
 1408 1024 l 1,20,-1
 1408 819 l 1,21,-1
 511 819 l 1,22,-1
 511 614 l 1,23,-1
 1280 614 l 1,24,-1
 1280 409 l 1,25,-1
 1408 409 l 1,26,-1
 1408 204 l 1,27,-1
 1280 204 l 1,28,-1
 1280 0 l 1,29,-1
 256 0 l 1,10,-1
EndSplineSet
EndChar

StartChar: Scedilla
Encoding: 350 350 216
Width: 1535
Flags: W
LayerCount: 2
Fore
SplineSet
256 0 m 5,0,-1
 256 204 l 5,1,-1
 1151 204 l 5,2,-1
 1151 614 l 5,3,-1
 384 614 l 5,4,-1
 384 819 l 5,5,-1
 255 819 l 5,6,-1
 255 1228 l 5,7,-1
 384 1228 l 5,8,-1
 384 1433 l 5,9,-1
 1408 1433 l 5,10,-1
 1408 1228 l 5,11,-1
 511 1228 l 5,12,-1
 511 819 l 5,13,-1
 1280 819 l 5,14,-1
 1280 614 l 5,15,-1
 1408 614 l 5,16,-1
 1408 204 l 5,17,-1
 1280 204 l 5,18,-1
 1280 0 l 5,19,-1
 256 0 l 5,0,-1
767 -204 m 1,20,21
 767 -204 767 -204 767 -409 c 1,22,-1
 511.25 -409 l 1,23,-1
 511.25 -204 l 1,24,-1
 640 -204 l 1,25,-1
 640 0 l 1,26,-1
 895 0 l 1,27,-1
 895 -204 l 1,28,29
 895 -204 895 -204 767 -204 c 1,20,21
EndSplineSet
EndChar
